<svg width="42" height="85" fill="none" xmlns="http://www.w3.org/2000/svg"><path d="M20 2v78L2 57.296" stroke="#fff" stroke-width="3" stroke-miterlimit="10" stroke-linecap="round"/><path d="M20 2v8" stroke="#EC6C00" stroke-width="3" stroke-miterlimit="10" stroke-linecap="round"/><path d="M33.197 6.355c.176 0 .332-.027.469-.082a.915.915 0 0 0 .375-.275 2.27 2.27 0 0 0 .328-.562c.11-.239.22-.543.334-.915.125-.406.264-.78.416-1.125.156-.34.336-.636.54-.89.206-.254.443-.451.708-.592.27-.14.58-.21.932-.21.348 0 .664.071.949.216.285.148.531.357.738.627.211.273.373.596.487.967.117.37.175.78.175 1.23 0 .633-.117 1.178-.351 1.635-.234.46-.549.814-.944 1.06-.394.25-.83.375-1.306.375V6.355c.281 0 .53-.06.744-.181.219-.117.39-.297.516-.54.125-.238.187-.54.187-.907 0-.348-.053-.637-.158-.868a1.156 1.156 0 0 0-.428-.515 1.119 1.119 0 0 0-.61-.17.885.885 0 0 0-.439.111c-.129.074-.25.188-.363.34-.11.152-.213.344-.31.574-.098.23-.192.502-.282.815-.14.472-.297.884-.469 1.236-.167.352-.359.645-.574.879-.214.234-.459.41-.732.527-.27.117-.576.176-.92.176-.36 0-.684-.072-.973-.217a2.1 2.1 0 0 1-.732-.62 2.973 2.973 0 0 1-.463-.962 4.538 4.538 0 0 1-.158-1.242c0-.41.055-.814.164-1.213.11-.394.275-.754.498-1.078.226-.324.508-.582.844-.773.34-.192.736-.288 1.19-.288V2.91c-.278 0-.514.047-.71.14a1.307 1.307 0 0 0-.48.405 1.817 1.817 0 0 0-.27.598c-.059.23-.088.476-.088.738 0 .344.05.63.147.861.097.235.234.41.41.528.176.117.379.175.61.175Zm-1.19 5.827c0 .23.046.438.136.621.093.188.222.338.386.451.164.117.354.182.569.194v1.33a1.981 1.981 0 0 1-1.12-.364 2.521 2.521 0 0 1-.802-.931 2.805 2.805 0 0 1-.293-1.283c0-.485.082-.907.246-1.266.168-.36.398-.658.691-.896.293-.239.631-.418 1.014-.54a4.183 4.183 0 0 1 1.23-.175h.206c.437 0 .847.058 1.23.175.387.122.727.301 1.02.54.292.238.521.537.685.896.168.36.252.78.252 1.26 0 .508-.102.953-.305 1.336a2.25 2.25 0 0 1-.837.902c-.356.223-.77.338-1.243.346v-1.33c.235-.012.446-.07.633-.176.192-.102.344-.246.457-.434.113-.183.17-.404.17-.662 0-.285-.059-.521-.176-.709a1.182 1.182 0 0 0-.468-.44 2.287 2.287 0 0 0-.663-.228 4.318 4.318 0 0 0-.755-.064h-.206c-.261 0-.515.021-.761.064a2.168 2.168 0 0 0-.662.223c-.192.11-.346.258-.463.445-.113.188-.17.426-.17.715Zm4.126 5.698H31v-1.412h6.34v1.347l-1.207.065Zm1.248 1.94-1.313-.013a3.679 3.679 0 0 0 .047-.574 1.78 1.78 0 0 0-.105-.639 1.204 1.204 0 0 0-.75-.744 2.045 2.045 0 0 0-.604-.117l-.023-.322c.398 0 .767.039 1.107.117.34.078.639.195.897.352.258.16.459.36.603.597.145.242.217.522.217.838 0 .086-.008.178-.023.276a1.177 1.177 0 0 1-.053.228ZM34.1 20.881h.134c.457 0 .881.066 1.272.2.394.132.736.323 1.025.573.293.254.52.563.68.926.164.367.246.782.246 1.242 0 .465-.082.88-.246 1.243-.16.367-.387.677-.68.931-.289.254-.63.448-1.025.58-.39.133-.815.2-1.272.2H34.1c-.457 0-.881-.067-1.272-.2a3.043 3.043 0 0 1-1.025-.58 2.689 2.689 0 0 1-.68-.925 3.036 3.036 0 0 1-.24-1.237c0-.465.08-.88.24-1.248.164-.363.39-.672.68-.926a3.045 3.045 0 0 1 1.025-.58c.39-.133.815-.199 1.272-.199Zm.134 1.412H34.1c-.285 0-.555.03-.809.088-.254.059-.476.15-.668.275a1.361 1.361 0 0 0-.451.48c-.11.196-.164.429-.164.698 0 .262.054.488.164.68.11.195.26.355.451.48.192.125.414.217.668.276.254.062.524.093.809.093h.134c.282 0 .547-.03.797-.093.254-.059.479-.153.674-.282.195-.125.348-.285.457-.48.113-.191.17-.42.17-.686 0-.265-.057-.496-.17-.691a1.36 1.36 0 0 0-.457-.475 2.125 2.125 0 0 0-.674-.275 3.483 3.483 0 0 0-.797-.088ZM40 30.072h-9v-1.418h9v1.418Zm0 3.659h-9v-1.419h9v1.419Z" fill="#fff"/></svg>