<svg width="594" height="222" fill="none" xmlns="http://www.w3.org/2000/svg"><g clip-path="url(#a)" stroke-width="5" stroke-miterlimit="10" stroke-linecap="round"><path d="M28.5 219.5h511.26" stroke="#fff"/><path d="M487.43 219.5h-6.23M520.8 219.5h-18.96" stroke="#EC6C00"/></g><g clip-path="url(#b)" stroke-width="5" stroke-miterlimit="10" stroke-linecap="round"><path d="M3 53.325V26.623h287.876V3H591v91.31H381.207L352.127 121l7.142-26.701h-26.543" stroke="#fff"/><path d="M39 27h-7M73 27H54" stroke="#EC6C00"/></g><g clip-path="url(#c)" fill="#008088"><path d="M28.181 189.609a1.16 1.16 0 0 1-.834-.355 1.179 1.179 0 0 1-.347-.852c0-.802.218-1.532.665-2.191l7.475-11.004c.536-.801 1.29-1.207 2.274-1.207.397 0 .734.142 1.022.436.288.294.427.639.427 1.045v11.501c0 .142.08.223.238.223h1.718c.317 0 .595.122.834.355.228.233.347.517.347.852 0 .334-.12.608-.347.852a1.128 1.128 0 0 1-.834.355H39.1c-.159 0-.238.081-.238.243v2.657c0 .406-.139.751-.427 1.045a1.373 1.373 0 0 1-1.022.436c-.398 0-.735-.142-1.023-.436a1.433 1.433 0 0 1-.427-1.045v-2.657c0-.162-.08-.243-.238-.243h-7.545v-.01Zm1.797-2.495s0 .03-.01.03c0 0-.01 0-.01.03 0 .031 0 .031.03.031h5.758c.159 0 .238-.071.238-.223v-8.601s0-.03-.03-.03c-.04 0-.05 0-.05.03l-5.926 8.733ZM53.022 172.002c.362.042.654.196.865.474.221.277.302.596.241.946-.312 2.088-.694 3.94-1.167 5.555-.05.165-.08.329-.08.504v16.11c0 .391-.13.72-.403.998a1.309 1.309 0 0 1-.975.411c-.383 0-.704-.134-.976-.411a1.377 1.377 0 0 1-.413-.998v-10.442s-.01-.031-.04-.031-.05 0-.07.031c-.05.113-.13.268-.231.473-.101.206-.172.33-.202.391-.14.278-.372.402-.674.36-.311-.041-.513-.205-.623-.504l-.08-.226c-.323-.967-.242-1.913.24-2.86 1.45-2.829 2.485-6.018 3.099-9.556a1.52 1.52 0 0 1 .533-.906 1.38 1.38 0 0 1 .966-.319h-.01ZM56.25 197c-.382 0-.704-.134-.976-.411a1.367 1.367 0 0 1-.402-.998v-21.449c0-.422.15-.792.452-1.111a1.416 1.416 0 0 1 1.077-.473H71.45c.412 0 .774.154 1.086.473.312.319.463.689.463 1.111v21.418c0 .411-.13.751-.412 1.029a1.36 1.36 0 0 1-1.006.411h-.433a.949.949 0 0 1-.704-.309.99.99 0 0 1-.302-.72c0-.092-.05-.133-.16-.133H57.81c-.11 0-.16.041-.16.133a.99.99 0 0 1-.303.72.949.949 0 0 1-.704.309h-.392Zm1.388-21.778v18.003c0 .164.08.247.241.247h12.002c.16 0 .241-.083.241-.247v-18.003c0-.144-.08-.226-.242-.226h-12c-.162 0-.242.072-.242.226Zm2.012 5.442c-.312 0-.573-.113-.785-.329a1.1 1.1 0 0 1-.322-.802c0-.309.111-.587.322-.803.212-.216.483-.329.785-.329h2.636c.16 0 .241-.082.241-.247v-1.193c0-.391.13-.72.392-.988a1.3 1.3 0 0 1 .966-.401 1.3 1.3 0 0 1 .966.401c.261.268.392.597.392.988v1.193c0 .165.08.247.242.247h2.635c.312 0 .574.113.785.329a1.1 1.1 0 0 1 .322.803c0 .308-.111.586-.322.802a1.052 1.052 0 0 1-.785.329h-2.635c-.161 0-.242.082-.242.247v2.356c0 .164.08.247.242.247h1.327c.413 0 .775.154 1.087.473.312.319.462.689.462 1.111v5.246c0 .432-.15.792-.462 1.111-.312.319-.674.473-1.087.473H60.95c-.423 0-.775-.154-1.087-.473a1.536 1.536 0 0 1-.462-1.111v-5.246c0-.422.15-.792.462-1.111.312-.319.674-.473 1.087-.473h1.328c.16 0 .24-.083.24-.247v-2.356c0-.165-.08-.247-.24-.247H59.64h.01Zm5.834 5.113h-3.209c-.16 0-.24.082-.24.247v3.415c0 .144.08.226.24.226h3.21c.14 0 .22-.072.22-.226v-3.415c0-.165-.07-.247-.22-.247ZM81.486 191.032c.204-.287.48-.475.828-.564a1.476 1.476 0 0 1 1.023.109c.317.158.512.395.604.721.092.317.04.623-.144.909a34.29 34.29 0 0 1-2.26 3.044 1.402 1.402 0 0 1-.941.503 1.616 1.616 0 0 1-1.074-.217 1.006 1.006 0 0 1-.512-.771 1.14 1.14 0 0 1 .266-.909 36.153 36.153 0 0 0 2.21-2.825Zm5.933-3.547c0 .415-.154.76-.47 1.067a1.537 1.537 0 0 1-1.106.454h-5.166c-.419 0-.787-.148-1.094-.454-.307-.307-.46-.662-.46-1.067V174.65c0-.405.153-.761.46-1.067a1.482 1.482 0 0 1 1.094-.455h5.166c.42 0 .788.149 1.105.455.317.306.47.662.47 1.067v12.835Zm-2.762-7.924v-3.785c0-.158-.082-.237-.246-.237h-2.24c-.143 0-.225.079-.225.237v3.785c0 .158.072.237.225.237h2.24c.164 0 .246-.079.246-.237Zm0 6.886v-4.08c0-.159-.082-.238-.246-.238h-2.24c-.143 0-.225.079-.225.238v4.08c0 .138.072.217.225.217h2.24c.164 0 .246-.069.246-.217Zm2.076 8.349c-.184-1.136-.337-2.006-.47-2.589-.072-.355 0-.681.204-.978.205-.296.502-.454.87-.494.41-.049.767.03 1.094.257.328.227.532.524.624.889.185.85.348 1.729.502 2.619a1.25 1.25 0 0 1-.276.998c-.236.296-.553.454-.942.494a1.455 1.455 0 0 1-1.053-.297 1.294 1.294 0 0 1-.553-.909v.01ZM101.454 173c.439 0 .818.148 1.115.445.296.296.45.652.429 1.077-.041 1.867-.174 3.26-.419 4.189-.235.929-.573 1.541-1.013 1.838-.43.306-1.084.454-1.944.454-.664 0-1.595-.03-2.792-.079a1.218 1.218 0 0 1-.839-.375 1.165 1.165 0 0 1-.368-.83c-.02-.287.082-.534.307-.751a.981.981 0 0 1 .777-.297c.553.04 1.177.05 1.882.05.594 0 .982-.188 1.187-.563.205-.376.317-1.226.327-2.559 0-.139-.071-.218-.225-.218H96.37c-.144 0-.236.069-.277.218a8.773 8.773 0 0 1-1.728 3.537c-.86 1.077-1.934 1.966-3.223 2.677a.09.09 0 0 0-.03.069c0 .03.02.04.05.04h9.504c.419 0 .788.148 1.105.454.317.307.47.662.47 1.068v4.564c0 .415-.153.761-.47 1.067a1.535 1.535 0 0 1-1.105.455h-9.974c-.42 0-.787-.148-1.105-.455-.317-.306-.47-.662-.47-1.067v-5.147a.729.729 0 0 0-.133-.396l-.358-.583a1.207 1.207 0 0 1-.164-1.067c.113-.375.348-.662.716-.849 2.077-1.137 3.437-2.589 4.061-4.348.041-.138-.02-.217-.163-.217h-3.171c-.348 0-.645-.119-.9-.346a1.115 1.115 0 0 1-.369-.85c0-.336.123-.622.368-.849a1.29 1.29 0 0 1 .9-.346h11.55V173Zm-9.504 11.441v2.53c0 .158.082.237.246.237h6.936c.143 0 .224-.079.224-.237v-2.53c0-.158-.071-.237-.224-.237h-6.936c-.164 0-.246.079-.246.237Zm3.12 11.442c-.388.069-.746.01-1.094-.178a1.65 1.65 0 0 1-.737-.81 50.473 50.473 0 0 0-1.105-2.638 1.102 1.102 0 0 1 0-.949c.144-.306.4-.514.747-.602.389-.089.757-.05 1.115.108s.624.415.788.771c.184.405.573 1.324 1.156 2.747.133.336.102.662-.072.958-.174.296-.45.494-.818.583l.02.01Zm7.58-1.146a1.162 1.162 0 0 1-.593.77 1.43 1.43 0 0 1-1.033.149 1.358 1.358 0 0 1-.87-.573c-.409-.583-1.145-1.562-2.21-2.905a1.065 1.065 0 0 1-.234-.919c.06-.346.245-.613.542-.791.327-.197.685-.266 1.053-.197.369.059.675.247.911.543a55.577 55.577 0 0 1 2.26 2.984 1.1 1.1 0 0 1 .185.939h-.011ZM110.207 194.784c-.093.324-.299.523-.628.596-.33.073-.608 0-.845-.251-.67-.679-.876-1.473-.639-2.393.628-2.488.948-6.052.948-10.692v-4.682c0-.429.154-.805.474-1.129a1.51 1.51 0 0 1 1.113-.481h8.934c.422 0 .793.157 1.112.481.32.324.474.7.474 1.129v3.835c0 .303-.103.554-.309.753a1.035 1.035 0 0 1-.752.292c-.093 0-.155.063-.196.199-.041.094-.092.272-.175.533-.082.261-.154.46-.206.596-.041.146 0 .23.134.23h.835a.91.91 0 0 1 .669.282.937.937 0 0 1 .279.679.937.937 0 0 1-.279.68.91.91 0 0 1-.669.282h-1.062c-.144 0-.226.073-.226.23v.878c0 .167.072.251.226.251h.783c.258 0 .485.083.67.271a.874.874 0 0 1 .278.659.936.936 0 0 1-.278.679.912.912 0 0 1-.67.282h-.783c-.144 0-.226.084-.226.251v.847c0 .146.072.23.226.23h.783c.258 0 .485.094.67.282a.936.936 0 0 1 .278.679.936.936 0 0 1-.278.679.909.909 0 0 1-.67.283h-.783c-.144 0-.226.073-.226.23v.878c0 .167.072.25.226.25h.783c.413 0 .711.168.917.512.073.136.155.147.248.053a1.41 1.41 0 0 1 .278-.23c1.443-.795 2.638-1.631 3.565-2.509.042-.02.042-.052.031-.094-.02-.041-.051-.073-.082-.073h-1.391a1.51 1.51 0 0 1-1.113-.481 1.55 1.55 0 0 1-.474-1.128v-11.581c0-.428.154-.804.474-1.118.319-.313.69-.47 1.113-.47h1.442c.165 0 .268-.073.309-.23.093-.324.217-.815.361-1.495.041-.167-.031-.251-.196-.251h-2.339c-.33 0-.618-.125-.865-.365a1.21 1.21 0 0 1-.361-.878c0-.345.124-.627.361-.878.237-.241.525-.366.865-.366h9.46c.329 0 .618.125.845.366.226.24.35.533.35.878s-.113.627-.35.878c-.227.24-.516.365-.845.365h-3.648c-.165 0-.258.063-.278.199-.021.115-.052.272-.093.481-.041.209-.093.397-.124.564a5.596 5.596 0 0 1-.113.481c-.041.167.021.251.165.251h3.029c.423 0 .794.157 1.113.47.32.314.474.679.474 1.118v11.539c0 .428-.154.805-.474 1.129-.319.324-.69.48-1.113.48h-2.061s-.051.011-.051.042c0 .032 0 .052.031.073a26.13 26.13 0 0 1 3.812 2.571c.299.241.464.554.505.92.042.366-.051.7-.278 1.004a1.136 1.136 0 0 1-.824.48 1.286 1.286 0 0 1-.928-.251 39.873 39.873 0 0 0-2.978-2.058c-.371-.23-.608-.544-.7-.962a1.419 1.419 0 0 1 .226-1.16l.33-.45s.041-.083.01-.125c-.03-.042-.072-.073-.123-.073h-2.669s-.062.021-.082.073c-.021.042-.021.094 0 .125l.329.366c.299.356.433.763.423 1.213a1.53 1.53 0 0 1-.557 1.128c-.834.711-1.844 1.39-3.029 2.028a1.32 1.32 0 0 1-1.072.115 1.552 1.552 0 0 1-.876-.648c-.02-.021-.031-.042-.031-.052-.072-.136-.164-.157-.278-.084-.237.167-.464.251-.67.251h-5.234c-.114 0-.165.052-.165.167 0 .324-.103.585-.309.794a1.049 1.049 0 0 1-.783.314h-.31c-.391 0-.721-.136-.989-.408a1.372 1.372 0 0 1-.402-1.003v-5.78c0-.167-.061-.282-.195-.334l-.31-.136c-.051-.021-.113-.01-.164.01-.052.032-.083.074-.083.126-.227 2.028-.577 3.804-1.061 5.33l.01-.021Zm-.721-20.432c-.32 0-.588-.115-.804-.356a1.158 1.158 0 0 1-.33-.836c0-.324.114-.596.33-.815.216-.22.495-.335.804-.335h10.706c.32 0 .587.115.824.335.227.23.351.502.351.815 0 .314-.114.596-.351.836-.237.23-.504.356-.824.356h-10.706Zm2.061 9.312c0 1.076 0 1.85-.031 2.341.02.021.041.021.082 0 .577-1.317 1.031-2.498 1.36-3.553.042-.136-.02-.199-.164-.199h-1c-.165 0-.247.073-.247.23v1.181Zm.422-5.414v1.495c0 .167.083.25.247.25h5.987c.165 0 .248-.083.248-.25v-1.495c0-.146-.083-.23-.248-.23h-5.987c-.164 0-.247.073-.247.23Zm4.864 8.549v-.878c0-.146-.083-.23-.247-.23h-1.896c-.145 0-.227.074-.227.23v.878c0 .168.072.251.227.251h1.896c.164 0 .247-.083.247-.251Zm0 3.24v-.846c0-.167-.083-.251-.247-.251h-1.896c-.145 0-.227.084-.227.251v.846c0 .147.072.23.227.23h1.896c.164 0 .247-.073.247-.23Zm0 3.251v-.878c0-.147-.083-.23-.247-.23h-1.896c-.145 0-.227.073-.227.23v.878c0 .167.072.251.227.251h1.896c.164 0 .247-.084.247-.251Zm.639-10.807c.041-.146-.021-.23-.165-.23h-1.639c-.164 0-.278.073-.329.23-.145.491-.258.846-.33 1.076-.041.147.021.23.165.23h1.587c.165 0 .278-.073.329-.23.165-.397.299-.752.392-1.076h-.01Zm7.429-3.533v1.443c0 .146.083.229.247.229h5.008c.165 0 .248-.073.248-.229v-1.443c0-.167-.083-.251-.248-.251h-5.008c-.164 0-.247.084-.247.251Zm0 4.035v1.463c0 .167.083.251.247.251h5.008c.165 0 .248-.084.248-.251v-1.463c0-.168-.083-.251-.248-.251h-5.008c-.164 0-.247.083-.247.251Zm.247 5.873h5.008c.165 0 .248-.073.248-.23v-1.578c0-.146-.083-.23-.248-.23h-5.008c-.164 0-.247.073-.247.23v1.578c0 .147.083.23.247.23ZM140.265 175.205c-.339 0-.638-.134-.887-.392a1.32 1.32 0 0 1-.378-.948c0-.371.129-.68.378-.927a1.23 1.23 0 0 1 .887-.382h6.055c.359 0 .667.134.916.392s.379.567.379.917c0 .371-.13.691-.379.948a1.232 1.232 0 0 1-.916.392h-1.315c-.159 0-.239.082-.239.247v5.286c0 .165.08.248.239.248h1.206c.358 0 .657.123.886.36.229.237.348.546.348.917s-.119.68-.348.917a1.187 1.187 0 0 1-.886.361h-1.206c-.159 0-.239.083-.239.247v5.761c0 .144.08.206.239.165a51.762 51.762 0 0 0 1.584-.526c.309-.093.588-.051.856.113a.871.871 0 0 1 .429.722c.04.35-.04.68-.229.989-.19.309-.458.525-.797.649-1.922.691-4.073 1.35-6.454 1.999a.998.998 0 0 1-.896-.154 1.062 1.062 0 0 1-.468-.825c-.04-.35.05-.68.259-.989.209-.309.488-.505.846-.598.18-.041.449-.113.807-.226.359-.114.628-.186.807-.227.139-.041.219-.134.219-.278v-6.595c0-.165-.08-.247-.239-.247h-1.205c-.359 0-.658-.124-.887-.361-.229-.237-.348-.546-.348-.917s.119-.68.348-.917c.229-.237.528-.361.887-.361h1.205c.159 0 .239-.082.239-.247v-5.287c0-.164-.08-.247-.239-.247h-1.454l-.01.021Zm22.448 14.189c.379.041.687.206.936.505.249.299.369.639.349 1.031-.09 1.576-.229 2.679-.418 3.307-.19.629-.478 1.041-.877 1.237-.398.196-1.105.309-2.121.35-.13 0-.319 0-.578.031a7.868 7.868 0 0 1-.607.031c-.289 0-.668-.021-1.126-.052-1.115-.02-1.812-.144-2.111-.391-.299-.237-.448-.794-.448-1.639v-5.399c0-.165-.07-.247-.219-.247h-1.026c-.14 0-.229.082-.269.247-.488 3.637-2.819 6.141-7.021 7.512a1.241 1.241 0 0 1-1.046-.072 1.494 1.494 0 0 1-.727-.825c-.13-.329-.11-.659.04-.968.149-.32.398-.526.737-.639 3.027-1.02 4.79-2.69 5.268-5.008.04-.165-.03-.247-.189-.247h-1.374c-.409 0-.767-.155-1.066-.474a1.58 1.58 0 0 1-.448-1.113v-12.984c0-.423.149-.794.448-1.113.299-.319.647-.474 1.066-.474h11.134c.408 0 .767.155 1.076.474.308.319.458.69.458 1.113v12.963c0 .423-.15.794-.458 1.113-.309.319-.668.474-1.076.474h-2.261c-.159 0-.239.082-.239.247v4.009c0 .412.03.659.09.762.06.103.199.165.418.175h1.375c.268-.02.448-.072.547-.164.1-.093.17-.32.229-.67.05-.351.1-.979.13-1.865.02-.371.159-.68.428-.928.269-.247.578-.36.946-.319l.03.01Zm-11.563-14.632v1.72c0 .165.08.248.239.248h8.147c.14 0 .219-.083.219-.248v-1.72c0-.165-.07-.248-.219-.248h-8.147c-.159 0-.239.083-.239.248Zm0 4.451v1.721c0 .165.08.247.239.247h8.147c.14 0 .219-.082.219-.247v-1.721c0-.165-.07-.247-.219-.247h-8.147c-.159 0-.239.082-.239.247Zm.239 6.43h8.147c.14 0 .219-.082.219-.247v-1.721c0-.165-.07-.247-.219-.247h-8.147c-.159 0-.239.082-.239.247v1.721c0 .165.08.247.239.247ZM170.146 180.822c-.311 0-.573-.112-.804-.345a1.087 1.087 0 0 1-.342-.811c0-.315.111-.588.342-.822.221-.233.493-.355.804-.355h1.197c.141 0 .221-.071.221-.223v-4.836c0-.406.141-.74.423-1.014a1.412 1.412 0 0 1 1.015-.416c.393 0 .735.132 1.016.416.282.274.422.608.422 1.014v4.847c0 .141.071.223.222.223h1.327c.312 0 .583.121.815.354.231.234.352.507.352.822 0 .314-.121.578-.352.811a1.108 1.108 0 0 1-.815.345h-1.327c-.141 0-.222.081-.222.243v8.071c0 .142.071.203.222.163a26.03 26.03 0 0 0 1.659-.548c.141-.041.171-.122.08-.243a.94.94 0 0 1-.08-.791c.091-.294.261-.507.513-.659a20.115 20.115 0 0 0 3.148-2.302c.04-.041.04-.071.03-.112a.084.084 0 0 0-.081-.05h-2.061c-.312 0-.574-.112-.785-.345a1.107 1.107 0 0 1-.322-.811c0-.315.111-.578.322-.791.211-.213.483-.325.785-.325h14.984c.311 0 .573.112.804.325.221.223.342.487.342.791 0 .304-.111.578-.342.811a1.084 1.084 0 0 1-.804.345h-9.262a.52.52 0 0 0-.382.162c-.141.162-.383.406-.704.74-.041.02-.041.051-.031.112.021.05.041.081.081.081h9.201c.413 0 .775.152 1.076.456.302.304.453.659.453 1.085v.304c0 2.332-.121 4.127-.372 5.364-.241 1.237-.583 2.059-1.036 2.464-.442.406-1.066.598-1.86.598-.614 0-1.348-.03-2.203-.081a1.245 1.245 0 0 1-.864-.385 1.47 1.47 0 0 1-.413-.872c-.02-.314.081-.578.312-.811a.988.988 0 0 1 .804-.315c.725.041 1.197.051 1.408.051.322 0 .584-.122.765-.355.181-.233.331-.76.452-1.561.121-.801.181-1.967.181-3.509 0-.162-.07-.243-.221-.243h-.111c-.181 0-.301.061-.352.193-.704 1.348-1.639 2.707-2.805 4.076a25.32 25.32 0 0 1-3.681 3.559 1.272 1.272 0 0 1-.955.274 1.45 1.45 0 0 1-.895-.436.956.956 0 0 1-.262-.822c.04-.314.191-.568.453-.77a22.194 22.194 0 0 0 5.48-5.912c.071-.111.031-.162-.13-.162h-1.68c-.181 0-.311.051-.382.162-.925 1.166-2.041 2.322-3.339 3.448-1.307 1.135-2.624 2.089-3.962 2.869a1.43 1.43 0 0 1-.955.152c-.332-.06-.593-.233-.815-.507a1.005 1.005 0 0 1-.191-.811.905.905 0 0 1 .463-.669 24.032 24.032 0 0 0 5.702-4.492c.04-.04.04-.071.03-.111-.02-.041-.04-.051-.08-.051h-1.71a.786.786 0 0 0-.432.132c-.594.415-1.077.75-1.439.983-.11.071-.291.132-.543.162-.14 0-.201.082-.16.244.04.314-.021.598-.161.862a1.291 1.291 0 0 1-.654.588 51.74 51.74 0 0 1-6.215 2.139 1.114 1.114 0 0 1-.895-.162 1.125 1.125 0 0 1-.493-.771 1.32 1.32 0 0 1 .222-.963 1.39 1.39 0 0 1 .814-.578c.141-.04.362-.081.654-.152.291-.061.493-.111.623-.152.121-.02.191-.112.191-.274v-8.902c0-.163-.07-.244-.221-.244h-1.197l-.01.031Zm9.614-8.71h11.324c.412 0 .774.152 1.086.466a1.5 1.5 0 0 1 .462 1.095v6.135c0 .425-.15.78-.462 1.095a1.48 1.48 0 0 1-1.086.466H179.76c-.412 0-.774-.152-1.076-.466a1.538 1.538 0 0 1-.452-1.095v-6.135c0-.416.151-.781.452-1.095a1.428 1.428 0 0 1 1.076-.466Zm9.936 3.477v-.963c0-.162-.081-.243-.241-.243h-8.196c-.161 0-.242.081-.242.243v.963c0 .163.081.244.242.244h8.196c.16 0 .241-.081.241-.244Zm0 3.56v-1.045c0-.162-.081-.243-.241-.243h-8.196c-.161 0-.242.081-.242.243v1.045c0 .162.081.243.242.243h8.196c.16 0 .241-.081.241-.243ZM200.283 177.527c-.352 0-.652-.125-.911-.384a1.265 1.265 0 0 1-.372-.932c0-.373.124-.684.362-.922.238-.239.548-.363.921-.363h3.352c.166 0 .248-.083.248-.249v-2.217c0-.414.145-.756.435-1.036a1.45 1.45 0 0 1 1.045-.414 1.412 1.412 0 0 1 1.448 1.45v2.207c0 .166.083.249.249.249h3.497c.372 0 .683.124.921.362.237.239.362.549.362.922s-.125.684-.373.933a1.256 1.256 0 0 1-.91.383h-3.497c-.166 0-.249.073-.249.228v4.704c0 .166.083.249.249.249h2.203c.228 0 .394.02.507.051.145.042.228 0 .228-.134a2.77 2.77 0 0 1 .197-.674c1.562-2.745 2.834-5.999 3.797-9.76.093-.373.3-.673.631-.891.32-.228.683-.321 1.076-.279.372.041.672.217.89.528.227.321.3.663.227 1.036-.145.58-.331 1.254-.559 2.041-.041.166.021.249.166.249h7.294c.352 0 .652.124.911.362.248.239.372.55.372.923s-.124.683-.372.922a1.284 1.284 0 0 1-.911.362h-.197c-.165 0-.248.073-.248.228-.352 5.222-1.459 9.149-3.321 11.781-.114.134-.114.269 0 .414 1.004 1.171 2.307 2.269 3.911 3.274.321.207.517.477.6.829a1.3 1.3 0 0 1-.155.995c-.186.321-.466.518-.838.611a1.26 1.26 0 0 1-1.035-.166c-1.717-1.077-3.155-2.259-4.335-3.523-.114-.114-.228-.114-.331 0-1.448 1.306-3.383 2.528-5.784 3.668a1.523 1.523 0 0 1-1.107.083 1.61 1.61 0 0 1-.879-.673 1.606 1.606 0 0 1-.197-.508c0-.145-.082-.207-.248-.166a.845.845 0 0 1-.279.031h-6.229c-.144 0-.227.073-.227.228 0 .394-.145.736-.424 1.026-.28.29-.611.435-1.004.435s-.724-.145-1.004-.435a1.426 1.426 0 0 1-.413-1.026v-10.268c0-.424.155-.797.475-1.108a1.558 1.558 0 0 1 1.118-.466h2.069c.166 0 .248-.083.248-.249v-4.704c0-.145-.082-.228-.248-.228h-3.352v.011Zm7.625 7.749h-4.832c-.165 0-.248.083-.248.249v6.009c0 .166.083.249.248.249h4.832c.166 0 .248-.083.248-.249v-6.009c0-.166-.082-.249-.248-.249Zm4.552-1.595c-.3.539-.755.746-1.365.611-.145-.041-.228.021-.228.166v8.392c0 .052.01.104.041.135.032.041.063.041.094.031 2.214-1.046 3.931-2.165 5.142-3.357.113-.114.134-.228.051-.362-1.189-2-2.079-4.435-2.648-7.326a.086.086 0 0 0-.083-.051c-.041 0-.062.02-.083.051-.207.394-.517.964-.921 1.71Zm2.183-4.424c-.041.093 0 .135.114.135.352-.042.662.051.942.269.269.217.434.497.486.849.414 2.477 1.035 4.611 1.873 6.383.072.114.145.114.227 0 1.159-2.124 1.894-5.191 2.204-9.201 0-.165-.072-.248-.228-.248h-4.666c-.165 0-.279.072-.331.228a46.873 46.873 0 0 1-.61 1.595l-.011-.01ZM231.12 188.498c-.316 0-.58-.112-.794-.326a1.075 1.075 0 0 1-.326-.794c0-.305.112-.58.326-.794.214-.213.488-.325.794-.325h9.568c.143 0 .224-.072.224-.224v-.906c0-.163-.071-.245-.224-.245h-8.489c-.316 0-.57-.112-.784-.325a1.061 1.061 0 0 1-.316-.774c0-.295.102-.55.316-.774.214-.224.468-.325.784-.325h8.489c.143 0 .224-.082.224-.245v-.631c0-.142-.071-.224-.224-.224h-7.003a1.5 1.5 0 0 1-1.099-.468 1.5 1.5 0 0 1-.469-1.099v-2.362a1.5 1.5 0 0 1 .469-1.099 1.5 1.5 0 0 1 1.099-.468h7.003c.143 0 .224-.082.224-.245v-.631c0-.142-.071-.224-.224-.224h-9.293a1.08 1.08 0 0 1-.794-.326 1.073 1.073 0 0 1-.326-.793c0-.306.112-.581.326-.815.224-.224.488-.346.794-.346h9.293c.143 0 .224-.071.224-.224 0-.407.143-.753.438-1.048a1.452 1.452 0 0 1 1.069-.438h.162c.418 0 .774.143 1.069.438.295.295.438.641.438 1.048 0 .143.071.224.224.224h9.293c.316 0 .581.112.794.346.224.234.326.499.326.815 0 .315-.112.58-.326.793a1.075 1.075 0 0 1-.794.326h-9.293c-.143 0-.224.071-.224.224v.631c0 .163.071.245.224.245h7.003c.417 0 .784.152 1.1.468.315.315.468.682.468 1.099v2.362c0 .417-.153.784-.468 1.099a1.504 1.504 0 0 1-1.1.468h-7.003c-.143 0-.224.072-.224.224v.631c0 .163.071.245.224.245h7.339a1.5 1.5 0 0 1 1.099.468 1.5 1.5 0 0 1 .469 1.099v1.782c0 .142.071.224.224.224h.437c.316 0 .581.112.794.325a1.1 1.1 0 0 1 .326.794c0 .306-.112.58-.326.794a1.075 1.075 0 0 1-.794.326h-.437c-.143 0-.224.081-.224.244v3.268c0 .407-.143.743-.418 1.028-.275.285-.61.427-1.018.427h-.274c-.326 0-.611-.122-.835-.356a1.2 1.2 0 0 1-.346-.855c0-.112-.061-.163-.194-.163h-5.822c-.143 0-.224.071-.224.224v.387c0 1.506-.214 2.423-.641 2.779-.428.346-1.568.519-3.421.519-.407 0-1.364-.031-2.88-.081a1.265 1.265 0 0 1-.835-.367 1.233 1.233 0 0 1-.366-.835 1 1 0 0 1 .315-.814.99.99 0 0 1 .815-.315c1.241.05 2.127.081 2.636.081.621 0 .977-.031 1.069-.092.091-.061.132-.274.132-.641v-.6c0-.143-.071-.224-.224-.224h-8.52a.998.998 0 0 1-.753-.316 1.054 1.054 0 0 1-.316-.753c0-.295.102-.55.316-.754.214-.213.458-.315.753-.315h8.52c.143 0 .224-.081.224-.244v-.967c0-.163-.071-.245-.224-.245h-9.568v-.02Zm9.568-8.846c.143 0 .224-.071.224-.224v-1.048c0-.163-.071-.244-.224-.244h-5.446c-.163 0-.244.081-.244.244v1.048c0 .143.081.224.244.224h5.446Zm3.41-1.262v1.049c0 .142.071.223.224.223h5.446c.163 0 .244-.071.244-.223v-1.049c0-.163-.081-.244-.244-.244h-5.446c-.142 0-.224.081-.224.244Zm0 6.728v.906c0 .143.071.224.224.224h5.772c.163 0 .244-.071.244-.224v-.906c0-.162-.081-.244-.244-.244h-5.772c-.142 0-.224.082-.224.244Zm0 3.624v.967c0 .163.071.245.224.245h5.772c.163 0 .244-.082.244-.245v-.967c0-.163-.081-.244-.244-.244h-5.772c-.142 0-.224.081-.224.244ZM263.074 197c-.351 0-.64-.13-.846-.399a.932.932 0 0 1-.186-.887l1.166-4.228c.134-.429.382-.788.754-1.067a2.02 2.02 0 0 1 1.249-.419h.722c.372 0 .661.15.877.449a.894.894 0 0 1 .093.957l-1.92 4.358c-.371.827-1.011 1.236-1.919 1.236h.01ZM291.737 191.234a1.044 1.044 0 0 1-.932.165 1.01 1.01 0 0 1-.702-.639 1.71 1.71 0 0 1-.01-1.143c.126-.391.356-.7.691-.947 2.492-1.709 4.524-3.686 6.105-5.951.073-.114.042-.165-.115-.165h-5.341c-.324 0-.597-.113-.816-.35a1.124 1.124 0 0 1-.336-.824c0-.319.116-.587.336-.803.219-.216.502-.329.816-.329h6.734c.167 0 .282-.072.335-.227.23-.443.387-.782.481-.999.074-.144.032-.226-.146-.226h-5.603c-.303 0-.565-.113-.795-.33a1.032 1.032 0 0 1-.335-.782c0-.299.115-.556.335-.783a1.07 1.07 0 0 1 .795-.329h6.451c.136 0 .23-.083.314-.247l.252-.834c.041-.145-.021-.227-.168-.227-2.681.072-4.765.113-6.273.113-.324 0-.607-.113-.858-.329a1.159 1.159 0 0 1-.409-.803 1.087 1.087 0 0 1 .294-.824c.219-.227.471-.35.774-.35 7.394-.021 13.593-.371 18.609-1.061.335-.041.649.042.942.227.293.185.471.443.555.782.073.32.021.608-.167.876a1.06 1.06 0 0 1-.765.463c-2.618.329-5.655.587-9.1.752-.146 0-.241.082-.282.247-.095.37-.189.7-.283.978-.042.165.021.247.167.247h9.76c.304 0 .565.113.796.33.23.216.335.483.335.782 0 .299-.115.556-.335.783-.22.226-.492.329-.796.329h-10.576c-.168 0-.283.072-.336.227-.094.226-.251.556-.481.998-.074.145-.032.227.136.227h13.058c.325 0 .597.113.817.329.22.217.335.495.335.804 0 .308-.115.586-.335.823-.23.227-.503.35-.817.35h-14.367c-.168 0-.293.062-.367.196-.261.412-.471.71-.617.916-.095.134-.063.196.083.196h12.357c.429 0 .806.154 1.131.474.325.319.482.689.482 1.112v10.039c0 .412-.157.762-.472 1.06-.314.299-.68.443-1.12.443h-.566a.942.942 0 0 1-.68-.278.908.908 0 0 1-.283-.669c0-.114-.052-.165-.167-.165h-11.279c-.094 0-.146.051-.146.165a.881.881 0 0 1-.293.669.986.986 0 0 1-.691.278h-.535a1.5 1.5 0 0 1-1.089-.432 1.414 1.414 0 0 1-.439-1.04v-7.589s-.021-.062-.053-.082a.113.113 0 0 0-.115 0c-1.372 1.369-2.67 2.502-3.874 3.387l-.011-.01Zm7.1-4.891v.834c0 .165.073.247.23.247h11.111c.167 0 .251-.082.251-.247v-.834c0-.165-.084-.247-.251-.247h-11.111c-.146 0-.23.082-.23.247Zm0 3.202v.834c0 .165.073.247.23.247h11.111c.167 0 .251-.082.251-.247v-.834c0-.164-.084-.247-.251-.247h-11.111c-.146 0-.23.083-.23.247Zm0 3.192v.834c0 .165.073.247.23.247h11.111c.167 0 .251-.082.251-.247v-.834c0-.164-.084-.247-.251-.247h-11.111c-.146 0-.23.083-.23.247ZM323.717 195.955a1.298 1.298 0 0 1-.999-.134 1.442 1.442 0 0 1-.653-.835 1.255 1.255 0 0 1 .079-.979c.158-.319.405-.515.752-.587 3.63-.979 5.687-2.658 6.172-5.038.039-.165-.03-.247-.188-.247h-3.255c-.405 0-.761-.155-1.068-.474a1.558 1.558 0 0 1-.455-1.113v-12.961c0-.423.149-.794.455-1.113.307-.319.663-.474 1.068-.474h15.648c.406 0 .762.155 1.068.474.307.319.455.69.455 1.113v12.961c0 .422-.148.793-.455 1.113-.306.319-.662.474-1.068.474h-3.66c-.158 0-.237.082-.237.247v4.008c0 .432.049.69.148.783.099.092.386.144.871.165.227.02.583.031 1.068.031.485 0 .87 0 1.118-.031.484-.021.811-.083.989-.176.178-.103.326-.34.445-.71.119-.371.198-1.01.257-1.917.04-.391.188-.711.465-.958s.603-.361.979-.319c.396.041.712.206.96.515.247.309.356.659.316 1.071a27.645 27.645 0 0 1-.178 1.989 5.218 5.218 0 0 1-.336 1.36c-.159.402-.317.69-.465.876-.149.185-.416.34-.772.463a5.212 5.212 0 0 1-1.068.237c-.346.041-.85.062-1.513.083-.158 0-.406 0-.722.01-.317 0-.574.01-.752.01-.623 0-1.098 0-1.414-.031-1.444-.051-2.345-.206-2.711-.443-.365-.237-.544-.783-.544-1.617v-5.399c0-.165-.079-.247-.237-.247h-2.057c-.139 0-.228.082-.267.247-.534 3.709-3.274 6.233-8.23 7.562l-.009.011Zm3.254-21.194v1.721c0 .165.069.247.217.247h12.502c.159 0 .238-.082.238-.247v-1.721c0-.165-.079-.247-.238-.247h-12.502c-.138 0-.217.082-.217.247Zm0 4.451v1.721c0 .165.069.247.217.247h12.502c.159 0 .238-.082.238-.247v-1.721c0-.165-.079-.247-.238-.247h-12.502c-.138 0-.217.082-.217.247Zm.217 6.429h12.502c.159 0 .238-.082.238-.247v-1.721c0-.164-.079-.247-.238-.247h-12.502c-.138 0-.217.083-.217.247v1.721c0 .165.069.247.217.247ZM355.62 195.946c-.805 0-1.213-.409-1.213-1.217v-13.64a20.945 20.945 0 0 1-1.131 1.524c-.418.48-.795.715-1.111.705-.326 0-.622-.286-.897-.838-.204-.389-.285-.726-.265-1.023.031-.296.184-.593.479-.91 2.069-2.372 3.812-5.245 5.198-8.609.296-.777.826-1.053 1.6-.828.846.256 1.101.787.775 1.575a48.4 48.4 0 0 1-2.232 4.611v17.443c0 .808-.408 1.217-1.213 1.217l.01-.01Zm8.225-.972c-.387-1.053.143-1.554 1.601-1.523.112 0 .254 0 .438-.031h.163c.326 0 .499-.143.499-.44v-14.846h-3.689a30.258 30.258 0 0 1-1.845 3.426c-.275.409-.551.623-.826.664-.275.041-.601-.102-.978-.409-.377-.317-.591-.603-.632-.869-.051-.266.081-.593.367-.981 1.396-2.005 2.528-4.642 3.414-7.894.235-.869.765-1.206 1.57-1.022.846.204 1.152.705.938 1.523a36.251 36.251 0 0 1-1.05 3.2h10.539c.591 0 1.029.184 1.325.553.295.368.387.869.275 1.492a59.747 59.747 0 0 1-.663 3.477c-.071.327-.214.542-.418.634-.183.071-.458.071-.825 0-.754-.144-1.06-.532-.938-1.156.163-.992.285-1.871.357-2.617h-4.434v14.856c0 .685-.081 1.217-.244 1.605-.164.389-.449.685-.857.91-.509.256-1.253.42-2.232.471-.988.041-1.61-.297-1.875-.992l.02-.031Zm-3.19-3.006c-.275.051-.591-.041-.968-.276-.408-.255-.632-.521-.683-.787-.051-.266.041-.593.306-.982 1.009-1.605 1.845-3.619 2.507-6.042.224-.88.724-1.238 1.519-1.074.846.164 1.151.675.937 1.523a32.889 32.889 0 0 1-1.294 3.865 22.968 22.968 0 0 1-1.539 3.149c-.234.369-.499.583-.775.634l-.01-.01Zm13.24-.112c-.255-.113-.418-.409-.499-.88a28.25 28.25 0 0 0-.908-3.149 35.713 35.713 0 0 0-1.376-3.619c-.346-.757-.112-1.268.714-1.544.683-.225 1.172 0 1.488.634 1.152 2.413 2.008 4.795 2.558 7.147.072.347.041.634-.112.859-.132.184-.387.337-.774.47-.48.164-.846.194-1.101.082h.01ZM384.376 195.433a1.36 1.36 0 0 1-.993.412c-.381 0-.701-.134-.972-.412a1.38 1.38 0 0 1-.411-1v-18.094c0-.423.15-.794.461-1.113.311-.32.672-.475 1.083-.475h1.132c.141 0 .241-.072.301-.226.361-.97.622-1.712.782-2.227.13-.392.361-.701.692-.949.331-.237.691-.33 1.072-.278.361.051.642.247.852.567.211.33.261.66.151 1.02-.05.186-.271.815-.652 1.897-.04.135.02.196.161.196h2.115c.411 0 .772.155 1.072.475.301.319.451.69.451 1.113v3.454s.02.062.051.072c.04 0 .07 0 .11-.041 1.443-2.206 2.576-4.743 3.408-7.599a1.62 1.62 0 0 1 .662-.927 1.6 1.6 0 0 1 1.092-.289c.361.041.642.216.852.526.211.319.261.649.151 1a49.74 49.74 0 0 1-.461 1.443c-.04.144 0 .227.13.227h6.816c.411 0 .772.165 1.083.485.311.329.451.701.431 1.123-.09 4.825-.2 8.557-.321 11.207-.13 2.65-.33 4.65-.611 6.011-.281 1.361-.582 2.196-.892 2.505-.321.309-.792.464-1.424.464-1.122 0-2.606-.052-4.471-.144a1.332 1.332 0 0 1-.922-.433 1.487 1.487 0 0 1-.411-.959c-.02-.351.09-.65.321-.887s.521-.35.862-.33c1.173.072 2.286.114 3.328.114.311 0 .551-.32.732-.949.18-.629.351-2.155.511-4.577.161-2.423.311-6.021.431-10.785 0-.164-.07-.247-.22-.247h-6.276c-.13 0-.22.062-.3.196-.902 2-1.915 3.773-3.028 5.32-.381.505-.862.598-1.463.309-.04-.041-.08-.041-.141-.01-.05.031-.08.072-.08.124v9.464c0 .423-.15.794-.451 1.113-.301.32-.651.475-1.072.475h-5.143c-.14 0-.22.082-.22.247v.413c0 .391-.141.721-.421 1l.06-.021Zm.421-17.929v5.238c0 .164.07.247.22.247h3.739c.161 0 .241-.083.241-.247v-5.238c0-.165-.08-.247-.241-.247h-3.739c-.14 0-.22.082-.22.247Zm0 8.155v5.434c0 .164.07.247.22.247h3.739c.161 0 .241-.083.241-.247v-5.434c0-.165-.08-.247-.241-.247h-3.739c-.14 0-.22.082-.22.247Zm15.658 1.578c-.131.36-.371.618-.712.763a1.24 1.24 0 0 1-1.012.01c-.331-.134-.572-.382-.722-.732-.792-1.815-1.604-3.464-2.436-4.928a1.285 1.285 0 0 1-.12-1.021c.1-.371.31-.629.631-.794a1.353 1.353 0 0 1 1.053-.124c.361.104.631.32.812.65a48.525 48.525 0 0 1 2.486 5.093c.14.351.15.711.01 1.072l.01.011ZM414.478 195.582a1.402 1.402 0 0 1-1.028.418c-.411 0-.751-.132-1.028-.418a1.375 1.375 0 0 1-.422-1.018v-20.985c0-.418.154-.784.463-1.1a1.468 1.468 0 0 1 1.1-.469h7.969c.422 0 .792.153 1.111.469.318.316.473.682.473 1.1v7.182c0 .417-.155.784-.473 1.1a1.524 1.524 0 0 1-1.111.468h-6.385c-.165 0-.247.082-.247.245v11.99c0 .407-.134.743-.412 1.018h-.01Zm.411-20.984v1.517c0 .163.083.245.247.245H420c.165 0 .247-.082.247-.245v-1.517c0-.163-.082-.245-.247-.245h-4.864c-.164 0-.247.082-.247.245Zm0 3.901v1.538c0 .143.083.224.247.224H420c.165 0 .247-.071.247-.224v-1.538c0-.142-.082-.224-.247-.224h-4.864c-.164 0-.247.071-.247.224Zm15.075 12.703c0 .428-.154.784-.473 1.1a1.525 1.525 0 0 1-1.111.469h-7.331c-.134 0-.196.061-.196.193 0 .326-.113.612-.349.836a1.188 1.188 0 0 1-.843.346h-.227c-.39 0-.719-.143-.997-.418a1.33 1.33 0 0 1-.411-.988v-7.018c0-.418.154-.785.473-1.101a1.526 1.526 0 0 1 1.11-.468h8.771c.422 0 .792.153 1.111.468.319.316.473.683.473 1.101V191.202Zm-2.859-.937v-3.576c0-.163-.072-.244-.226-.244H421.1c-.164 0-.247.081-.247.244v3.576c0 .142.083.224.247.224h5.779c.144 0 .226-.071.226-.224ZM434.437 172c.422 0 .792.153 1.1.469.309.315.463.682.463 1.1v18.295c0 1.813-.206 2.934-.627 3.372-.422.438-1.522.642-3.322.642-.442 0-1.234-.031-2.354-.082a1.372 1.372 0 0 1-.905-.387 1.302 1.302 0 0 1-.401-.906 1.11 1.11 0 0 1 .308-.856c.226-.234.504-.346.833-.326.998.051 1.676.081 2.026.081.74 0 1.182-.071 1.337-.203.144-.133.226-.55.226-1.253v-9.382c0-.163-.082-.245-.247-.245h-6.663c-.422 0-.792-.153-1.111-.468a1.498 1.498 0 0 1-.473-1.101v-7.171c0-.418.154-.784.473-1.1a1.525 1.525 0 0 1 1.111-.469h8.247l-.021-.01Zm-1.337 4.095v-1.518c0-.163-.082-.244-.247-.244h-5.141c-.164 0-.247.081-.247.244v1.518c0 .163.083.245.247.245h5.141c.165 0 .247-.082.247-.245Zm0 3.932v-1.538c0-.143-.082-.224-.247-.224h-5.141c-.164 0-.247.071-.247.224v1.538c0 .143.083.224.247.224h5.141c.165 0 .247-.071.247-.224ZM443.151 185.267c-.313 0-.576-.114-.808-.351a1.133 1.133 0 0 1-.343-.827c0-.32.111-.599.343-.837.222-.238.495-.362.808-.362h9.809c.313 0 .586.124.818.362.232.238.353.517.353.837 0 .32-.121.589-.353.827a1.143 1.143 0 0 1-.818.351h-2.563c-.141 0-.222.083-.222.248v1.808c0 .165.071.248.222.248h2.18c.313 0 .575.114.807.331.232.227.343.496.343.806 0 .31-.111.589-.343.806-.222.227-.494.33-.807.33h-2.18c-.141 0-.222.083-.222.248v2.459c0 .166.071.269.222.31.858.186 1.968.331 3.351.445.04 0 .06-.011.08-.042.021-.031 0-.062-.03-.093a.628.628 0 0 1-.131-.165 1.057 1.057 0 0 1-.111-.878c.091-.321.282-.558.575-.682a18.486 18.486 0 0 0 3.512-2.284c.041-.041.041-.072.031-.093-.021-.031-.041-.041-.081-.041h-1.04c-.413 0-.777-.155-1.09-.475a1.545 1.545 0 0 1-.464-1.116v-9.868c0-.423.151-.795.464-1.105.313-.31.677-.465 1.09-.465h1.716c.141 0 .232-.073.273-.228.131-.465.222-.868.302-1.198.041-.135-.03-.197-.191-.197h-3.24c-.313 0-.585-.113-.818-.351a1.123 1.123 0 0 1-.353-.826c0-.321.121-.6.353-.837.233-.238.505-.362.818-.362h10.355c.313 0 .585.124.817.362.232.237.354.516.354.837 0 .32-.122.589-.354.826a1.14 1.14 0 0 1-.817.351h-3.815c-.141 0-.232.073-.273.228-.04.144-.08.351-.151.609-.071.259-.101.434-.121.527-.041.166.02.248.161.248h2.998c.414 0 .777.155 1.08.465.302.31.454.672.454 1.106v9.878c0 .423-.152.795-.454 1.116-.303.32-.656.475-1.08.475h-1.908s-.05.01-.05.041 0 .052.03.073a30.292 30.292 0 0 1 3.543 2.118c.292.186.464.454.514.806.051.351-.02.682-.222.981-.141.186-.262.31-.353.362-.071.041-.061.072.03.114a1.186 1.186 0 0 1 .848 1.198c-.02.352-.141.641-.383.878a1.205 1.205 0 0 1-.868.352h-6.702c-3.835 0-6.792-.228-8.871-.682-2.079-.455-3.654-1.24-4.723-2.356-.091-.114-.162-.093-.222.052a36.17 36.17 0 0 1-.596 2.149 1.318 1.318 0 0 1-.696.764 1.242 1.242 0 0 1-1.05.011 1.28 1.28 0 0 1-.747-.744 1.5 1.5 0 0 1-.04-1.106c.656-2.004 1.11-4.143 1.362-6.416.041-.372.192-.672.475-.909a1.29 1.29 0 0 1 .938-.321 1.2 1.2 0 0 1 .899.465c.232.289.333.62.302.992-.07.889-.141 1.56-.222 2.005-.04.165 0 .31.081.423.293.414.686.817 1.201 1.23.131.093.192.051.192-.114v-5.889c0-.166-.081-.248-.242-.248h-3.926l-.01.01Zm1.281-13.257h7.388c.414 0 .777.155 1.09.476.313.32.464.692.464 1.116v6.581c0 .424-.151.796-.464 1.116-.313.321-.676.476-1.09.476h-7.388c-.414 0-.777-.155-1.09-.476a1.542 1.542 0 0 1-.464-1.116v-6.581c0-.424.151-.796.464-1.116.313-.321.676-.476 1.09-.476Zm6.268 3.741v-1.199c0-.165-.071-.248-.222-.248h-4.582c-.162 0-.243.083-.243.248v1.199c0 .165.081.248.243.248h4.582c.141 0 .222-.083.222-.248Zm0 3.709v-1.229c0-.145-.071-.228-.222-.228h-4.582c-.162 0-.243.073-.243.228v1.229c0 .145.081.227.243.227h4.582c.141 0 .222-.072.222-.227Zm7.872 12.192a17.009 17.009 0 0 1-2.725 1.674.097.097 0 0 0-.03.073c0 .031.02.041.05.041 1.231.041 2.23.052 2.998.052h5.944s.05-.011.05-.042c0-.031 0-.051-.03-.072h-.03c-1.04-.723-2.029-1.343-2.967-1.839a1.456 1.456 0 0 1-.717-.909 1.386 1.386 0 0 1 .152-1.158l.161-.248s.04-.082.01-.124c-.03-.041-.071-.072-.121-.072h-2.594s-.06.021-.081.072a.136.136 0 0 0 0 .124l.142.166c.272.33.393.733.353 1.188-.04.455-.232.816-.575 1.074h.01Zm-.898-13.194v1.002c0 .145.07.227.222.227h5.177c.162 0 .242-.072.242-.227v-1.002c0-.145-.08-.227-.242-.227h-5.177c-.142 0-.222.072-.222.227Zm0 3.492v1.064c0 .166.07.248.222.248h5.177c.162 0 .242-.082.242-.248v-1.064c0-.165-.08-.248-.242-.248h-5.177c-.142 0-.222.083-.222.248Zm0 4.691c0 .166.07.248.222.248h5.177c.162 0 .242-.082.242-.248v-1.116c0-.165-.08-.248-.242-.248h-5.177c-.142 0-.222.083-.222.248v1.116ZM473.806 195.189a2.007 2.007 0 0 1-.707-1.051 2.092 2.092 0 0 1 0-1.272c.586-2.032.869-5.667.869-10.893v-1.672c0-.11-.05-.211-.162-.301-.323-.2-.536-.49-.616-.861a1.37 1.37 0 0 1 .182-1.051c1.051-1.782 1.89-3.745 2.507-5.897.111-.381.323-.681.657-.901a1.554 1.554 0 0 1 1.092-.281h.03c.364.04.647.2.86.501.212.3.263.621.172.961-.041.13.02.19.161.19h2.952c.314 0 .587.12.819.351.233.23.354.5.354.811 0 .851-.131 1.582-.414 2.212-.182.401-.314.701-.405.922-.02.05-.01.11.01.16.031.05.071.08.122.08h.9c.414 0 .778.15 1.091.45.314.301.466.651.466 1.072v13.276c0 1.262-.051 2.153-.162 2.663-.111.511-.304.851-.587 1.012-.283.16-.778.24-1.486.24-.455 0-1.203-.03-2.234-.08a1.264 1.264 0 0 1-.87-.381 1.285 1.285 0 0 1-.384-.861c-.02-.31.091-.57.324-.801.232-.23.505-.33.819-.31.202.02.444.04.728.05.283.02.454.03.535.03.405 0 .637-.06.708-.19.071-.13.111-.541.111-1.242v-2.002c0-.16-.081-.241-.242-.241h-5.379c-.182 0-.273.071-.273.221-.182 1.752-.465 3.274-.849 4.565a1.045 1.045 0 0 1-.698.721c-.354.12-.687.06-1.001-.18v-.02Zm2.811-10.353c0 .631-.02 1.472-.051 2.513 0 .161.071.241.223.241h1.173c.161 0 .242-.08.242-.241v-2.513c0-.14-.081-.22-.242-.22h-1.092c-.162 0-.243.07-.243.22h-.01Zm.03-5.056v2.353c0 .16.071.24.223.24h1.092c.161 0 .242-.08.242-.24v-2.353c0-.16-.081-.24-.242-.24h-1.092c-.142 0-.223.08-.223.24Zm.384-2.813c-.07.14-.03.22.132.22h1.749c.162 0 .273-.06.323-.19.344-.721.627-1.342.85-1.863.07-.12.03-.19-.142-.19h-1.83a.308.308 0 0 0-.303.19 81.617 81.617 0 0 1-.789 1.843l.01-.01Zm3.549 2.813v2.353c0 .16.081.24.243.24h1.173c.161 0 .242-.08.242-.24v-2.353c0-.16-.081-.24-.242-.24h-1.173c-.162 0-.243.08-.243.24Zm0 5.056v2.513c0 .161.081.241.243.241h1.173c.161 0 .242-.08.242-.241v-2.513c0-.14-.081-.22-.242-.22h-1.173c-.162 0-.243.07-.243.22Zm5.075 3.054c-.323-.12-.545-.36-.667-.701a1.161 1.161 0 0 1 .071-.971 24.424 24.424 0 0 0 1.749-4.405c.02-.041.01-.061-.01-.081-.03-.02-.051-.02-.071 0a.926.926 0 0 1-.728.091.958.958 0 0 1-.586-.421l-.223-.32a1.103 1.103 0 0 1-.141-.922c.091-.33.283-.58.576-.78 1.709-1.122 2.78-2.564 3.225-4.356.041-.14-.02-.22-.161-.22h-2.215c-.343 0-.637-.12-.889-.351a1.15 1.15 0 0 1-.374-.861c0-.34.121-.63.374-.861.242-.23.546-.35.889-.35h9.635c.415 0 .779.15 1.082.46.304.311.445.671.425 1.082-.091 2.112-.233 3.624-.425 4.555-.192.932-.465 1.542-.819 1.843-.354.3-.93.45-1.729.45-.546 0-1.334-.03-2.375-.08-.344-.02-.637-.14-.86-.38a1.348 1.348 0 0 1-.394-.861.941.941 0 0 1 .303-.781.983.983 0 0 1 .789-.301c.364.02.798.03 1.314.03s.829-.17.971-.51c.141-.341.242-1.282.313-2.814 0-.16-.071-.24-.222-.24h-2.599c-.141 0-.232.07-.273.22-.475 2.663-1.85 4.746-4.125 6.248-.04.04-.05.07-.04.11 0 .04.03.06.071.08l.768.16c.344.07.597.251.768.541.172.29.203.591.112.921-.041.11 0 .16.131.16h1.365c.162 0 .243-.07.243-.22v-.19c0-.401.131-.731.414-1.001a1.394 1.394 0 0 1 1.011-.411c.405 0 .738.14 1.021.411.283.27.425.6.425 1.001v.19c0 .14.081.22.243.22h2.315c.323 0 .606.12.829.351.232.23.344.51.344.841 0 .33-.112.601-.344.841-.223.23-.506.35-.829.35h-2.315c-.162 0-.243.08-.243.241v2.653c0 .14.081.22.243.22h2.76c.343 0 .637.12.869.351.233.23.354.52.354.861 0 .34-.121.63-.354.861-.232.23-.526.35-.869.35h-2.76c-.162 0-.243.08-.243.24v3.134c0 .401-.142.731-.425 1.011a1.402 1.402 0 0 1-1.021.421c-.394 0-.738-.14-1.011-.421a1.405 1.405 0 0 1-.414-1.011v-3.134c0-.16-.081-.24-.243-.24h-4.125c-.344 0-.637-.12-.869-.35a1.172 1.172 0 0 1-.354-.861c0-.341.121-.631.354-.861a1.19 1.19 0 0 1 .869-.351h4.125c.162 0 .243-.07.243-.22v-2.653c0-.161-.081-.241-.243-.241h-2.184a.308.308 0 0 0-.303.19c-.051.141-.273.611-.657 1.402a1.296 1.296 0 0 1-.789.701c-.364.13-.718.12-1.061-.03l-.011-.03ZM504.276 177.399a1.24 1.24 0 0 1-.916-.366c-.237-.24-.36-.553-.36-.929 0-.375.123-.689.36-.929a1.24 1.24 0 0 1 .916-.365h9.444c.165 0 .247-.083.247-.251v-2.004c0-.417.154-.772.463-1.085.309-.313.658-.47 1.07-.47.412 0 .761.157 1.07.47.309.313.463.668.463 1.085v2.004c0 .168.082.251.247.251h9.444c.371 0 .679.125.916.365s.36.554.36.929c0 .376-.123.689-.36.929a1.24 1.24 0 0 1-.916.366h-12.778c-.164 0-.246.083-.246.25 0 1.316-.042 2.432-.114 3.351 0 .146.072.23.227.23h10.195c.422 0 .792.156 1.101.469.309.314.463.679.463 1.117v.397c0 2.307-.051 4.207-.165 5.689-.113 1.482-.277 2.714-.483 3.695-.206.981-.535 1.702-.978 2.182-.432.48-.915.803-1.43.97-.514.167-1.203.251-2.057.251-1.091 0-2.552-.052-4.393-.167a1.502 1.502 0 0 1-.957-.47 1.513 1.513 0 0 1-.432-1.002 1.13 1.13 0 0 1 .36-.929c.257-.24.566-.355.916-.334 1.615.115 2.921.167 3.94.167.669 0 1.173-.209 1.533-.616.35-.417.638-1.294.844-2.651.205-1.357.318-3.33.318-5.95 0-.146-.082-.23-.246-.23h-8.807c-.144 0-.237.084-.278.251-.411 2.516-1.131 4.666-2.181 6.451-1.049 1.785-2.541 3.476-4.485 5.073-.33.261-.71.376-1.142.334a1.657 1.657 0 0 1-1.081-.532 1.279 1.279 0 0 1-.349-1.044c.041-.397.226-.721.545-.992 2.335-1.837 3.93-3.862 4.773-6.075.844-2.213 1.286-5.438 1.307-9.676 0-.147-.082-.23-.247-.23h-6.111l-.01.021ZM540.677 194.824c-.885.787-1.937 1.176-3.177 1.176s-2.302-.389-3.177-1.176c-.886-.787-1.323-1.722-1.323-2.824 0-1.102.437-2.037 1.323-2.824.885-.787 1.937-1.176 3.177-1.176s2.302.389 3.177 1.176c.886.787 1.323 1.722 1.323 2.824 0 1.102-.437 2.046-1.323 2.824Zm-1.594-4.241c-.437-.389-.968-.583-1.593-.583s-1.146.194-1.594.583c-.438.389-.656.861-.656 1.417s.218 1.019.656 1.417c.437.389.969.583 1.594.583a2.33 2.33 0 0 0 1.593-.583c.438-.389.657-.861.657-1.417s-.219-1.019-.657-1.417Z"/></g><g filter="url(#e)" clip-path="url(#d)"><path fill-rule="evenodd" clip-rule="evenodd" d="M28.826 117.475c.55.556 1.203.834 1.947.834h9.554c.744 0 1.386-.278 1.927-.834.54-.557.805-1.216.805-1.968v-.546c0-.752-.265-1.411-.805-1.968-.54-.556-1.183-.834-1.927-.834h-9.554c-.744 0-1.397.278-1.947.834-.55.557-.826 1.216-.826 1.968v.546c0 .752.275 1.411.826 1.968Zm13.152-11.58c-.55-.556-1.203-.835-1.947-.835H31.59c-.744 0-1.397.279-1.947.835-.551.556-.826 1.174-.826 1.968 0 .793.265 1.452.805 1.998s1.203.814 1.978.814h8.422c.785 0 1.438-.268 1.978-.814.54-.546.805-1.246.805-1.998s-.275-1.412-.826-1.968ZM73.8 143.839a2.448 2.448 0 0 0-1.438-1.433l-.03.021c-.714-.268-1.316-.525-1.805-.793-.286-.134-.337-.299-.143-.495.581-.587 1-1.03 1.264-1.329.49-.566.673-1.205.54-1.926a2.24 2.24 0 0 0-1.172-1.628l-.438-.247c-.03-.031-.051-.072-.051-.144 0-.073.04-.104.102-.104h.785c.653 0 1.203-.226 1.662-.69a2.29 2.29 0 0 0 .683-1.679 2.29 2.29 0 0 0-.683-1.679 2.242 2.242 0 0 0-1.662-.691h-2.875c-.255 0-.388-.144-.388-.443v-.298c0-.299.133-.443.388-.443h2.385c.49 0 .908-.165 1.244-.515.337-.351.51-.763.51-1.257 0-.495-.163-.917-.51-1.257a1.708 1.708 0 0 0-1.244-.515H68.54c-.255 0-.388-.145-.388-.443v-.299c0-.299.133-.443.388-.443h2.977c.55 0 1.01-.196 1.386-.567.378-.371.561-.845.561-1.401s-.183-1.02-.56-1.401c-.368-.381-.837-.567-1.387-.567h-2.977c-.255 0-.388-.123-.388-.391v-.247c0-.258.133-.392.388-.392h1.315c.744 0 1.397-.278 1.947-.834.55-.557.826-1.216.826-1.968v-2.813c0-.752-.275-1.411-.826-1.967-.55-.557-1.203-.835-1.947-.835h-8.045c-.744 0-1.396.278-1.947.835-.55.556-.826 1.215-.826 1.967v4.235c0 .36.143.68.418.958.276.288.592.422.948.422.133 0 .194.062.194.196v.443c0 .257-.143.391-.438.391h-3.66c-.296 0-.439-.123-.439-.391v-.443c0-.134.082-.196.245-.196.418 0 .775-.144 1.07-.443.296-.288.439-.649.439-1.082v-4.09c0-.752-.276-1.411-.826-1.967-.55-.557-1.203-.835-1.948-.835h-7.85c-.745 0-1.397.278-1.948.835-.55.556-.826 1.215-.826 1.967v2.813c0 .752.276 1.411.826 1.968.55.556 1.203.834 1.948.834h1.121c.255 0 .388.134.388.392v.247c0 .257-.133.391-.388.391h-2.783c-.52 0-.98.186-1.367.567-.387.371-.58.845-.58 1.401s.193 1.02.58 1.401c.388.381.847.567 1.367.567h2.783c.255 0 .388.144.388.443v.299c0 .298-.133.443-.388.443h-2.192c-.49 0-.907.164-1.244.515-.336.35-.51.762-.51 1.257 0 .494.164.917.51 1.257.347.339.755.515 1.244.515h2.192c.255 0 .388.144.388.443v.298c0 .299-.133.443-.388.443h-3.314c-.652 0-1.213.227-1.682.691a2.269 2.269 0 0 0-.703 1.679c0 .659.234 1.216.703 1.679.47.464 1.03.69 1.682.69h2.978c.071 0 .102.021.102.073 0 .051-.02.092-.051.123-1.203.526-2.651 1.01-4.344 1.473a3.596 3.596 0 0 0-.336.145c-.225.062-.337-.021-.337-.248v-.834c0-.752-.275-1.401-.826-1.947-.55-.546-1.203-.814-1.947-.814h-8.636c-.744 0-1.397.268-1.947.814-.55.546-.826 1.195-.826 1.947v9.705c0 .752.275 1.411.826 1.968.55.556 1.203.834 1.947.834h1.754c.387 0 .724-.144.999-.422.275-.279.418-.619.418-1.01 0-.165.061-.247.194-.247h5.271c.744 0 1.397-.268 1.947-.814.551-.546.826-1.195.826-1.947v-2.02c0-.257.133-.329.388-.195a2.648 2.648 0 0 0 1.947.051c1.59-.618 2.865-1.195 3.803-1.72a.224.224 0 0 1 .224.02.249.249 0 0 1 .123.227v1.525c0 .226-.143.381-.439.443l-2.487.298a2.57 2.57 0 0 0-1.825.99c-.48.587-.673 1.267-.612 2.019.061.752.377 1.37.948 1.844s1.234.68 1.978.618c3.742-.433 7.79-1.123 12.143-2.071.745-.165 1.356-.587 1.805-1.236.449-.649.642-1.37.581-2.164v-.144c0-.257.082-.309.245-.144 2.304 2.297 4.924 4.059 7.85 5.275.745.319 1.479.329 2.193.02.713-.309 1.254-.844 1.61-1.596l.296-.742c.286-.66.296-1.329.02-2.019ZM30.029 124.47c.52.536 1.162.793 1.907.793h8.146c.714 0 1.336-.267 1.876-.793.54-.525.806-1.164.806-1.926 0-.763-.266-1.402-.806-1.927-.53-.525-1.162-.793-1.876-.793h-8.146a2.58 2.58 0 0 0-1.907.793c-.52.536-.775 1.164-.775 1.927 0 .762.255 1.401.775 1.926Zm0 6.923c.52.546 1.162.814 1.907.814h8.146c.714 0 1.336-.268 1.876-.814.54-.535.806-1.174.806-1.895 0-.722-.266-1.35-.806-1.896-.53-.546-1.162-.814-1.876-.814h-8.146c-.755 0-1.387.268-1.907.814-.52.546-.775 1.174-.775 1.896 0 .721.255 1.349.775 1.895Zm7.759 8.005v2.267c0 .298-.132.443-.387.443h-2.244c-.254 0-.387-.145-.387-.443v-2.267c0-.299.122-.443.387-.443h2.244c.255 0 .387.144.387.443Zm6.81-29.434a2.48 2.48 0 0 0 1.826.763h24.755c.714 0 1.316-.258 1.825-.763.5-.504.755-1.123.755-1.844a2.64 2.64 0 0 0-.755-1.875 2.425 2.425 0 0 0-1.825-.783h-8.238c-.224 0-.336-.103-.336-.299 0-.587-.214-1.102-.632-1.524a2.06 2.06 0 0 0-1.51-.639h-3.66a2.06 2.06 0 0 0-1.509.639 2.104 2.104 0 0 0-.632 1.524c0 .196-.112.299-.336.299h-7.902c-.714 0-1.326.258-1.825.783a2.64 2.64 0 0 0-.755 1.875c0 .721.255 1.34.755 1.844Zm8.066 5.399v1.133c0 .299-.133.443-.388.443h-1.56c-.255 0-.387-.144-.387-.443v-1.133c0-.299.122-.443.387-.443h1.56c.255 0 .388.144.388.443Zm7.953 10.199v.299c0 .299-.143.443-.439.443h-3.66c-.296 0-.439-.144-.439-.443v-.299c0-.299.143-.443.439-.443h3.66c.296 0 .439.144.439.443Zm0 4.729v.299c0 .298-.143.443-.439.443h-3.66c-.296 0-.439-.145-.439-.443v-.299c0-.299.143-.443.439-.443h3.66c.296 0 .439.144.439.443Zm-.735 10.447c.133.195.062.329-.193.391v.01l-.183.035c-.314.06-.732.139-1.255.233-.522.094-.94.173-1.253.233h-.001l-.184.035c-.254.062-.387-.031-.387-.299v-5.367c0-.165.082-.248.245-.248.163 0 .275.104.336.299.683 1.546 1.642 3.101 2.875 4.678Zm7.27-4.977c.255 0 .306.114.143.34h-.01c-.327.392-.847.989-1.56 1.772-.194.196-.388.217-.581.052a9.763 9.763 0 0 1-1.51-1.824c-.06-.061-.07-.133-.02-.216a.245.245 0 0 1 .224-.124h3.314Zm-2.783-19.265v-1.133c0-.299.142-.443.438-.443h1.56c.255 0 .387.144.387.443v1.133c0 .299-.132.443-.387.443h-1.56c-.296 0-.438-.144-.438-.443Zm19.445-5.846c.543.547 1.186.82 1.92.82l-.02.01h14.902c.251 0 .382.131.382.384v.193c0 .253-.131.384-.382.384H88.889c-.734 0-1.377.273-1.92.82-.542.546-.814 1.194-.814 1.933v8.328c0 .738.272 1.376.814 1.912.543.537 1.186.8 1.92.8h11.727c.251 0 .382.141.382.435v.384c0 .294-.131.435-.382.435-6.34.071-11.034.102-14.079.102-.713 0-1.296.263-1.758.779-.463.516-.663 1.133-.603 1.841.06.739.352 1.367.884 1.862a2.613 2.613 0 0 0 1.85.749c8.099-.03 16.56-.273 25.373-.728.292 0 .432.131.432.384v.921c0 .253-.14.385-.432.385h-26.44a2.49 2.49 0 0 0-1.878.799 2.668 2.668 0 0 0-.764 1.912c0 .739.251 1.377.764 1.913a2.506 2.506 0 0 0 1.879.799h4.18c.1 0 .171.041.222.122.05.071.04.152-.02.212l-.433.678a2.28 2.28 0 0 0-.291 1.933c.19.678.623 1.194 1.296 1.548a394.89 394.89 0 0 1 5.336 2.854 2.82 2.82 0 0 0 2.11.314 2.79 2.79 0 0 0 1.73-1.235l.572-.971c.412-.648.522-1.326.331-2.034a2.485 2.485 0 0 0-1.246-1.599l-.85-.463-.179-.097c-1.147-.624-1.843-1.003-2.096-1.13 0-.061.04-.111.1-.142h15.667c.292 0 .432.132.432.385v.678c0 .961-.08 1.528-.241 1.69-.161.162-.713.243-1.678.243-1.025 0-2.643-.041-4.854-.142-.733-.03-1.356.212-1.849.749a2.483 2.483 0 0 0-.693 1.862l.05.384c.03.769.342 1.437.914 1.984.573.546 1.247.839 2.02.87 1.699.071 3.638.101 5.819.101 1.467 0 2.603-.02 3.386-.051.784-.03 1.538-.141 2.261-.334.724-.202 1.226-.414 1.518-.657.291-.243.553-.688.774-1.336a7.107 7.107 0 0 0 .382-1.983c.03-.678.05-1.66.05-2.955v-1.113c0-.253.141-.385.432-.385h3.025c.733 0 1.366-.263 1.899-.799a2.617 2.617 0 0 0 .794-1.913c0-.738-.261-1.376-.794-1.912-.533-.537-1.166-.8-1.899-.8h-3.266c-.292 0-.432-.121-.432-.384v-1.356c0-.294.13-.435.382-.435h.1c.191 0 .332.06.432.192.261.425.623.688 1.106.799.482.122.924.041 1.346-.212l1.97-1.214a2.692 2.692 0 0 0 1.246-1.67c.201-.719.08-1.407-.332-2.054a64.793 64.793 0 0 0-1.487-2.247c-.673-.981-1.065-1.558-1.156-1.72-.13-.162-.191-.405-.191-.729v-7.549c0-.738-.271-1.386-.814-1.932-.542-.547-1.185-.82-1.919-.82h-11.727c-.252 0-.382-.121-.382-.384v-.193c0-.253.12-.384.382-.384h14.903c.733 0 1.376-.273 1.919-.82.543-.546.814-1.194.814-1.933v-.101c0-.739-.271-1.376-.814-1.912-.543-.537-1.186-.8-1.919-.8h-14.944c-.221 0-.331-.131-.331-.384 0-.678-.251-1.265-.744-1.771-.502-.496-1.085-.749-1.758-.749h-2.885c-.673 0-1.266.253-1.758.749-.493.506-.744 1.093-.744 1.771 0 .253-.11.384-.331.384H85.733c-.733 0-1.376.263-1.919.8-.543.536-.814 1.173-.814 1.912v.101c0 .739.271 1.387.814 1.933Zm17.204 6.284v.486c0 .293-.13.435-.382.435h-6.974c-.251 0-.382-.142-.382-.435v-.486c0-.253.13-.384.382-.384h6.974c.252 0 .382.131.382.384Zm0 4.26v.577c0 .253-.13.385-.382.385h-6.974c-.251 0-.382-.122-.382-.385v-.577c0-.293.13-.435.382-.435h6.974c.252 0 .382.142.382.435Zm7.879-3.774v-.486c0-.253.12-.384.382-.384h6.974c.251 0 .382.131.382.384v.486c0 .293-.131.435-.382.435h-6.974c-.252 0-.382-.142-.382-.435Zm0 4.351v-.577c0-.293.12-.435.382-.435h6.974c.251 0 .382.142.382.435v.577c0 .253-.131.385-.382.385h-6.974c-.252 0-.382-.122-.382-.385Zm0 5.191v-.283c0-.294.12-.435.382-.435h7.928c.252 0 .463.111.623.334 0 .03.021.081.051.141.04.071.07.102.1.102.06.07.06.151.02.242-.04.091-.11.142-.211.142a853.05 853.05 0 0 1-8.511.142c-.252 0-.382-.122-.382-.385Zm28.95 18.463-.583-1.102c-.328-.571-.348-1.162-.072-1.773.277-.601.737-.992 1.393-1.152 3.952-.892 7.557-1.883 10.824-2.965 0-.03-.031-.081-.103-.141h-8.325a2.73 2.73 0 0 1-1.956-.791c-.553-.531-.829-1.162-.829-1.894v-.14c0-.731.276-1.372.829-1.913.553-.541 1.208-.812 1.956-.812h14.101c.256 0 .389-.13.389-.38v-.672c0-.25-.133-.38-.389-.38h-12.34c-.686 0-1.27-.251-1.761-.742a2.401 2.401 0 0 1-.737-1.753c0-.671.245-1.242.737-1.723a2.423 2.423 0 0 1 1.761-.721h12.34c.256 0 .389-.141.389-.431v-.621c0-.291-.133-.431-.389-.431h-13.814c-.717 0-1.332-.24-1.833-.721-.512-.481-.758-1.072-.758-1.774 0-.701.256-1.302.758-1.793a2.53 2.53 0 0 1 1.833-.741h5.386c.256 0 .359-.14.297-.431l-1.178-2.875c-.102-.251-.276-.381-.542-.381h-4.752c-.747 0-1.403-.26-1.956-.791-.553-.531-.829-1.162-.829-1.894v-.621c0-.731.276-1.372.829-1.913.553-.541 1.209-.812 1.956-.812h1.178c.102 0 .174-.04.225-.12.051-.08.051-.15.021-.21a4.068 4.068 0 0 1-.246-.481l-.028-.06a2.918 2.918 0 0 0-.218-.421c-.358-.611-.41-1.232-.143-1.874.256-.641.737-1.052 1.423-1.242l1.024-.29a3.553 3.553 0 0 1 2.304.1c.758.29 1.321.761 1.71 1.432l.016.03c.109.202.329.612.67 1.213.359.641.635 1.152.83 1.532.102.251.297.381.584.381h1.024c.256 0 .389-.14.389-.431v-3.015c0-.731.276-1.363.829-1.894a2.732 2.732 0 0 1 1.956-.791h1.229c.748 0 1.403.26 1.956.791.553.531.829 1.163.829 1.894v3.015c0 .291.133.431.389.431h2.059c.256 0 .389-.14.389-.431v-3.015c0-.731.276-1.363.829-1.894a2.732 2.732 0 0 1 1.956-.791h1.229c.748 0 1.393.26 1.936.791.542.531.809 1.163.809 1.894v3.015c0 .291.143.431.44.431h1.321c.256 0 .471-.13.635-.381.164-.29.624-1.162 1.372-2.634a3.492 3.492 0 0 1 1.618-1.583 3.44 3.44 0 0 1 2.253-.291l.932.241c.717.16 1.229.561 1.546 1.202.307.641.297 1.282-.02 1.913l-.584 1.152c-.133.251-.051.381.246.381h1.075c.747 0 1.403.271 1.956.812.553.541.829 1.182.829 1.913v.621c0 .732-.276 1.363-.829 1.894a2.732 2.732 0 0 1-1.956.791h-4.455c-.266 0-.461.14-.583.431a123.705 123.705 0 0 1-1.229 2.925c-.031.06-.021.14.051.221.061.08.143.12.246.12h5.192c.716 0 1.331.25 1.833.741.501.501.757 1.092.757 1.793 0 .702-.256 1.293-.757 1.774-.502.481-1.117.721-1.833.721h-13.815c-.266 0-.389.14-.389.431v.621c0 .29.133.431.389.431h12.34c.686 0 1.27.24 1.761.721.492.481.738 1.052.738 1.723s-.246 1.252-.738 1.753a2.366 2.366 0 0 1-1.761.742h-12.34c-.266 0-.389.13-.389.38v.672c0 .25.133.38.389.38h14.101c.748 0 1.403.271 1.956.812.553.541.83 1.182.83 1.913v.14c0 .732-.277 1.363-.83 1.894a2.73 2.73 0 0 1-1.956.791h-8.325s-.031.08 0 .141c3.072 1.021 6.656 2.013 10.773 2.965.655.13 1.116.501 1.392 1.122.277.621.236 1.222-.122 1.793l-.584 1.102a3.185 3.185 0 0 1-1.741 1.483 3.622 3.622 0 0 1-2.325.1c-5.028-1.533-9.421-3.276-13.179-5.219-.266-.131-.389-.06-.389.19v3.306c0 .731-.277 1.373-.83 1.914-.552.541-1.208.811-1.955.811h-2.448c-.747 0-1.403-.27-1.956-.811-.553-.541-.829-1.183-.829-1.914v-3.306c0-.1-.041-.17-.123-.22a.23.23 0 0 0-.225-.02c-3.625 1.913-8.029 3.676-13.221 5.269a3.619 3.619 0 0 1-2.324-.1c-.768-.291-1.352-.781-1.741-1.483l.02.01Zm17.481-25.586h8.427c.328 0 .543-.13.635-.381.389-.731.82-1.713 1.27-2.925.062-.251-.02-.381-.246-.381h-11.51c-.225 0-.307.13-.246.381.257.641.625 1.593 1.076 2.875.133.291.327.431.583.431h.011Zm36.469 26.753c.535.551 1.17.826 1.907.826v-.03h1.645c.736 0 1.382-.276 1.927-.827.544-.55.817-1.203.817-1.948v-.296c0-.296.141-.439.434-.439h8.828c.736 0 1.372-.265 1.907-.806a2.64 2.64 0 0 0 .797-1.928v-17.079c0-.295.111-.357.333-.193a2.24 2.24 0 0 0 1.614.367 2.028 2.028 0 0 0 1.423-.857c.03-.071.091-.102.191-.102.101 0 .182.041.243.102a105.036 105.036 0 0 1 4.489 8.886 2.876 2.876 0 0 0 1.494 1.459c.676.296 1.372.296 2.078 0l1.11-.439c.706-.285 1.201-.795 1.493-1.51a2.64 2.64 0 0 0-.05-2.142c-1.09-2.571-2.412-5.285-3.955-8.152-.384-.683-.939-1.142-1.665-1.367-.727-.234-1.443-.183-2.149.143l-1.443.735c-.03.04-.081.03-.121-.021a.156.156 0 0 1-.02-.173c.928-1.561 1.897-3.387 2.895-5.469.091-.255.283-.387.576-.387h8.545c.253 0 .384.142.384.438-.101 4.04-.192 7.479-.293 10.325a334.671 334.671 0 0 1-.313 7.152 164.337 164.337 0 0 1-.312 4.591c-.091 1.143-.222 2.01-.384 2.591-.161.582-.302.959-.434 1.122a.65.65 0 0 1-.534.245c-1.352 0-3.057-.04-5.116-.142-.746-.031-1.372.214-1.886.734-.515.52-.757 1.143-.727 1.857l.051 1.071c.07.775.373 1.449.918 2a2.86 2.86 0 0 0 1.977.877c4.248.133 7.002.194 8.253.194.676 0 1.211-.041 1.615-.122.403-.082.827-.306 1.281-.684.454-.367.797-.877 1.039-1.51.232-.632.495-1.571.767-2.826.272-1.255.474-2.734.626-4.438.151-1.704.282-3.887.413-6.56.131-2.663.232-5.642.313-8.927.081-3.285.161-7.213.222-11.763a2.64 2.64 0 0 0-.797-1.928c-.535-.541-1.17-.806-1.907-.806h-11.098c-.263 0-.353-.123-.293-.388.051-.141.113-.335.194-.588l.099-.31c.131-.398.232-.704.292-.898.232-.714.142-1.377-.262-1.979-.404-.602-.979-.949-1.715-1.051l-1.685-.194a2.888 2.888 0 0 0-2.099.511c-.625.438-1.069 1.04-1.322 1.826a51.673 51.673 0 0 1-4.106 9.661c-.03.021-.071.041-.121.021-.05-.021-.071-.062-.071-.123v-2.785c0-.745-.272-1.387-.817-1.928-.545-.541-1.19-.806-1.927-.806h-3.037c-.262 0-.353-.143-.292-.439.322-1.173.565-2.061.726-2.683.161-.714.04-1.367-.363-1.949-.404-.581-.979-.918-1.715-1.02l-1.837-.245c-.767-.102-1.473.092-2.118.561-.636.47-1.06 1.082-1.252 1.827a61.417 61.417 0 0 1-.968 3.611c-.041.225-.212.337-.535.337h-2.27c-.737 0-1.372.265-1.907.806a2.642 2.642 0 0 0-.797 1.928v32.504c0 .745.262 1.398.797 1.949Zm6.296-23.384v-7.07c0-.255.141-.387.434-.387h4.247c.253 0 .384.132.384.387v7.07c0 .296-.131.439-.384.439h-4.247c-.293 0-.434-.143-.434-.439Zm0 14.151v-7.172c0-.296.141-.439.434-.439h4.247c.253 0 .384.143.384.439v7.172c0 .296-.131.439-.384.439h-4.247c-.293 0-.434-.143-.434-.439Zm47.225 7.437-.98-1.704c-.358-.623-.429-1.296-.225-2.021.214-.734.643-1.265 1.297-1.581 7.423-3.868 13.039-7.837 16.847-11.908.164-.164.245-.388.245-.684v-13.52c0-.256-.132-.388-.388-.388h-14.897c-.745 0-1.399-.276-1.95-.827-.552-.551-.827-1.204-.827-1.949v-.826c0-.745.275-1.388.827-1.929a2.692 2.692 0 0 1 1.95-.806h14.897c.256 0 .388-.143.388-.439v-.438c0-.745.276-1.398.828-1.949.551-.551 1.204-.827 1.95-.827h2.44c.746 0 1.399.276 1.95.827.552.551.827 1.204.827 1.949v.438c0 .296.133.439.388.439h14.898c.745 0 1.399.265 1.95.806.552.541.827 1.184.827 1.929v.826c0 .745-.275 1.398-.827 1.949-.551.551-1.205.827-1.95.827h-14.898c-.265 0-.388.132-.388.388v13.52c0 .296.082.52.246.684 3.941 4.234 9.557 8.265 16.847 12.102a2.62 2.62 0 0 1 1.297 1.581c.214.694.123 1.378-.266 2.021l-.929 1.561c-.388.653-.959 1.071-1.705 1.265-.745.194-1.45.102-2.103-.296-4.912-2.867-9.282-6.132-13.09-9.806-.062-.061-.133-.081-.194-.051-.062.031-.103.082-.103.143v9.122c0 .745-.275 1.398-.827 1.949-.551.551-1.204.827-1.95.827h-2.44c-.746 0-1.399-.276-1.95-.827-.552-.551-.828-1.204-.828-1.949v-9.173c0-.061-.03-.112-.102-.143-.061-.03-.132-.02-.194.051-3.584 3.51-7.944 6.786-13.09 9.806a2.656 2.656 0 0 1-2.103.296 2.725 2.725 0 0 1-1.705-1.265h.01Zm12.253-27.378c-.194.847-.47 1.868-.827 3.072-.062.255 0 .459.194.581 1.235 1.102 2.164 1.97 2.787 2.592.552.551.827 1.225.827 2 0 .776-.275 1.429-.827 1.949l-1.174 1.123a2.72 2.72 0 0 1-1.93.775c-.735 0-1.358-.275-1.879-.826-.102-.062-.214-.184-.337-.337a5.312 5.312 0 0 0-.337-.388c-.194-.194-.357-.163-.49.102a28.451 28.451 0 0 1-2.787 4.102c-.46.551-1.062.817-1.808.776-.745-.031-1.347-.337-1.807-.929l-1.368-1.704c-1.072-1.337-1.072-2.786 0-4.347a27.868 27.868 0 0 0 4.35-9.367 3.25 3.25 0 0 1 1.225-1.878 2.771 2.771 0 0 1 2.103-.561l1.859.245a2.637 2.637 0 0 1 1.807 1.051c.46.602.602 1.265.439 1.98l-.02-.011Zm25.496 0c-.225.949-.552 2.082-.98 3.419-.102.255-.031.49.194.683a85.387 85.387 0 0 1 4.84 4.735 3.24 3.24 0 0 1 .898 2.123c.051.826-.153 1.571-.613 2.224l-.929 1.316c-.388.582-.939.898-1.633.929-.705.031-1.277-.214-1.736-.735-1.011-1.143-2.298-2.459-3.86-3.949-.061-.061-.163-.092-.296-.071-.133.02-.214.071-.245.173a4.812 4.812 0 0 1-.337.582c-.429.582-1.001.898-1.736.949a2.315 2.315 0 0 1-1.879-.704l-1.511-1.51c-.551-.551-.868-1.235-.949-2.051a3.506 3.506 0 0 1 .51-2.245 26.667 26.667 0 0 0 2.828-6.684 3.251 3.251 0 0 1 1.226-1.878 2.771 2.771 0 0 1 2.103-.561l1.91.245c.745.102 1.347.449 1.786 1.051.44.602.582 1.265.419 1.98l-.01-.021Zm27.764 20.94c-.368-.689-.904-1.155-1.639-1.388v-.01l-2.857-.922c-.725-.233-1.46-.173-2.174.172-.725.355-1.208.871-1.449 1.581l-.568 1.651c-.241.7-.178 1.399.179 2.098.357.699.903 1.165 1.638 1.399l2.857.922c.725.233 1.45.172 2.175-.173.724-.344 1.207-.871 1.449-1.58l.567-1.652c.242-.699.179-1.399-.178-2.098Zm-4.422-7.215c.357.679.903 1.135 1.67 1.378v.01l1.911.608a3.053 3.053 0 0 0 2.238-.121c.724-.324 1.239-.851 1.523-1.581l7.026-17.46c.315-.689.294-1.378-.052-2.067-.347-.69-.882-1.156-1.618-1.389l-4.285-1.378c-.735-.243-1.439-.172-2.132.182-.693.355-1.145.892-1.355 1.612l-5.168 18.058a2.977 2.977 0 0 0 .242 2.148Z" fill="#008088"/></g><g clip-path="url(#f)" fill="#008088"><path d="M307.833 42.23c-.512 0-.952-.174-1.311-.533a1.773 1.773 0 0 1-.532-1.312c0-.523.174-.954.532-1.313a1.809 1.809 0 0 1 1.311-.534h1.311c.215 0 .328-.123.328-.369v-3.887c0-.574.215-1.067.635-1.467.42-.41.922-.615 1.485-.615.564 0 1.066.205 1.465.615.41.41.615.903.615 1.467v3.887c0 .246.123.37.368.37h.861c.512 0 .952.174 1.311.533.348.359.533.79.533 1.313 0 .523-.175.954-.533 1.312a1.769 1.769 0 0 1-1.311.534h-.861c-.245 0-.368.123-.368.369v8.462c0 .246.112.318.327.205.113-.052.287-.134.533-.226.246-.092.42-.174.533-.226.379-.194.758-.174 1.126.062.369.236.554.564.554 1.005 0 .574-.154 1.108-.472 1.61a2.943 2.943 0 0 1-1.249 1.129c-.113.05-.287.143-.533.266-.246.123-.42.216-.532.267-.195.082-.287.236-.287.451v7.272c0 2.667-.215 4.328-.656 4.964-.44.636-1.577.964-3.431.964-.512 0-.963-.01-1.342-.04a2.125 2.125 0 0 1-1.332-.637 1.987 1.987 0 0 1-.594-1.333c-.03-.462.134-.862.472-1.19a1.555 1.555 0 0 1 1.208-.451c.543.051.84.082.902.082.297 0 .471-.092.512-.267.041-.174.061-.81.061-1.897v-5.764c0-.216-.113-.298-.328-.246a2.688 2.688 0 0 1-.491.164 2.73 2.73 0 0 0-.492.164c-.492.164-.942.102-1.352-.185-.41-.287-.635-.687-.696-1.21a2.233 2.233 0 0 1 .409-1.549c.328-.461.758-.78 1.311-.943.492-.134.922-.267 1.311-.41.215-.083.328-.237.328-.452V42.59c0-.246-.113-.37-.328-.37h-1.311v.01Zm29.766-1.353c-.215 0-.328.123-.328.37v1.394c0 .297.051.472.164.533.113.052.492.082 1.147.082h.738c.348-.03.829-.266 1.423-.738.594-.472 1.086-.677 1.475-.657.543.052.984.298 1.322.719.338.42.45.892.348 1.415-.195.84-.594 1.354-1.229 1.528-.625.174-2.08.267-4.364.267-1.628 0-2.775-.051-3.431-.144-.656-.092-1.086-.256-1.28-.492-.205-.236-.308-.636-.308-1.21v-2.698c0-.246-.112-.37-.327-.37h-.902c-.215 0-.368.114-.45.33-.379 1.117-1.086 2.143-2.121 3.066-1.034.923-2.284 1.672-3.759 2.246-.031.03-.031.051-.02.062.01.01.051.02.102.02h14.78c.349 0 .656.133.902.39.246.256.369.564.369.923 0 .359-.123.656-.369.902a1.22 1.22 0 0 1-.902.37h-14.124a1.866 1.866 0 0 1-1.393-.595c-.379-.39-.574-.852-.574-1.364v-.041a.272.272 0 0 0-.061-.165c-.041-.05-.093-.071-.144-.04-.44.112-.84.061-1.229-.144-.379-.205-.635-.523-.778-.964l-.246-.657h-.082v3.231c0 .164 0 .39-.021.677-.02.287-.02.503-.02.636 0 .215.123.328.369.328h20.741c.41 0 .758.154 1.045.451.287.298.43.657.43 1.067 0 .41-.143.76-.43 1.046-.287.287-.635.431-1.045.431h-20.813c-.246 0-.369.113-.369.328-.215 5.18-1.045 9.62-2.489 13.323a1.75 1.75 0 0 1-1.086 1.067 1.84 1.84 0 0 1-1.526-.082 2.207 2.207 0 0 1-1.085-1.23 2.083 2.083 0 0 1 .02-1.59c.871-2.37 1.485-4.985 1.834-7.847.348-2.861.532-6.707.532-11.528v-4.37c0-.276-.082-.46-.246-.573-.461-.36-.706-.821-.737-1.395-.031-.575.174-1.067.614-1.467 1.66-1.61 3.053-3.313 4.169-5.108.738-1.2 1.752-1.713 3.063-1.549l.696.083c.349.03.615.194.779.512.164.318.174.616.041.924-.031.03-.031.071 0 .123.03.05.071.082.123.082h10.611c.43 0 .82.153 1.147.471.328.318.492.698.492 1.17 0 1.118-.379 2.061-1.147 2.82l-.287.287c-.051.031-.072.072-.041.144.031.072.072.102.123.102h5.47c.43 0 .809.154 1.126.472.308.318.471.688.471 1.129 0 .44-.153.8-.471 1.107a1.584 1.584 0 0 1-1.126.451h-5.306v-.061Zm-9.956.287c.133-.195.092-.287-.123-.287h-5.224c-.215 0-.328.123-.328.37v2.656c0 .215.113.297.328.246 2.448-.513 4.23-1.508 5.347-2.985Zm-5.388 25.713V63.03c0-.626.236-1.17.697-1.62.461-.452 1.003-.678 1.628-.678h16.696c.625 0 1.168.226 1.629.677.461.452.696.985.696 1.62v3.847c0 .595-.215 1.108-.635 1.508-.42.41-.932.615-1.536.615h-.902c-.358 0-.645-.113-.881-.349-.235-.236-.348-.523-.348-.882 0-.133-.072-.205-.205-.205h-12.373c-.133 0-.205.072-.205.205 0 .349-.113.646-.348.882-.236.236-.522.349-.881.349h-.901a2.111 2.111 0 0 1-1.527-.615 2.035 2.035 0 0 1-.635-1.508h.031Zm1.834-10.462c-.359 0-.646-.112-.881-.348-.236-.236-.349-.523-.349-.882 0-.36.113-.647.349-.882.235-.236.522-.35.881-.35h17.638c.348 0 .645.114.881.35.235.235.348.523.348.882s-.113.646-.348.882c-.236.236-.523.348-.881.348h-17.638Zm0 3.395c-.359 0-.646-.113-.881-.349-.236-.225-.349-.523-.349-.881 0-.36.113-.647.349-.883.235-.225.522-.348.881-.348h17.638c.348 0 .645.113.881.348.235.236.348.523.348.883 0 .358-.113.646-.348.882-.236.235-.523.348-.881.348h-17.638Zm9.587-23.549c.051-.03.072-.071.041-.143-.031-.072-.072-.103-.123-.103h-8.901c-.246 0-.42.082-.533.246-.03.052-.338.452-.942 1.19-.133.195-.092.288.123.288h8.409a.834.834 0 0 0 .615-.247 46.266 46.266 0 0 0 1.311-1.23Zm-7.139 27.467v.862c0 .215.123.328.368.328h12.046c.246 0 .369-.113.369-.328v-.862c0-.246-.123-.369-.369-.369h-12.046c-.245 0-.368.123-.368.37ZM354.622 54.292c-.44.36-.921.452-1.464.288-.543-.165-.922-.513-1.147-1.067a2.859 2.859 0 0 1 0-1.898 3.133 3.133 0 0 1 1.147-1.569c.901-.677 1.956-1.549 3.185-2.615.164-.113.246-.287.246-.534v-.902c0-.626.225-1.17.676-1.63.451-.462.983-.698 1.608-.698h.738c.276 0 .461-.082.573-.247 1.199-1.476 2.182-2.85 2.94-4.133.051-.051.061-.123.02-.205-.041-.082-.102-.123-.184-.123h-8.491c-.543 0-.994-.185-1.352-.554a1.826 1.826 0 0 1-.533-1.323c0-.544.185-1.005.553-1.374a1.81 1.81 0 0 1 1.332-.554h10.447c.246 0 .41-.113.492-.328.328-.76.553-1.354.697-1.754a2.792 2.792 0 0 1 1.126-1.416 2.655 2.655 0 0 1 1.69-.43c.543.05.984.318 1.311.8.328.482.39.974.205 1.497-.051.164-.133.38-.225.656-.092.277-.174.493-.225.657-.113.215-.041.328.204.328h16.45c.513 0 .963.185 1.322.554.358.37.553.82.553 1.374 0 .554-.174.964-.533 1.323-.358.37-.799.554-1.352.554H368.46c-.215 0-.389.113-.532.328-1.711 3.272-3.964 6.41-6.74 9.406-.164.164-.246.379-.246.656V66.61c0 .626-.215 1.149-.635 1.57-.42.42-.942.635-1.567.635s-1.106-.215-1.536-.635c-.431-.421-.635-.944-.635-1.57V52.877c0-.051-.041-.092-.123-.123-.082-.03-.133-.01-.164.04a18.764 18.764 0 0 1-1.67 1.509l.01-.01Zm18.816 9.323c.246 0 .369-.123.369-.369v-10.01c0-.246-.123-.37-.369-.37h-7.385c-.512 0-.952-.174-1.311-.533a1.773 1.773 0 0 1-.532-1.313c0-.523.174-.953.532-1.312a1.769 1.769 0 0 1 1.311-.534h7.385c.246 0 .369-.123.369-.369V43.41c0-.595.215-1.118.656-1.548.43-.431.952-.657 1.546-.657a2.09 2.09 0 0 1 1.547.657c.43.44.656.953.656 1.548v5.395c0 .246.112.37.327.37h7.181c.512 0 .962.174 1.321.533.369.359.553.79.553 1.313 0 .523-.184.953-.553 1.312a1.823 1.823 0 0 1-1.321.534h-7.181c-.215 0-.327.123-.327.369v10.01c0 .246.112.37.327.37h8.574c.542 0 .993.174 1.341.533.359.359.533.8.533 1.354 0 .553-.174.994-.533 1.353a1.844 1.844 0 0 1-1.341.534h-22.739c-.543 0-1.004-.185-1.363-.554a1.816 1.816 0 0 1-.553-1.333c0-.523.185-.965.553-1.323.369-.36.82-.554 1.363-.554h9.064v-.01ZM401.606 68.6c-.625 0-1.147-.215-1.567-.656-.42-.441-.635-.954-.635-1.55V38.714c0-.626.235-1.17.696-1.631.461-.462 1.004-.697 1.629-.697h9.065c.215 0 .369-.093.451-.288.327-.902.665-1.907 1.024-3.025.194-.626.553-1.118 1.106-1.467s1.127-.492 1.752-.41a1.783 1.783 0 0 1 1.393.84 1.88 1.88 0 0 1 .245 1.611c-.112.441-.379 1.251-.819 2.451-.051.195.031.288.246.288h12.332c.625 0 1.168.236 1.629.697.461.462.696 1.005.696 1.63v27.673c0 .594-.215 1.118-.635 1.548-.42.431-.942.657-1.567.657h-.41c-.491 0-.901-.175-1.249-.513a1.711 1.711 0 0 1-.512-1.251c0-.195-.093-.287-.287-.287h-22.125c-.194 0-.286.092-.286.287 0 .492-.175.902-.513 1.25a1.706 1.706 0 0 1-1.249.514h-.41v.01Zm2.161-28.164v4.533c0 .216.123.328.369.328h21.961c.245 0 .368-.112.368-.328v-4.533c0-.246-.123-.37-.368-.37h-21.961c-.246 0-.369.124-.369.37Zm0 8.708v4.574c0 .246.123.37.369.37h21.961c.245 0 .368-.124.368-.37v-4.574c0-.247-.123-.37-.368-.37h-21.961c-.246 0-.369.123-.369.37Zm0 8.79v4.697c0 .246.123.369.369.369h21.961c.245 0 .368-.123.368-.37v-4.697c0-.246-.123-.369-.368-.369h-21.961c-.246 0-.369.123-.369.37ZM446.797 37.615c-.543 0-.993-.174-1.352-.533-.358-.359-.532-.8-.532-1.354s.174-.995.532-1.354c.359-.359.799-.533 1.352-.533h25.187c.625 0 1.168.236 1.629.697.461.462.696 1.006.696 1.631v14.472c0 .626-.215 1.149-.655 1.58-.441.42-.953.635-1.547.635a2.153 2.153 0 0 1-1.547-.636c-.44-.42-.655-.943-.655-1.579v-.287c0-.246-.113-.37-.328-.37h-19.021c-.215 0-.327.124-.327.37v10.79c0 1.466.112 2.348.348 2.615.235.267 1.004.451 2.304.533 2.448.134 4.722.205 6.822.205 1.905 0 4.323-.071 7.262-.205a90.45 90.45 0 0 0 2.1-.123c.389-.03.86-.113 1.414-.266.542-.154.901-.329 1.065-.534.164-.205.369-.554.614-1.046.246-.492.41-1.026.492-1.61.082-.585.195-1.395.328-2.43a1.982 1.982 0 0 1 .799-1.457 2.062 2.062 0 0 1 1.608-.431c.625.113 1.127.42 1.505.923.379.503.543 1.056.492 1.651-.164 1.446-.317 2.626-.471 3.539-.154.912-.399 1.733-.758 2.451-.358.718-.696 1.251-1.045 1.59-.338.338-.901.636-1.669.902-.779.257-1.547.42-2.305.493-.758.071-1.833.143-3.226.225-3.053.134-5.839.205-8.369.205-2.202 0-4.691-.071-7.467-.205a61.984 61.984 0 0 1-2.55-.164 6.57 6.57 0 0 1-1.711-.39c-.553-.205-.942-.42-1.147-.656-.205-.236-.399-.626-.574-1.19a7.086 7.086 0 0 1-.307-1.754 56.454 56.454 0 0 1-.041-2.595V48.508c0-.626.236-1.17.697-1.61.461-.452 1.004-.678 1.628-.678h21.51c.215 0 .328-.123.328-.369v-7.887c0-.246-.113-.37-.328-.37h-22.78v.021ZM488.844 58.087a1.66 1.66 0 0 1-1.321-.492c-.369-.349-.564-.79-.595-1.313a1.74 1.74 0 0 1 .492-1.343c.348-.38.799-.585 1.342-.616.246 0 .594 0 1.065-.02.461-.01.82-.031 1.065-.062.246 0 .369-.123.369-.37v-16.06c0-.626.225-1.17.676-1.632.451-.461.983-.697 1.619-.697h7.385c.215 0 .368-.113.45-.328.297-.708.533-1.344.697-1.918a2.578 2.578 0 0 1 1.106-1.426 2.75 2.75 0 0 1 1.751-.451 1.789 1.789 0 0 1 1.394.82c.327.493.389 1.006.204 1.55-.112.327-.276.789-.491 1.394-.052.246.01.37.205.37h10.447c.625 0 1.168.235 1.629.697.461.461.696 1.005.696 1.63v12.144c0 .195.082.236.246.123.758-.656 1.321-1.149 1.67-1.467a1.588 1.588 0 0 1 1.27-.43c.491.04.87.256 1.147.636.297.41.43.861.41 1.364a1.886 1.886 0 0 1-.615 1.292 49.686 49.686 0 0 1-3.841 3.149c-.195.133-.287.328-.287.574v7.272c0 1.005-.02 1.815-.061 2.41a6.893 6.893 0 0 1-.307 1.651c-.164.503-.369.872-.615 1.108-.246.236-.625.43-1.147.595a7.093 7.093 0 0 1-1.67.308c-.594.04-1.413.061-2.448.061-1.034 0-2.847-.04-5.347-.123a1.93 1.93 0 0 1-1.311-.595 2.011 2.011 0 0 1-.573-1.333c-.031-.492.133-.913.471-1.272a1.58 1.58 0 0 1 1.25-.492c2.233.082 3.841.123 4.814.123 1.229 0 1.956-.103 2.181-.308.236-.205.349-.892.349-2.061v-4.41c0-.083-.041-.144-.123-.185-.082-.041-.154-.03-.205.02-7.129 4.36-15.19 7.836-24.163 10.42-.543.134-1.055.093-1.526-.143-.481-.236-.809-.605-1.004-1.128a1.496 1.496 0 0 1 .082-1.364 1.77 1.77 0 0 1 1.106-.882c7.57-2.02 14.463-4.728 20.701-8.133.031-.031.041-.052.041-.083 0-.03-.031-.04-.082-.04a444.293 444.293 0 0 1-20.578 1.466h-.02Zm6.781-18.677v2.041c0 .246.122.37.368.37h18.294c.215 0 .328-.124.328-.37v-2.04c0-.216-.113-.329-.328-.329h-18.294c-.246 0-.368.113-.368.328Zm0 5.846v2.164c0 .216.122.329.368.329h18.294c.215 0 .328-.113.328-.329v-2.164c0-.246-.113-.369-.328-.369h-18.294c-.246 0-.368.123-.368.37Zm0 5.929v2.492c0 .215.112.328.327.328a422.642 422.642 0 0 0 18.294-1.23c.246 0 .369-.124.369-.37v-1.23c0-.247-.113-.37-.328-.37h-18.294c-.246 0-.368.123-.368.37v.01ZM533.595 67.451a1.81 1.81 0 0 1-1.363-.574 1.879 1.879 0 0 1-.553-1.354c0-.523.185-.964.553-1.354.369-.38.82-.574 1.363-.574h12.291c.215 0 .328-.123.328-.37V35.155c0-.595.215-1.118.655-1.549.43-.43.963-.656 1.588-.656.625 0 1.157.215 1.587.656.431.441.656.954.656 1.549v8.133c0 .246.123.37.369.37h12.813c.543 0 .994.174 1.342.533.348.359.533.8.533 1.354 0 .553-.174.995-.533 1.353-.348.36-.799.534-1.342.534h-12.813c-.246 0-.369.123-.369.369v15.456c0 .247.123.37.369.37h15.026c.543 0 1.004.195 1.362.574.369.38.553.83.553 1.354 0 .523-.184.964-.553 1.354-.369.38-.819.574-1.362.574h-32.5v-.03Z"/></g><path d="M33.626 80.445a2.1 2.1 0 0 1 1.212-.854 2.043 2.043 0 0 1 1.486.163c.454.243.747.61.889 1.098.131.488.07.945-.202 1.372a52.08 52.08 0 0 1-3.304 4.617 2.12 2.12 0 0 1-1.375.773 2.277 2.277 0 0 1-1.566-.326 1.595 1.595 0 0 1-.747-1.18 1.72 1.72 0 0 1 .384-1.372 56.09 56.09 0 0 0 3.223-4.291Zm8.659-5.39c0 .62-.232 1.16-.687 1.617-.455.458-.99.692-1.607.692h-7.527a2.12 2.12 0 0 1-1.586-.692 2.244 2.244 0 0 1-.667-1.616V55.552c0-.62.222-1.159.667-1.617.444-.457.97-.691 1.586-.691h7.527c.617 0 1.152.234 1.607.691.455.458.687.997.687 1.617v19.503Zm-4.032-12.039v-5.755c0-.244-.12-.366-.363-.366h-3.264c-.212 0-.323.122-.323.366v5.755c0 .244.11.366.323.366h3.264c.242 0 .363-.122.363-.366Zm0 10.453v-6.203c0-.244-.12-.366-.363-.366h-3.264c-.212 0-.323.122-.323.366v6.203c0 .214.11.326.323.326h3.264c.242 0 .363-.112.363-.326Zm3.022 12.68c-.273-1.728-.496-3.04-.688-3.935-.11-.539 0-1.037.303-1.474.304-.448.728-.692 1.264-.753a2.13 2.13 0 0 1 1.586.387c.465.335.768.793.91 1.362.262 1.302.504 2.624.727 3.976.08.57-.05 1.078-.405 1.525a1.937 1.937 0 0 1-1.364.753 2.078 2.078 0 0 1-1.525-.447 2.067 2.067 0 0 1-.808-1.383v-.01Zm21.47-33.108c.647 0 1.193.223 1.627.67.435.448.647.997.627 1.638-.05 2.837-.253 4.962-.607 6.366-.353 1.403-.838 2.338-1.475 2.796-.626.457-1.576.691-2.839.691-.97 0-2.324-.04-4.072-.122a1.8 1.8 0 0 1-1.233-.57 1.942 1.942 0 0 1-.545-1.26c-.03-.427.121-.814.444-1.139a1.43 1.43 0 0 1 1.132-.447c.808.05 1.718.081 2.738.081.86 0 1.435-.285 1.728-.854.293-.57.455-1.861.485-3.895 0-.213-.111-.325-.323-.325h-5.113c-.212 0-.354.112-.404.325-.435 1.942-1.273 3.732-2.516 5.37-1.243 1.636-2.809 2.989-4.688 4.067a.131.131 0 0 0-.04.101c0 .041.03.061.08.061h13.853c.616 0 1.152.234 1.606.692.455.457.687.996.687 1.617v6.935c0 .62-.232 1.159-.687 1.616-.454.458-.99.692-1.606.692h-14.54c-.616 0-1.152-.234-1.606-.692-.455-.457-.688-.996-.688-1.616v-7.82c0-.193-.07-.386-.202-.61l-.525-.895a1.92 1.92 0 0 1-.242-1.617c.161-.57.505-.996 1.05-1.301 3.032-1.729 5.012-3.936 5.921-6.61.05-.213-.03-.325-.242-.325h-4.628c-.505 0-.95-.173-1.313-.53a1.725 1.725 0 0 1-.546-1.3c0-.52.182-.946.546-1.302A1.842 1.842 0 0 1 45.902 53h16.833l.01.04ZM48.894 70.429v3.854c0 .244.121.366.364.366H59.36c.212 0 .323-.122.323-.366v-3.854c0-.244-.111-.366-.323-.366H49.257c-.243 0-.364.122-.364.366Zm4.547 17.388a2.216 2.216 0 0 1-1.587-.264 2.432 2.432 0 0 1-1.07-1.24 86.209 86.209 0 0 0-1.607-4.017 1.717 1.717 0 0 1 0-1.444c.212-.468.576-.773 1.091-.916a2.42 2.42 0 0 1 1.627.163c.525.244.91.63 1.152 1.18.262.62.828 2.013 1.687 4.169.192.508.152.996-.101 1.454-.253.458-.647.752-1.192.895v.02Zm11.053-1.739a1.834 1.834 0 0 1-.868 1.18c-.455.274-.96.346-1.506.224a1.999 1.999 0 0 1-1.273-.875c-.586-.895-1.667-2.37-3.223-4.413-.324-.407-.435-.875-.344-1.403.091-.53.354-.926.788-1.2.485-.295.99-.397 1.526-.305.535.091.98.376 1.334.834a84.27 84.27 0 0 1 3.304 4.535c.293.427.384.905.263 1.413v.01ZM76.325 85.818c-.136.46-.45.745-.943.857-.481.112-.91-.01-1.277-.367-1.005-.98-1.32-2.132-.964-3.458.943-3.58 1.414-8.709 1.414-15.41v-6.75c0-.623.24-1.163.712-1.622.471-.459 1.026-.694 1.665-.694h13.393c.638 0 1.193.235 1.665.694.47.459.712 1 .712 1.622v5.527c0 .439-.157.796-.461 1.081-.304.286-.68.428-1.131.428-.136 0-.24.092-.293.286a17.8 17.8 0 0 0-.272.775c-.126.377-.23.663-.315.857-.052.214.01.326.21.326h1.256c.388 0 .723.133 1.006.408.272.275.419.591.419.979a1.3 1.3 0 0 1-.42.979 1.37 1.37 0 0 1-1.005.408h-1.58c-.22 0-.336.112-.336.326v1.265c0 .245.115.367.335.367h1.173c.387 0 .722.133 1.005.388.272.254.42.57.42.958a1.3 1.3 0 0 1-.42.98 1.37 1.37 0 0 1-1.005.407h-1.173c-.22 0-.335.123-.335.367v1.224c0 .214.115.326.335.326h1.173c.387 0 .722.133 1.005.408.272.276.42.592.42.98a1.3 1.3 0 0 1-.42.978 1.37 1.37 0 0 1-1.005.408h-1.173c-.22 0-.335.112-.335.327v1.264c0 .245.115.367.335.367h1.173c.607 0 1.068.245 1.382.735.115.194.241.214.377.081.168-.163.304-.265.419-.326 2.168-1.142 3.948-2.346 5.34-3.62.053-.031.074-.072.042-.143-.031-.072-.073-.102-.126-.102H96.64c-.639 0-1.194-.235-1.665-.694-.471-.459-.712-1-.712-1.621V61.709c0-.622.24-1.162.712-1.6a2.335 2.335 0 0 1 1.665-.674h2.167c.252 0 .398-.112.461-.326.136-.46.325-1.183.544-2.152.053-.245-.041-.367-.293-.367H96.01c-.502 0-.931-.174-1.298-.53a1.681 1.681 0 0 1-.544-1.265c0-.49.178-.908.544-1.265.367-.357.796-.53 1.298-.53H110.2c.503 0 .921.173 1.277.53.346.357.524.775.524 1.265 0 .49-.178.907-.524 1.264-.345.357-.774.53-1.277.53h-5.466c-.251 0-.387.093-.419.286-.031.163-.073.398-.146.694-.074.296-.137.57-.189.816-.052.245-.115.479-.167.693-.053.245.031.367.251.367h4.544c.639 0 1.194.225 1.665.673.471.45.712.98.712 1.601v16.624c0 .622-.241 1.162-.712 1.621-.471.46-1.026.694-1.665.694h-3.089c-.052 0-.083.02-.083.061 0 .04.01.071.041.102a38.829 38.829 0 0 1 5.718 3.702c.44.357.691.795.754 1.316.052.53-.084 1.01-.419 1.448-.304.408-.712.632-1.236.693a1.976 1.976 0 0 1-1.392-.367 66.09 66.09 0 0 0-4.461-2.968c-.555-.326-.901-.785-1.047-1.376a1.978 1.978 0 0 1 .335-1.663l.502-.652c.053-.051.063-.113.021-.184-.042-.071-.104-.102-.188-.102h-4.011c-.052 0-.094.03-.125.102-.032.071-.032.133 0 .184l.502.53c.44.51.65 1.101.629 1.744-.021.642-.304 1.193-.838 1.621-1.257 1.03-2.764 2.01-4.545 2.927-.502.276-1.036.327-1.602.163-.565-.163-1.005-.469-1.309-.938-.031-.03-.041-.05-.041-.082-.116-.193-.252-.234-.42-.122-.366.245-.7.367-1.004.367h-7.843c-.168 0-.252.082-.252.245 0 .459-.157.836-.46 1.142-.304.296-.702.449-1.173.449h-.461c-.586 0-1.079-.194-1.487-.591a1.914 1.914 0 0 1-.607-1.439v-8.332c0-.244-.095-.407-.293-.489l-.461-.204a.311.311 0 0 0-.251.02c-.084.041-.126.102-.126.184-.335 2.927-.859 5.487-1.581 7.68l.02-.01Zm-1.09-29.432c-.47 0-.879-.174-1.214-.51a1.641 1.641 0 0 1-.503-1.203c0-.47.168-.857.503-1.184.335-.326.733-.489 1.215-.489h16.063c.47 0 .88.163 1.235.49.346.326.524.713.524 1.182 0 .47-.178.857-.524 1.204-.346.347-.754.51-1.236.51H75.237Zm3.09 13.41c0 1.54-.01 2.673-.042 3.376.031.03.073.03.126 0 .858-1.897 1.539-3.6 2.041-5.12.053-.193-.031-.285-.251-.285h-1.497c-.252 0-.377.112-.377.327v1.703Zm.628-7.801v2.152c0 .244.126.367.377.367h8.974c.251 0 .377-.123.377-.367v-2.152c0-.214-.126-.326-.377-.326H79.33c-.251 0-.377.112-.377.326Zm7.298 12.32V73.05c0-.214-.125-.326-.377-.326h-2.837c-.22 0-.335.112-.335.326v1.264c0 .245.115.368.335.368h2.837c.252 0 .377-.123.377-.368Zm0 4.67v-1.224c0-.244-.125-.367-.377-.367h-2.837c-.22 0-.335.123-.335.367v1.224c0 .214.115.327.335.327h2.837c.252 0 .377-.113.377-.327Zm0 4.671v-1.265c0-.214-.125-.326-.377-.326h-2.837c-.22 0-.335.112-.335.326v1.265c0 .245.115.367.335.367h2.837c.252 0 .377-.122.377-.367Zm.964-15.563c.052-.214-.032-.326-.252-.326h-2.46c-.252 0-.42.112-.503.327-.22.703-.387 1.223-.502 1.54-.053.214.03.326.25.326h2.378c.251 0 .419-.112.502-.327.252-.57.44-1.08.587-1.54Zm11.141-5.078v2.07c0 .214.126.326.377.326h7.508c.251 0 .377-.112.377-.326v-2.07c0-.245-.126-.367-.377-.367h-7.508c-.251 0-.377.122-.377.367Zm0 5.813v2.11c0 .246.126.368.377.368h7.508c.251 0 .377-.122.377-.367v-2.111c0-.245-.126-.367-.377-.367h-7.508c-.251 0-.377.122-.377.367Zm.377 8.454h7.508c.251 0 .377-.112.377-.326v-2.274c0-.215-.126-.327-.377-.327h-7.508c-.251 0-.377.112-.377.327v2.274c0 .214.126.326.377.326ZM119.876 76.394c-.952-1.09-1.126-2.366-.532-3.817 1.167-2.819 1.751-6.831 1.751-12.058v-6.183c0-.628.235-1.173.696-1.636.461-.463 1.003-.7 1.628-.7h30.441c.43 0 .819.165 1.147.494.327.33.491.71.491 1.152 0 .443-.164.823-.491 1.152-.328.33-.707.494-1.147.494h-28.321c-.246 0-.369.124-.369.37v6.935c0 5.608-.881 10.124-2.652 13.571-.276.514-.696.803-1.27.844-.573.04-1.034-.155-1.382-.597l.01-.02ZM121.105 88c-.461 0-.85-.165-1.167-.494a1.595 1.595 0 0 1-.471-1.152c0-.443.153-.823.471-1.153.307-.329.696-.493 1.167-.493h13.915c.246 0 .369-.124.369-.37v-1.359c0-.247-.123-.37-.369-.37h-11.181c-.43 0-.799-.144-1.086-.432-.286-.289-.43-.649-.43-1.091 0-.442.144-.802.43-1.111a1.443 1.443 0 0 1 1.086-.453h11.263c.194 0 .287-.082.287-.247 0-.514.184-.967.553-1.327.368-.36.808-.556 1.331-.556h.737c.512 0 .962.186 1.331.556.369.37.553.813.553 1.327 0 .165.092.247.287.247h11.263c.43 0 .798.154 1.085.453.287.298.43.669.43 1.111 0 .442-.143.802-.43 1.09-.287.289-.645.433-1.085.433h-11.182c-.245 0-.368.123-.368.37v1.358c0 .247.123.37.368.37h13.915c.461 0 .85.165 1.168.495.317.329.471.71.471 1.152a1.6 1.6 0 0 1-.471 1.152c-.318.33-.697.494-1.168.494h-33.072Zm33.421-27.06c.409 0 .757.145 1.044.433.287.288.43.638.43 1.05v.164c0 .432-.164.823-.491 1.152-.328.33-.707.494-1.147.494h-3.717c-.215 0-.297.124-.246.37.676 3.396 2.181 6.256 4.485 8.612.379.412.584.895.614 1.461a1.988 1.988 0 0 1-.491 1.461c-.379.432-.86.669-1.423.7-.574.03-1.045-.175-1.434-.618-1.659-1.882-2.939-4.218-3.84-7.016-.082-.165-.153-.175-.204-.041-.84 2.788-2.028 5.082-3.553 6.893-.41.494-.932.72-1.567.679a2.262 2.262 0 0 1-1.608-.803l-.614-.7c-.031-.05-.072-.071-.143-.04a.29.29 0 0 0-.144.123c-.112.576-.378.936-.798 1.09-.42.155-1.178.227-2.263.227a57.95 57.95 0 0 1-3.389-.123 1.21 1.21 0 0 1-.778-.391 1.328 1.328 0 0 1-.369-.803c-.031-.298.072-.555.287-.782a.951.951 0 0 1 .778-.288c.87.082 1.526.124 1.956.124.348 0 .552-.031.614-.103.051-.072.082-.309.082-.72v-.371c0-.216-.123-.33-.369-.33h-5.713c-.246 0-.369.114-.369.33v2.13c0 .576-.194 1.06-.573 1.45-.379.402-.86.597-1.423.597a1.979 1.979 0 0 1-1.454-.597c-.4-.39-.594-.884-.594-1.45v-8.036c0-.627.225-1.172.675-1.636.451-.463.983-.7 1.608-.7h9.881a2.15 2.15 0 0 1 1.607.7c.441.463.676 1.009.676 1.636v6.606c0 .051.031.103.082.144.051.04.113.03.164-.02 2.662-2.46 4.311-5.588 4.935-9.394.051-.247-.041-.37-.287-.37h-2.611c-.43 0-.819-.165-1.146-.495-.328-.329-.492-.71-.492-1.152 0-.442.164-.823.492-1.152.327-.33.706-.494 1.146-.494h2.775c.246 0 .369-.124.369-.37v-2.418c0-.576.194-1.06.594-1.461.399-.391.88-.597 1.454-.597h.86c.327 0 .604.113.839.35.236.236.349.514.349.843 0 .031.01.052.04.083.031.03.052.03.082 0l.164-.165a2.694 2.694 0 0 1 1.772-.72 2.562 2.562 0 0 1 1.771.638c.41.329.625.504.655.535.461.38.697.885.697 1.502s-.236 1.132-.697 1.533l-.123.082s-.03.062 0 .103c.031.041.052.062.082.062h.011Zm-25.506-4.63h8.652c.625 0 1.167.238 1.628.7.461.464.696 1.009.696 1.637v3.035a2.17 2.17 0 0 1-.696 1.615c-.461.442-1.003.679-1.628.679h-8.652c-.625 0-1.167-.226-1.628-.68-.461-.452-.696-.987-.696-1.614v-3.035c0-.628.235-1.173.696-1.636.461-.463 1.003-.7 1.628-.7Zm7.587 11.319v-.412c0-.247-.123-.37-.369-.37h-5.713c-.246 0-.369.123-.369.37v.412c0 .246.123.37.369.37h5.713c.246 0 .369-.124.369-.37Zm0 2.993v-.411c0-.247-.123-.37-.369-.37h-5.713c-.246 0-.369.123-.369.37v.412c0 .215.123.329.369.329h5.713c.246 0 .369-.114.369-.33Zm-.532-11.687v-.33c0-.247-.113-.37-.328-.37h-4.731c-.215 0-.327.123-.327.37v.33c0 .246.112.37.327.37h4.731c.215 0 .328-.123.328-.37Zm0 2.87v-.33c0-.246-.113-.37-.328-.37h-4.731c-.215 0-.327.124-.327.37v.33c0 .247.112.37.327.37h4.731c.215 0 .328-.123.328-.37Zm16.976-.864c.051 0 .092-.041.123-.124.031-.082.01-.133-.041-.164a29.987 29.987 0 0 0-2.775-2.295c-.194-.133-.286-.082-.286.165v2.047c0 .247.122.37.368.37h2.611ZM166.999 61.327c-.552 0-1.02-.195-1.416-.575-.396-.38-.583-.842-.583-1.396 0-.513.198-.965.583-1.355.385-.39.854-.575 1.416-.575h8.925c.25 0 .375-.123.375-.37.052-1.632.083-2.915.083-3.849 0-.595.218-1.119.666-1.55a2.226 2.226 0 0 1 1.614-.657c.636 0 1.177.216 1.614.657.438.441.667.965.667 1.591 0 .903-.031 2.166-.083 3.809 0 .246.114.369.333.369h14.485c.635 0 1.187.236 1.635.698.447.462.687 1.006.687 1.632-.031 4.23-.094 7.802-.187 10.717-.094 2.915-.282 5.4-.563 7.442-.281 2.043-.583 3.655-.937 4.825-.344 1.17-.833 2.084-1.479 2.74-.635.658-1.281 1.068-1.926 1.253-.646.175-1.521.267-2.593.267-1.437 0-3.582-.123-6.436-.37a2.3 2.3 0 0 1-1.489-.718 2.065 2.065 0 0 1-.624-1.499c0-.575.208-1.006.624-1.365.417-.37.896-.524 1.458-.472 2.489.215 4.27.328 5.353.328 1.083 0 1.801-.43 2.343-1.314.541-.872.979-2.874 1.333-6.015.343-3.131.531-7.781.562-13.95 0-.216-.115-.329-.333-.329h-12.163c-.25 0-.375.123-.375.37-.5 6.087-1.593 10.983-3.28 14.71-1.687 3.726-4.249 7.041-7.675 9.967-.468.41-1.02.585-1.656.534a2.438 2.438 0 0 1-1.614-.78 2.028 2.028 0 0 1-.541-1.591c.052-.596.323-1.089.791-1.479 2.937-2.504 5.124-5.348 6.561-8.53 1.437-3.172 2.395-7.453 2.863-12.831 0-.247-.114-.37-.333-.37h-8.674l-.011.03ZM211.38 86.803a1.69 1.69 0 0 1-1.366.66c-.554 0-1.027-.216-1.417-.66a2.6 2.6 0 0 1-.595-1.6 2.56 2.56 0 0 1 .513-1.641c2.618-3.726 4.025-9.475 4.21-17.236 0-.217-.113-.33-.329-.33h-1.191c-.626 0-1.17-.228-1.632-.702-.462-.465-.699-1.012-.699-1.641v-8.68c0-.63.237-1.177.699-1.642.462-.464 1.006-.701 1.632-.701h13.256c.626 0 1.17.237 1.632.701.462.465.698 1.012.698 1.641v8.68c0 .63-.236 1.177-.698 1.642-.462.464-1.006.701-1.632.701h-7.28c-.247 0-.37.114-.37.33 0 .331 0 .826-.02 1.477-.011.66-.031 1.156-.062 1.475 0 .197.113.29.329.29h7.403c.626 0 1.17.227 1.612.68.451.455.677.992.677 1.631-.03 4.965-.174 8.577-.451 10.838-.278 2.26-.678 3.705-1.212 4.335-.534.629-1.396.949-2.598.949-1.201 0-2.536-.041-4.168-.124a2.135 2.135 0 0 1-1.458-.64c-.401-.402-.606-.887-.637-1.465-.031-.516.154-.97.534-1.332.38-.371.842-.536 1.386-.516.678.031 1.581.041 2.7.041.432 0 .76-.216.966-.64.205-.423.38-1.403.534-2.92.154-1.517.225-3.778.225-6.771 0-.248-.123-.371-.369-.371h-5.524c-.216 0-.36.123-.411.371-.791 5.563-2.433 9.96-4.908 13.16l.021.01Zm1.673-30.23v5.676c0 .248.124.371.37.371h9.046c.215 0 .328-.123.328-.371v-5.677c0-.217-.113-.33-.328-.33h-9.046c-.246 0-.37.114-.37.33Zm20.792 22.375c-.41.413-.903.62-1.468.62a2.068 2.068 0 0 1-1.489-.62c-.421-.412-.636-.908-.636-1.475V55.746c0-.578.215-1.074.636-1.476.421-.413.924-.62 1.489-.62.565 0 1.068.207 1.468.62.411.413.616.908.616 1.476v21.715c0 .578-.205 1.074-.616 1.476v.01Zm6.448-26.308c.421-.423.935-.64 1.541-.64.605 0 1.108.217 1.529.64.421.423.637.94.637 1.538v27.846c0 2.684-.287 4.356-.862 4.995-.575.64-2.064.97-4.457.97-.595 0-1.745-.04-3.439-.123-.575-.031-1.068-.238-1.469-.64a2.137 2.137 0 0 1-.657-1.466c-.031-.516.154-.97.534-1.362.38-.382.842-.557 1.397-.537.924.052 1.868.083 2.823.083.822 0 1.325-.103 1.51-.31.195-.206.287-.815.287-1.827V54.188c0-.599.216-1.115.637-1.538l-.011-.01ZM286.439 67.064c3.041 2.68 4.561 6.004 4.561 9.948 0 2.355-.507 4.067-1.53 5.117-1.024 1.05-2.625 1.58-4.804 1.58h-.608a2.242 2.242 0 0 1-1.46-.53 2.269 2.269 0 0 1-.811-1.346c-.111-.489 0-.917.304-1.304.315-.377.71-.581 1.196-.612 1.399-.03 2.331-.255 2.787-.693.456-.428.69-1.223.69-2.355 0-2.731-1.237-5.483-3.72-8.246-.973-1.11-1.115-2.324-.446-3.659 1.53-3.007 2.777-5.86 3.72-8.572.05-.214-.031-.326-.244-.326h-5.412c-.243 0-.365.122-.365.367V85.89c0 .57-.202 1.06-.608 1.458-.405.397-.892.611-1.449.611a2 2 0 0 1-1.459-.611 1.999 1.999 0 0 1-.608-1.458V55.893c0-.051-.011-.082-.041-.082-.03 0-.051.01-.081.04a46.385 46.385 0 0 1-4.125 6.137c-.132.194-.091.285.122.285h1.256c.487 0 .902.174 1.257.53.345.357.527.775.527 1.264 0 .49-.172.907-.527 1.264-.355.357-.77.53-1.257.53h-4.358a.822.822 0 0 0-.608.245 43.19 43.19 0 0 1-3.03 2.925c-.112.112-.071.163.121.163h6.061c.618 0 1.156.235 1.591.693.436.459.669 1 .669 1.621v14.423c0 .57-.202 1.06-.608 1.457-.405.398-.892.612-1.449.612h-.649c-.375 0-.709-.143-.993-.428a1.378 1.378 0 0 1-.426-.999c0-.132-.071-.204-.202-.204h-8.362c-.162 0-.243.072-.243.204 0 .377-.132.714-.405.999-.274.285-.588.428-.973.428h-.73a2.06 2.06 0 0 1-1.51-.632 2.083 2.083 0 0 1-.629-1.519V75.575c0-.082-.03-.143-.101-.184-.071-.04-.132-.03-.182.02-.081.031-.193.093-.345.205a1.5 1.5 0 0 1-.345.204c-.456.275-.942.295-1.459.081a1.703 1.703 0 0 1-1.013-1.141 2.242 2.242 0 0 1 .081-1.682c.243-.55.628-.979 1.175-1.274 2.858-1.57 5.585-3.476 8.2-5.729.05-.03.07-.071.04-.122-.03-.051-.071-.082-.122-.082h-7.469c-.487 0-.902-.173-1.257-.53a1.721 1.721 0 0 1-.527-1.264c0-.489.172-.897.527-1.243.345-.337.77-.51 1.257-.51h5.534c.243 0 .364-.122.364-.367V58.38c0-.214-.121-.327-.364-.327h-3.679c-.456 0-.862-.173-1.217-.53-.354-.356-.527-.754-.527-1.223 0-.469.173-.856.527-1.203.355-.336.75-.51 1.217-.51h3.679c.243 0 .364-.121.364-.366v-1.06c0-.591.203-1.1.609-1.529a1.999 1.999 0 0 1 1.489-.632c.588 0 1.095.214 1.521.632.415.418.628.928.628 1.529v1.06c0 .245.112.367.324.367h2.747c.618 0 1.155.224 1.591.673.436.448.669.978.669 1.6v.04c0 .052.03.092.081.123.051.03.091.01.122-.04a33.194 33.194 0 0 0 1.692-2.722c.294-.49.7-.816 1.216-1 .517-.183 1.024-.152 1.531.062.456.214.77.53.932.938.031.03.061.04.102.04a.13.13 0 0 0 .101-.04 2.14 2.14 0 0 1 .811-1.183 2.276 2.276 0 0 1 1.378-.448h10.5c.456 0 .861.173 1.216.53.345.357.527.754.527 1.223 0 1.193-.172 2.304-.527 3.333a66.135 66.135 0 0 1-3.881 8.776c-.112.245-.071.438.121.57h.01Zm-17.168 5.688h-8.078c-.243 0-.365.122-.365.367v2.64c0 .244.122.366.365.366h8.078c.243 0 .364-.122.364-.367v-2.64c0-.244-.121-.367-.364-.367Zm.364 9.795v-2.722c0-.244-.121-.367-.364-.367h-8.078c-.243 0-.365.123-.365.367v2.722c0 .245.122.367.365.367h8.078c.243 0 .364-.123.364-.367Zm.163-24.249c.111-.163.05-.245-.163-.245h-4.124c-.213 0-.325.113-.325.327v3.577c0 .214.112.326.325.326h.648c.243 0 .426-.07.568-.203a73.962 73.962 0 0 0 3.071-3.782Z" fill="#008088"/><defs><clipPath id="a"><path fill="#fff" d="M21 217h521v5H21z"/></clipPath><clipPath id="b"><path fill="#fff" d="M0 0h594v129H0z"/></clipPath><clipPath id="c"><path fill="#fff" d="M27 171h515v26H27z"/></clipPath><clipPath id="d"><path fill="#fff" d="M28 103h293v51H28z"/></clipPath><clipPath id="f"><path fill="#fff" d="M305 31h264v38H305z"/></clipPath><filter id="e" x="28" y="103" width="295" height="50" filterUnits="userSpaceOnUse" color-interpolation-filters="sRGB"><feFlood flood-opacity="0" result="BackgroundImageFix"/><feColorMatrix in="SourceAlpha" values="0 0 0 0 0 0 0 0 0 0 0 0 0 0 0 0 0 0 127 0" result="hardAlpha"/><feOffset dx="2" dy="4"/><feComposite in2="hardAlpha" operator="out"/><feColorMatrix values="0 0 0 0 0.760784 0 0 0 0 0.760784 0 0 0 0 0.760784 0 0 0 1 0"/><feBlend in2="BackgroundImageFix" result="effect1_dropShadow_238_1353"/><feBlend in="SourceGraphic" in2="effect1_dropShadow_238_1353" result="shape"/></filter></defs></svg>