<svg width="85" height="30" fill="none" xmlns="http://www.w3.org/2000/svg"><path d="M46.144 19.498c-1.243-.28-2.273-.754-3.09-1.424-.77-.632-1.396-1.482-1.876-2.55h-1.292v2.34c.758-.103 1.566-.222 2.427-.354l.057 1.158c-1.377.221-3.02.472-4.932.751l-.303-1.202c.126-.016.33-.04.606-.077.33-.037.583-.066.763-.09v-2.525H36.65v-1.158h1.866v-4.81h7.088v1.071h-5.719v.586h5.402v1.015h-5.402v.55h5.402v1.016h-5.402v.572h6.887v1.158H45.57l.864.596c-.598.427-1.288.84-2.067 1.247.733.448 1.606.764 2.618.949a4.83 4.83 0 0 0-.843 1.181h.002Zm-2.684-2.824a15.058 15.058 0 0 0 1.718-1.147H42.57c.239.42.534.802.886 1.147h.003ZM50.075 19.522a5.866 5.866 0 0 0-1.066-.783 4.87 4.87 0 0 0 .843-.804c.269-.325.483-.652.639-.981l1.246.364a7.418 7.418 0 0 1-.752 1.202c-.3.398-.604.733-.91 1.005v-.003Zm-.977-2.647v-1.147h1.01v-4.092h-.876v-1.147h.875V9.318h1.203v1.17h1.393v-1.17h1.224v1.17h.763v1.148h-.763v4.092h.685v1.147h-5.514Zm2.212-4.601h1.393v-.641H51.31v.64Zm0 1.698h1.393v-.694H51.31v.694Zm0 1.753h1.393v-.751H51.31v.751Zm3.909 3.784a3.733 3.733 0 0 0-.505-.42c-.225-.16-.408-.268-.55-.319.016-.02.035-.052.061-.095a.482.482 0 0 0 .051-.092l-.931.52c-.24-.464-.64-1.018-1.203-1.667l1.01-.54c.585.633.987 1.133 1.213 1.5.293-.612.491-1.382.596-2.318.075-.624.113-1.413.113-2.36v-4.05h4.156v8.361c0 .33-.038.588-.113.773a.835.835 0 0 1-.405.43c-.315.169-.913.245-1.797.232a3.866 3.866 0 0 0-.38-1.247c.268.02.627.029 1.079.02h.102c.15 0 .225-.076.225-.231v-2.173h-1.708c-.15 1.595-.485 2.821-1.012 3.673l-.002.003Zm1.09-4.844h1.63v-1.358h-1.62v.409c0 .403-.002.72-.01.95Zm.01-2.515h1.62v-1.292h-1.62v1.292ZM63.047 19.532l-1.291-.54a8.508 8.508 0 0 0 1.383-2.273l1.29.353c-.434.979-.893 1.799-1.382 2.46Zm-.786-2.91V9.605h3.57v2.724c.599-.16 1.053-.382 1.359-.662.263-.234.448-.55.56-.949h-1.594V9.571h5.786c-.008.148-.016.295-.022.44-.045.78-.096 1.345-.158 1.698-.067.383-.164.641-.293.773-.18.198-.437.316-.776.353a8.543 8.543 0 0 1-1.291.021 2.305 2.305 0 0 0-.325-1.049c.381.029.706.045.977.045.15 0 .263-.037.336-.11.097-.096.172-.439.225-1.027h-1.549c-.129.617-.349 1.11-.663 1.48-.368.427-.907.762-1.616 1.004h4.808v3.288h-5.1V13.29l-.022.01a2.539 2.539 0 0 0-.639-.915v3.718H63.52v.52h-1.26Zm1.259-4.435h1.09v-1.435h-1.09v1.435Zm0 2.747h1.09v-1.6h-1.09v1.6Zm1.696 4.511c0-.661-.072-1.431-.212-2.307l1.235-.142c.18.896.277 1.648.293 2.252l-1.313.197h-.002Zm2.742-.044c-.076-.617-.269-1.38-.586-2.284l1.26-.221c.33.817.55 1.563.663 2.238l-1.337.264v.003Zm-.202-3.971h2.516v-1.181h-2.516v1.18Zm3.157 4.06c-.23-.633-.638-1.426-1.224-2.383l1.214-.464c.644.986 1.079 1.753 1.302 2.304l-1.291.54v.003ZM80.38 19.511a5.45 5.45 0 0 0-.663-.63H77.2v.496h-.966v-2.869l-.057.066-.046-.055c-.104-.119-.19-.214-.257-.288-.143 1.28-.379 2.331-.709 3.156a2.102 2.102 0 0 0-.421-.39 2.092 2.092 0 0 0-.5-.293c.277-.735.465-1.666.561-2.792.067-.727.102-1.64.102-2.737v-3.42l.561.156c1.445-.124 2.58-.308 3.405-.55l.886.859c-.959.271-2.205.466-3.74.585v.375h3.764v2.55h-1.45l.92.242c-.029.058-.077.15-.144.277a7.987 7.987 0 0 0-.19.33h.92v.816h-1.055v.375h.956v.728h-.956v.385h.966v.748h-.966v.385h1.146v.496c.561-.338 1.007-.72 1.337-1.147l1.055.617c-.247.28-.55.562-.91.844-.36.282-.703.509-1.033.677v.008Zm-4.425-4.226c.306-.485.54-1.005.696-1.556h-.629v.056a27.815 27.815 0 0 1-.067 1.5Zm.067-2.526h2.572v-.607h-2.572v.607Zm1.327 1.82h.628c.142-.404.23-.689.268-.85h-1.404l.741.187c-.067.222-.145.44-.236.662h.003Zm-.145 1.19h.706v-.373h-.706v.374Zm0 1.116h.706V16.5h-.706v.385Zm0 1.137h.706v-.385h-.706v.385Zm3.1-.75v-5.847h1.348c.022-.156.049-.385.078-.696h-1.651V9.626h4.64v1.103h-1.663c-.067.242-.134.474-.201.696h1.686v5.848h-4.236Zm1.09-4.18h2.011v-.673h-2.01v.672Zm0 1.6h2.011v-.683h-2.01v.682Zm0 1.6h2.011v-.672h-2.01v.672Zm2.607 3.209c-.276-.398-.738-.897-1.382-1.5l.942-.586c.652.551 1.13 1.026 1.439 1.424l-.999.662ZM38.163 25v.357H36.65v-2.64h.411v2.284h1.1ZM39.693 22.667c.773 0 1.238.54 1.238 1.358 0 .818-.475 1.364-1.232 1.364-.758 0-1.238-.541-1.238-1.364 0-.822.478-1.358 1.232-1.358Zm.003 2.347c.507 0 .803-.377.803-.986 0-.61-.296-.983-.806-.983s-.802.377-.802.983.319.986.805.986ZM41.406 22.718h.486l.663 1.104c.416.696.593 1.05.593 1.05s-.024-.356-.024-1.047v-1.107h.411v2.639h-.486l-.666-1.102c-.408-.67-.599-1.058-.599-1.058s.033.393.033 1.055v1.105h-.411v-2.64ZM46.281 25.114h-.002v.027c-.183.134-.492.247-.865.247-.827 0-1.401-.506-1.401-1.355s.585-1.363 1.377-1.363c.255 0 .542.042.781.177v.414a1.447 1.447 0 0 0-.765-.211c-.569 0-.96.387-.96.983s.37.978.982.978c.174 0 .327-.034.453-.087v-.727h-.547v-.348h.95v1.265h-.003ZM49.433 23.055h-.706v2.305h-.41v-2.305h-.701v-.337h1.82v.337h-.003ZM51.364 25.02v.337h-1.552v-2.64h1.533v.338h-1.123v.815h.994v.337h-.994v.815h1.142v-.003ZM52.63 24.355h-.354v1.002h-.41v-2.64h.749c.625 0 .966.325.966.823-.008.377-.207.638-.531.752l.7 1.065h-.491l-.63-1.002h.002Zm-.354-.338h.37c.355 0 .519-.203.519-.482 0-.314-.183-.483-.54-.483h-.351v.963l.002.002ZM54.303 22.718h.486l.36.965c.212.556.387 1.104.387 1.104s.182-.532.402-1.104l.376-.965h.486l.247 2.639h-.408l-.097-1.034c-.05-.561-.083-1.057-.083-1.057s-.18.498-.392 1.057l-.376.984h-.322l-.362-.984c-.22-.611-.363-1.041-.363-1.041 0 .103-.027.553-.064 1.041l-.08 1.034h-.409l.207-2.64h.005ZM60.518 23.221a1.23 1.23 0 0 0-.679-.169c-.523 0-.942.377-.942.979 0 .6.394.983.972.983.239 0 .486-.074.65-.195v.409c-.189.12-.46.16-.688.16-.79 0-1.37-.516-1.37-1.355 0-.838.578-1.352 1.362-1.352.247 0 .486.031.69.145v.395h.005ZM62.559 24.71h-1.085l-.215.647h-.435l.93-2.64h.539l.918 2.64h-.438l-.212-.646h-.002Zm-.113-.337-.043-.134c-.344-1.039-.384-1.218-.384-1.218s-.043.179-.392 1.218l-.043.134h.862ZM64.39 24.355h-.355v1.002h-.41v-2.64h.749c.625 0 .966.325.966.823-.008.377-.207.638-.532.752l.701 1.065h-.491l-.631-1.002h.003Zm-.355-.338h.37c.355 0 .519-.203.519-.482 0-.314-.183-.483-.54-.483h-.351v.963l.002.002ZM67.442 25.02v.337H65.89v-2.64h1.533v.338h-1.12v.815h.994v.337h-.993v.815h1.14l-.002-.003ZM70.376 23.221a1.245 1.245 0 0 0-.606-.163c-.296 0-.47.14-.47.348 0 .232.23.337.502.453.338.145.714.314.714.775 0 .462-.384.75-.902.75-.263 0-.54-.056-.733-.17v-.419c.204.148.467.232.73.232.288 0 .475-.137.475-.377s-.222-.33-.501-.45c-.33-.148-.717-.314-.717-.776 0-.461.378-.728.894-.728.204 0 .435.035.617.127v.4l-.003-.002ZM72.554 25.02v.337h-1.552v-2.64h1.533v.338h-1.12v.815h.994v.337h-.994v.815h1.141l-.002-.003ZM73.818 24.355h-.354v1.002h-.41v-2.64h.748c.626 0 .967.325.967.823-.008.377-.207.638-.532.752l.7 1.065h-.49l-.631-1.002h.002Zm-.354-.338h.37c.355 0 .519-.203.519-.482 0-.314-.183-.483-.54-.483h-.352v.963l.003.002ZM76.546 25.357h-.486l-.905-2.64h.438l.343 1.05c.247.76.371 1.231.371 1.231s.129-.47.384-1.231l.346-1.05h.438l-.93 2.64ZM77.918 22.718h.408v2.639h-.408v-2.64ZM80.882 23.221a1.23 1.23 0 0 0-.68-.169c-.523 0-.942.377-.942.979 0 .6.395.983.972.983.239 0 .486-.074.65-.195v.409c-.188.12-.46.16-.688.16-.789 0-1.369-.516-1.369-1.355 0-.838.577-1.352 1.361-1.352.247 0 .486.031.69.145v.395h.006ZM82.906 25.02v.337h-1.552v-2.64h1.533v.338h-1.122v.815h.993v.337h-.993v.815h1.141v-.003ZM84.858 23.221a1.237 1.237 0 0 0-.607-.163c-.295 0-.47.14-.47.348 0 .232.231.337.502.453.338.145.714.314.714.775 0 .462-.384.75-.902.75-.263 0-.54-.056-.733-.17v-.419c.204.148.467.232.73.232.288 0 .476-.137.476-.377s-.223-.33-.502-.45c-.33-.148-.717-.314-.717-.776 0-.461.378-.728.894-.728.204 0 .435.035.617.127v.4l-.002-.002Z" fill="#585757"/><path d="M30.541 15.01v5.991h-.008c-5.053 0-9.16 4.034-9.16 8.996H15.27c0-8.281 6.83-14.99 15.263-14.99h.008v.004Z" fill="#E1690D"/><path d="M15.27 0v.013h-.008C6.841.013.02 6.703 0 14.968v.045c0 7.325 5.337 13.415 12.403 14.72v-6.17c-3.659-1.18-6.3-4.569-6.3-8.55V15c0-4.962 4.107-8.996 9.16-8.996h.008V5.99c4.061 0 7.5 2.602 8.703 6.196h6.293C28.93 5.25 22.73 0 15.271 0Z" fill="#EC6C00"/><path d="M15.27 10.523c-2.523 0-4.569 2.009-4.569 4.488 0 2.478 2.046 4.487 4.57 4.487 2.523 0 4.569-2.009 4.569-4.488 0-2.478-2.046-4.487-4.57-4.487Z" fill="#E1690D"/><path d="M29.784 18.148c-6.25 0-11.319 4.978-11.319 11.116 0 .248.022.49.038.736h2.867c0-4.962 4.108-8.996 9.16-8.996h.008v-2.816c-.252-.016-.502-.037-.757-.037l.003-.003Z" fill="#D2A258"/></svg>