<svg width="111" height="26" fill="none" xmlns="http://www.w3.org/2000/svg"><path d="M14.964 24c6.06-1.106 10.078-6.926 8.976-13C22.837 4.923 17.03.895 10.972 2 4.912 3.107.894 8.927 1.996 15c1.102 6.076 6.908 10.104 12.968 9Z" fill="#FFC629" stroke="#002E6D" stroke-width=".79"/><path d="m4.475 8.746-.864-.55.12-.19.755.167.155.036a3.706 3.706 0 0 1-.107-.139l-.459-.61.107-.17.865.55-.077.12-.724-.46.548.737-.071.112-.91-.194.736.468-.076.12.002.003ZM4.486 7.132l-.118-.087.082-.11.117.087-.081.11Zm.709.522-.597-.44.081-.11.597.442-.081.11v-.002ZM5.412 7.354l-.574-.473.079-.094.081.066a.273.273 0 0 1 0-.143.392.392 0 0 1 .163-.217.273.273 0 0 1 .098-.039c.03-.005.06 0 .094.013.033.013.076.041.127.085l.352.291-.086.107-.35-.289a.257.257 0 0 0-.104-.06.114.114 0 0 0-.082.007.199.199 0 0 0-.074.059.23.23 0 0 0-.059.156c.003.053.041.11.11.166l.314.258-.087.105-.002.002ZM5.34 6.078l-.107-.097.092-.1.107.1-.092.1v-.003Zm.645.599-.545-.504.091-.1.546.504-.092.1ZM6.047 6.283l.084-.11c.04.03.084.044.127.038a.256.256 0 0 0 .13-.071.238.238 0 0 0 .077-.12.102.102 0 0 0-.023-.095.076.076 0 0 0-.077-.02.752.752 0 0 0-.13.066c-.094.056-.16.092-.196.105a.195.195 0 0 1-.107.008.159.159 0 0 1-.09-.052.184.184 0 0 1-.048-.168.365.365 0 0 1 .12-.2.452.452 0 0 1 .13-.092.242.242 0 0 1 .12-.025c.036.002.076.02.117.05l-.084.106c-.066-.049-.135-.039-.212.035a.244.244 0 0 0-.076.113c-.008.033-.003.059.015.08.018.02.044.025.077.017a.882.882 0 0 0 .137-.072 1.68 1.68 0 0 1 .204-.107.176.176 0 0 1 .192.044.205.205 0 0 1 .053.186.405.405 0 0 1-.13.218c-.14.135-.275.156-.408.064l-.002.002ZM6.98 5.572l.087.072a.398.398 0 0 1-.174.133.118.118 0 0 1-.084-.005.404.404 0 0 1-.107-.103l-.278-.324-.076.066-.064-.074.076-.067-.12-.14.057-.146.168.197.105-.09.063.075-.104.09.28.329c.026.03.046.049.059.051.02.005.04-.002.066-.023.013-.01.026-.025.044-.043l.002.002ZM7.169 5.567l-.451-.59.099-.077.069.09a.318.318 0 0 1 .005-.136.145.145 0 0 1 .056-.075.28.28 0 0 1 .135-.053l.033.12a.275.275 0 0 0-.096.038.137.137 0 0 0-.049.067.113.113 0 0 0 0 .082c.015.048.04.094.071.138l.238.31-.11.083v.003ZM7.756 5.48l-.077-.09c.03-.01.054-.02.072-.033a.148.148 0 0 0 .053-.05.123.123 0 0 0 .018-.062c0-.008-.008-.051-.023-.133l-.666-.453.125-.082.378.266c.046.034.094.072.143.113a2.13 2.13 0 0 1-.046-.171l-.092-.458.115-.077.155.803c.02.105.028.176.028.217 0 .041-.01.075-.028.103a.246.246 0 0 1-.153.11l-.002-.003ZM8.47 4.27c-.054-.117-.061-.22-.026-.309a.394.394 0 0 1 .207-.204.393.393 0 0 1 .288-.026c.095.028.166.1.217.21.056.12.066.227.028.317a.394.394 0 0 1-.207.204.394.394 0 0 1-.288.026c-.094-.028-.166-.102-.22-.217Zm.127-.058c.041.087.092.143.153.166.062.023.125.02.187-.01a.218.218 0 0 0 .12-.136c.022-.061.012-.138-.029-.222-.04-.087-.091-.14-.153-.164a.226.226 0 0 0-.186.01.23.23 0 0 0-.122.136c-.023.061-.013.135.028.222l.002-.002ZM9.523 4.212 9.3 3.606l-.115.043-.033-.092.115-.043-.028-.074a.274.274 0 0 1-.023-.13.168.168 0 0 1 .046-.09.298.298 0 0 1 .11-.067.736.736 0 0 1 .124-.033l.02.11a.403.403 0 0 0-.078.023c-.039.015-.064.033-.074.054-.01.02-.008.053.007.094l.023.064.148-.056.033.092-.148.056.225.606-.128.049ZM10.365 3.925l-.22-1.002.146-.03.09.411.568-.125-.089-.412.145-.03.22 1.002-.146.03-.102-.473-.569.126.103.473-.146.03ZM12 3.406h.143a.317.317 0 0 1-.11.195.414.414 0 0 1-.222.084.39.39 0 0 1-.288-.069.372.372 0 0 1-.135-.271c-.013-.128.013-.228.076-.304a.388.388 0 0 1 .26-.13.376.376 0 0 1 .274.07c.076.06.122.152.135.277v.033l-.6.064c.016.082.046.143.097.18a.23.23 0 0 0 .174.045c.102-.01.168-.069.199-.174H12Zm-.472-.153.452-.049a.236.236 0 0 0-.07-.138.224.224 0 0 0-.175-.051.23.23 0 0 0-.15.074.225.225 0 0 0-.057.164ZM12.885 3.519a.582.582 0 0 1-.143.084.508.508 0 0 1-.153.03.333.333 0 0 1-.204-.053.191.191 0 0 1-.079-.153c0-.044.01-.082.033-.115a.242.242 0 0 1 .095-.08.604.604 0 0 1 .186-.043c.112-.015.194-.03.245-.049v-.033c0-.051-.013-.087-.039-.107-.035-.028-.086-.044-.158-.041a.261.261 0 0 0-.143.033c-.03.02-.053.059-.068.113l-.136-.016a.271.271 0 0 1 .115-.176.481.481 0 0 1 .25-.06c.084 0 .153.011.202.034.048.023.079.051.094.087.013.036.02.087.023.156V3.3c.005.118.01.192.015.222.008.031.018.06.036.09h-.143a.218.218 0 0 1-.03-.09l.002-.002Zm-.015-.281a1.1 1.1 0 0 1-.225.05.456.456 0 0 0-.12.029.126.126 0 0 0-.053.04.102.102 0 0 0-.018.062c0 .036.015.064.046.084.03.02.071.031.123.031.048 0 .094-.01.132-.03a.21.21 0 0 0 .09-.08.27.27 0 0 0 .027-.14v-.046h-.002ZM13.245 3.616l.038-1.025.139.005-.039 1.025-.138-.005ZM13.928 3.542l.01.112c-.038.005-.07.005-.101.005a.236.236 0 0 1-.115-.03.128.128 0 0 1-.056-.062.41.41 0 0 1-.005-.148l.03-.427-.1-.008.008-.097.1.008.013-.184.143-.067-.018.259.137.01-.007.097-.138-.01-.03.434c-.003.041 0 .067.007.08.01.018.033.028.064.03h.061l-.002-.002ZM14.066 3.665l.135-1.018.135.018-.048.365a.282.282 0 0 1 .12-.06.31.31 0 0 1 .138-.009c.086.01.15.041.194.09.043.048.058.125.043.235l-.061.468-.136-.018.062-.468c.007-.064 0-.112-.028-.143a.185.185 0 0 0-.12-.059.224.224 0 0 0-.158.033c-.046.031-.077.09-.087.182l-.054.404-.135-.018v-.002ZM15.928 3.936a.53.53 0 0 1-.16.04.4.4 0 0 1-.156-.015.338.338 0 0 1-.181-.11.191.191 0 0 1-.033-.169.188.188 0 0 1 .063-.1.213.213 0 0 1 .115-.048.577.577 0 0 1 .192.01c.112.018.193.026.247.023l.01-.03c.013-.049.01-.087-.008-.113-.025-.038-.07-.066-.14-.084a.27.27 0 0 0-.145-.01c-.036.01-.069.04-.097.09l-.125-.052a.275.275 0 0 1 .158-.138.478.478 0 0 1 .258.013.474.474 0 0 1 .183.087c.041.035.062.071.067.11a.508.508 0 0 1-.023.156l-.044.16c-.03.113-.048.187-.05.218a.3.3 0 0 0 .01.095l-.138-.039a.246.246 0 0 1-.003-.097v.003Zm.064-.274c-.054.005-.13 0-.23-.013-.058-.007-.099-.01-.122-.007a.096.096 0 0 0-.061.025.085.085 0 0 0-.033.054.1.1 0 0 0 .02.094.216.216 0 0 0 .11.064.316.316 0 0 0 .137.008.21.21 0 0 0 .108-.051.283.283 0 0 0 .066-.128L16 3.665l-.008-.003ZM16.247 4.13l.265-.696.115.044-.038.1a.267.267 0 0 1 .135-.046.359.359 0 0 1 .15.025.322.322 0 0 1 .171.14.19.19 0 0 1 .018.095.503.503 0 0 1-.038.149l-.163.427-.13-.049.16-.422a.27.27 0 0 0 .026-.117.129.129 0 0 0-.033-.077.17.17 0 0 0-.08-.051.22.22 0 0 0-.165-.005c-.049.02-.09.071-.123.156l-.145.378-.128-.049.003-.002ZM17.543 4.698l.043-.085a.256.256 0 0 1-.247-.002.354.354 0 0 1-.176-.202.387.387 0 0 1 .035-.305.453.453 0 0 1 .138-.17.31.31 0 0 1 .171-.062c.059 0 .117.01.174.04a.286.286 0 0 1 .15.192l.166-.33.122.062-.461.915-.115-.058v.005Zm-.222-.527c-.043.087-.056.158-.038.222a.21.21 0 0 0 .107.133.207.207 0 0 0 .166.008c.058-.02.107-.072.148-.153.046-.092.06-.172.046-.233a.217.217 0 0 0-.113-.138.192.192 0 0 0-.163-.005c-.059.023-.11.076-.153.166ZM18.43 5.235l.398-.993.12.095-.28.637c-.028.066-.059.13-.092.194l.155-.118.595-.414.14.11-.194.509c-.046.123-.1.238-.155.34.053-.043.112-.092.18-.143l.544-.412.117.092-.872.62-.112-.088.296-.762.046-.117a1.65 1.65 0 0 1-.1.074l-.668.47-.12-.092.002-.002ZM19.953 6.265l.087.113a.314.314 0 0 1-.217.033.403.403 0 0 1-.204-.123.4.4 0 0 1-.125-.268.367.367 0 0 1 .128-.274c.092-.09.186-.133.285-.128.1.005.187.046.263.125.074.075.11.162.112.259 0 .097-.043.189-.132.276l-.026.023-.423-.435a.277.277 0 0 0-.082.187c0 .064.026.117.072.163.071.075.158.09.26.05h.002Zm-.17-.465.316.324c.04-.048.064-.097.064-.14 0-.064-.02-.12-.07-.169a.226.226 0 0 0-.15-.072.215.215 0 0 0-.16.057ZM20.002 6.682l.78-.665.09.105-.78.665-.09-.105ZM20.262 6.999l.51-.396-.074-.098.077-.06.074.096.06-.048a.273.273 0 0 1 .118-.062.145.145 0 0 1 .097.018.316.316 0 0 1 .095.085c.022.03.045.066.068.11l-.1.05a.459.459 0 0 0-.043-.068c-.025-.034-.048-.051-.073-.054-.023-.005-.054.008-.09.036l-.053.04.097.126-.077.061-.097-.125-.51.396L20.257 7h.005ZM20.887 7.715a.537.537 0 0 1-.148-.074.46.46 0 0 1-.11-.113.35.35 0 0 1-.066-.2.18.18 0 0 1 .087-.147.188.188 0 0 1 .114-.034c.041.003.08.013.118.039a.58.58 0 0 1 .137.133c.072.087.13.145.174.181l.028-.018c.043-.028.066-.058.069-.09.005-.045-.01-.096-.051-.155a.277.277 0 0 0-.105-.102c-.033-.016-.079-.013-.132.005l-.061-.123a.269.269 0 0 1 .209 0c.063.028.125.09.186.179a.456.456 0 0 1 .081.187c.008.053 0 .094-.023.125a.498.498 0 0 1-.117.102l-.14.095c-.097.066-.158.11-.179.13a.243.243 0 0 0-.053.08l-.08-.12a.23.23 0 0 1 .062-.075v-.005Zm.227-.166c-.044-.03-.1-.085-.166-.161a.651.651 0 0 0-.09-.087.148.148 0 0 0-.063-.023c-.02 0-.04.005-.061.018a.096.096 0 0 0-.046.084c0 .036.013.077.04.118.029.04.062.071.1.094a.22.22 0 0 0 .115.034.241.241 0 0 0 .133-.054l.038-.026v.003ZM21 8.076l.642-.371.061.107-.097.056c.061 0 .105.01.133.023a.16.16 0 0 1 .066.064c.023.041.036.087.036.144l-.125.017a.206.206 0 0 0-.026-.1.161.161 0 0 0-.058-.058.13.13 0 0 0-.082-.013.386.386 0 0 0-.145.054l-.337.194-.069-.12v.003ZM21.726 8.94l.049.135a.326.326 0 0 1-.217-.035.416.416 0 0 1-.156-.18.405.405 0 0 1-.036-.293.368.368 0 0 1 .207-.22c.115-.057.22-.067.311-.034a.389.389 0 0 1 .212.202.363.363 0 0 1 .026.282c-.029.092-.1.166-.212.222l-.03.013-.266-.545a.269.269 0 0 0-.135.154.232.232 0 0 0 .018.179c.046.092.122.135.232.125l-.003-.005Zm-.015-.496.199.406a.228.228 0 0 0 .104-.112.217.217 0 0 0-.012-.182.22.22 0 0 0-.12-.115.21.21 0 0 0-.171.005v-.002ZM8.212 21.498c.064.074.095.112.09.12-.003.008-.01.01-.016.008-.015-.006-.028-.006-.038 0-.056.04-.11.074-.158.097l-.304.626s-.015.013-.033.005l-.061-.028s-.015-.015-.01-.025l.25-.52c-.039.01-.084.024-.143.036a.06.06 0 0 1-.026-.025c-.007-.016-.018-.033-.028-.051-.005-.008-.005-.016-.002-.02.048-.011.097-.024.148-.04a.796.796 0 0 0 .319-.17c.005-.005.007-.008.01-.008l.002-.005Zm.283.826-.048.102.181.087s.01.01.005.02l-.02.041c-.008.013-.013.018-.023.016l-.181-.087-.056.117s-.016.013-.031.005l-.061-.03s-.016-.015-.01-.026l.056-.117-.39-.19s-.008-.012 0-.025l.02-.041s.01-.013.02-.01l.102.048.08-.163s.012-.01.025-.006l.27.13.036-.073s.01-.008.023 0c.071.035.107.058.102.069-.005.01-.013.015-.02.013-.008-.003-.016.002-.023.017l-.013.026.155.077s.01.01.008.02l-.02.041c-.005.013-.013.018-.023.013l-.156-.077-.008.003Zm-.135-1.146c.064.074.095.113.09.12-.003.008-.01.01-.016.008-.015-.005-.028-.005-.038 0a.657.657 0 0 1-.194.082.996.996 0 0 1-.158.03.05.05 0 0 1-.023-.023.287.287 0 0 0-.03-.053c-.006-.008-.006-.013-.003-.018a1.92 1.92 0 0 0 .117-.02.53.53 0 0 0 .143-.052c.04-.02.074-.04.102-.064.005-.005.008-.007.01-.007v-.003Zm-.153 1.005-.048.102.186.09.048-.102-.186-.09Zm.138-.45.456.223c.016.007.02.017.016.028l-.097.202s-.015.012-.033.005l-.457-.223c-.015-.007-.02-.018-.015-.028l.097-.202s.015-.013.033-.005Zm.135-.358.158.077a1.61 1.61 0 0 0 .074-.097c.005-.006.013-.006.023 0l.074.058s.015.018.01.029c-.005.012-.015.015-.028.007-.01 0-.018 0-.025.008l-.03.043.21.103c.016.007.021.017.016.028l-.084.174.048.023s.01.012.006.023l-.02.04s-.011.013-.021.008l-.577-.279s-.01-.01-.005-.02l.02-.04s.01-.014.021-.011l.156.077c.025-.034.053-.067.081-.108l-.145-.071s-.01-.01-.005-.02l.02-.042s.01-.013.02-.01h.003Zm.163.706.044-.092-.299-.146-.043.092.298.146Zm.301-.161.378.184s.015.015.008.028l-.02.04c-.009.014-.016.019-.029.014l-.107-.054-.316.655c-.031.06-.102.064-.22.007l-.048-.023s-.005-.012 0-.028a.2.2 0 0 0 .01-.074v-.005a.541.541 0 0 0 .069.046c.05.025.084.023.1-.008l.298-.619-.169-.081s-.015-.016-.007-.029l.02-.04c.005-.013.015-.016.028-.01l.005-.003Zm-.341-.25.176.083.056-.117-.148-.072-.084.105Zm.535 0 .276.132s.015.015.007.028l-.02.041c-.008.013-.015.018-.028.013l-.276-.133s-.015-.015-.007-.028l.02-.041c.005-.013.015-.015.028-.01v-.003ZM10.495 22.068l.112.059s.016.018.013.023c0 .013-.01.018-.023.018-.013-.003-.023 0-.028.015-.033.056-.059.102-.084.138l.395.084.054-.25s.013-.015.03-.01c.082.018.123.03.12.043-.002.013-.01.02-.02.018-.01 0-.018.008-.023.023l-.043.202.548.115c.013.003.018.01.015.02l-.012.057c-.003.015-.01.02-.026.018l-.548-.115-.067.317.47.1c.012.002.018.01.015.025l-.01.046c-.003.013-.01.02-.023.018l-.47-.1-.079.376.628.133c.013.003.018.01.015.023l-.013.056c-.002.013-.01.02-.023.018l-1.448-.304c-.013-.003-.018-.01-.016-.026l.013-.056s.01-.018.023-.013l.704.149.08-.376-.511-.108c-.013-.002-.018-.01-.015-.025l.01-.046c.003-.013.01-.02.023-.018l.51.107.066-.317-.438-.092a.81.81 0 0 1-.22.21.117.117 0 0 1-.036-.013.786.786 0 0 0-.063-.036c-.008-.005-.01-.01-.01-.013 0-.007.005-.01.01-.012a.95.95 0 0 0 .278-.284c.03-.046.064-.108.1-.182.004-.007.01-.01.015-.01l.002-.005ZM12.51 22.71l.587-.01c.013 0 .02.007.02.023v.046c0 .015-.005.023-.018.023h-.219l.013.861c0 .013-.008.018-.026.018h-.066c-.018 0-.028-.005-.028-.018l-.013-.859-.247.005c-.013 0-.02-.007-.02-.023v-.046c0-.015.005-.023.017-.023v.003Zm.064.2.123.022s.017.01.017.018c0 .01-.005.018-.015.018-.018.005-.028.023-.03.049.002.174 0 .294-.01.36-.011.064-.024.12-.037.169 0 .008-.007.013-.02.013-.066-.018-.1-.028-.1-.034.026-.076.039-.14.046-.189.008-.092.013-.23.013-.411 0-.01.005-.016.013-.016Zm.013-.484.433-.008c.013 0 .02.008.02.023v.046c0 .016-.004.023-.017.023l-.434.008c-.012 0-.02-.008-.02-.023v-.046c0-.015.005-.023.018-.023Zm.416.48h.06c.019 0 .026.008.029.024a.685.685 0 0 0-.018.158c0 .14.026.269.066.386 0 .008-.005.013-.015.016l-.097.007-.01-.02a4.642 4.642 0 0 1-.038-.545c0-.015.007-.025.025-.025h-.002Zm.19-.508.807-.013c.013 0 .02.008.02.023v.046c0 .015-.005.023-.018.023l-.806.013c-.012 0-.02-.008-.02-.023v-.046c0-.015.005-.023.018-.023Zm.011.629.793-.013c.018 0 .028.005.028.015l.01.604s-.007.018-.025.018h-.066c-.018 0-.026-.005-.028-.018v-.056l-.607.01v.056s-.008.018-.026.018h-.066c-.018 0-.026-.005-.028-.018l-.01-.596c0-.015.007-.025.025-.025v.005Zm.059-.443.665-.01c.018 0 .029.005.029.016l.005.312s-.008.017-.026.017l-.666.01c-.017 0-.025-.004-.028-.017l-.005-.312s.008-.018.026-.018v.002Zm.038.676.247-.006v-.14l-.25.005v.14h.003Zm.005.24.248-.005v-.149l-.25.006v.148h.002Zm.536-.67v-.164l-.482.008v.164l.482-.008Zm-.176.281v.14l.242-.004v-.14l-.242.004Zm.005.381.24-.005v-.148l-.243.005v.148h.003ZM15.535 22.137l-.025.01c-.04.028-.092.056-.15.087-.01.008-.024.013-.034.018l.067.246.308-.085c.013-.002.02 0 .026.018l.012.044c.006.015 0 .023-.012.028l-.291.079c.048.051.092.09.13.118a.934.934 0 0 0 .23.117c.01 0 .017.005.017.01 0 .003 0 .008-.007.016a.399.399 0 0 1-.036.056c-.005.01-.01.015-.015.015h-.03a.876.876 0 0 1-.266-.176l.168.624s-.005.018-.023.023l-.063.018c-.018.005-.029 0-.031-.008l-.156-.583-.01.033a1.084 1.084 0 0 1-.196.358.062.062 0 0 1-.03 0 .48.48 0 0 0-.077-.03c-.005-.005-.008-.01-.008-.013a.992.992 0 0 0 .191-.31 1.98 1.98 0 0 0 .066-.227l-.349.095c-.013.002-.02 0-.025-.018l-.013-.044c-.005-.015 0-.023.013-.028l.36-.097-.062-.228-.053.023a1.89 1.89 0 0 1-.205.067.038.038 0 0 1-.04-.01 2.753 2.753 0 0 0-.064-.044c-.003-.01 0-.018.015-.02l.097-.026c.077-.02.143-.043.199-.066a.847.847 0 0 0 .148-.067.507.507 0 0 0 .145-.102c.013-.003.023-.003.028 0 .077.03.115.05.118.061.002.01 0 .018-.016.02h-.048l-.003-.002Zm.258.01c.082-.023.125-.028.128-.015.002.013 0 .02-.01.025-.01.006-.013.016-.008.031l.188.709s-.005.017-.02.023l-.064.017c-.018.005-.028 0-.03-.01l-.204-.757s.005-.018.02-.023Zm.293-.243.143-.023c.015 0 .026.003.026.006.002.01-.005.017-.02.02-.021.015-.026.04-.016.082l.275 1.025c.02.074-.03.128-.15.159l-.115.03s-.015-.005-.02-.023a.245.245 0 0 0-.051-.058c-.003-.01 0-.018.008-.02.053-.003.099-.011.14-.021.048-.013.066-.036.058-.07l-.267-1a.562.562 0 0 0-.02-.066c-.006-.01-.011-.02-.011-.028s.005-.015.023-.02l-.003.007ZM17.306 21.337c.074-.044.112-.06.117-.049.008.01.005.02-.005.028-.008.008-.008.018 0 .034l.056.1.283-.164s.02-.003.028.01l.023.038c.008.013.005.023-.005.03l-.689.397s-.02.003-.028-.01l-.023-.041c-.007-.013-.005-.023.006-.028l.3-.174-.081-.143s0-.02.015-.028h.003Zm-.018.358c.048.028.092.056.127.084a.586.586 0 0 1 .1.082c0 .002-.026.03-.084.082a.744.744 0 0 0-.196-.156c-.006-.008.012-.039.053-.092Zm-.036.363.753-.435s.02-.003.025.01l.023.039c.008.012.005.023-.005.028l-.752.434s-.02.003-.029-.01l-.023-.038s-.005-.023.008-.028Zm.192.122.556-.322c.015-.01.025-.007.03 0l.245.425s0 .02-.013.03l-.058.034c-.016.007-.026.007-.031-.003l-.033-.059-.396.228.034.059s0 .02-.013.028l-.059.033c-.015.008-.025.008-.033-.002l-.242-.42c-.008-.013-.003-.023.012-.033v.002Zm.255.254.395-.228-.128-.22-.395.228.128.22Zm-.034-.97.105-.02c.018-.002.028 0 .033.008.003.005 0 .012-.005.02-.01.005-.013.016-.01.026a.792.792 0 0 1 .008.215c0 .012 0 .02-.006.023-.007.005-.017.005-.03.005a.482.482 0 0 0-.07.012h-.014v-.01a.777.777 0 0 0-.013-.255c-.003-.01 0-.018.002-.02v-.003Zm.299-.337.576 1.005s0 .02-.015.03l-.059.034c-.015.01-.025.008-.033 0l-.612-1.064s0-.018.015-.028l.406-.233a.09.09 0 0 1 .04-.015c.034 0 .054.005.057.01v.496c.002.005.01.01.02.013a.64.64 0 0 1 .214.087c.072.044.125.1.161.164a.255.255 0 0 1 .036.133c0 .046-.018.09-.051.125a.335.335 0 0 1-.12.1c-.026.015-.04.015-.051 0a.222.222 0 0 0-.064-.054c-.005-.01-.002-.018.008-.026l.074-.03c.046-.026.071-.057.079-.092.008-.031 0-.062-.015-.095a.394.394 0 0 0-.13-.13.83.83 0 0 0-.256-.1c-.012 0-.017-.003-.023-.008 0-.005-.005-.013-.005-.023l.016-.455-.276.159.008-.003Z" fill="#53575A"/><path d="M21.83 12.972c0 4.925-3.981 8.917-8.894 8.917s-8.894-3.992-8.894-8.917 3.981-8.916 8.894-8.916 8.895 3.991 8.895 8.916Z" fill="#54C0E8"/><path d="M16.974 7.758c-.41-.01-.821-.028-1.224-.012-.118.028-.235.046-.342.082-.538.168-.776.383-.964.915-.171.944.178 2.074.426 3.015.17.337.275.58.696.683.112-.01.18-.02.201-.029.222-.258.235-.57.171-.874-.071-.228-.132-.45-.196-.675-.22-.56-.51-1.15-.638-1.713 0-.261.005-.21.184-.39.457-.199 1.071-.11 1.604-.209.159-.069.368-.166.457-.327.112-.312-.166-.41-.378-.466h.003ZM11.197 8.577c-.059-.074-.115-.159-.171-.233-.225-.222-.482-.337-.727-.45a.967.967 0 0 1-.16-.049 6.537 6.537 0 0 0-1.932-.17c-.087.201.051.503.171.684.286.248.59.251.985.294.451.018 1.035-.066 1.232.484.03.64-.248 1.248-.447 1.856-.125.506-.354 1.095.309 1.322.217-.018.258-.007.426-.156.21-.396.26-.828.34-1.268.066-.496.091-.977.109-1.455a10.076 10.076 0 0 0-.023-.504 6.638 6.638 0 0 1-.115-.36l.003.005ZM17.395 6.452c-.255-.207-.574-.261-.86-.297-.428.015-.895.064-.954.563.02.268.005.276.268.432.176.03.363.061.572.082.36-.031.721-.003 1.017-.276.13-.195.07-.356-.04-.504h-.003ZM8.529 7.014c.275.064.517.092.836.095.232-.013.46-.008.676-.171.242-.366-.145-.57-.416-.683-.538-.11-1.385-.322-1.512.42.04.242.176.247.418.337l-.002.002ZM13.11 5.894V5.79c.005-.292.001-.804-.01-1.537-.02-.11-.2-.072-.256-.039l-.022.044c.018.784.027 1.313.025 1.588-.413-.018-1.135-.108-1.39.299-.082.245-.049.212-.288.307v.033c.058.015.158.015.25.02l-.179.113-.008.026c.064.015.161-.01.248.02.38.22.732.064 1.168-.036l.207.005c.005.335.005.658.012.985l-.112.087c-.34.123-.61.227-.862.486-.196.365-.115.65.178.946l.024.007v.018c.15.082.303.172.494.21.1.015.202.023.304.028.01.202-.005.399.015.632-.701.146-1.222.373-.972 1.202l.136.26c.163.195.341.302.579.427.112.008.201.098.285.113.008.227.018.422.016.568a1.033 1.033 0 0 0 .258-.005c-.006-.06-.003-.576.025-.63.247-.097.492-.145.737-.294a.838.838 0 0 0 .245-.555l-.07.026a1.515 1.515 0 0 1-.315.348c-.12.04-.516.21-.615.12-.01-.386-.054-.795-.038-1.16.357-.075.635-.118.862-.451.211-.458.015-.739-.373-.936-.168-.038-.395-.082-.56-.12-.019-.302-.024-.575-.034-.862.092-.043.314-.105.553-.194.375-.182.587-.345.692-.767a1.83 1.83 0 0 0-.01-.36c-.161-.502-.773-.755-1.207-.868h.008Zm-.995.389-.14.061c-.062-.074-.072-.074-.148-.074l-.044.136a1.201 1.201 0 0 1-.148.028c-.12-.056-.086-.092-.035-.159.183-.104.296-.115.515-.05v.058Zm.747 2.65-.107-.021a4.189 4.189 0 0 1-.293-.08c-.061-.044-.1-.065-.115-.063V8.75l-.018-.008c-.173-.332.092-.437.347-.552l.184-.046c.013.168.007.232 0 .79l.002-.003Zm.056 2.682-.096-.016c-.373-.105-.71-.427-.577-.816.135-.212.4-.283.648-.311.018.634.04.682.028 1.143h-.003Zm.625-2.028c.056.107.054.225-.046.32-.127.068-.214.086-.329.114l-.028-.012c-.012-.202 0-.417 0-.606.15.005.289.035.406.184h-.003Zm-.023-2.345.008.018c-.16.12-.28.179-.444.248a10.746 10.746 0 0 1-.008-.86c.202-.012.498.126.551.3.006.092-.005.235-.11.296l.003-.002Z" fill="#002E6D"/><path d="M13.604 17a.536.536 0 1 0-1.072-.002.536.536 0 0 0 1.072.002Zm2.056-1.33a.052.052 0 0 0 .005-.071c-.017-.02-.048-.029-.07-.013a3.89 3.89 0 0 0-.412.32 8.41 8.41 0 0 0-.877-1.647 8.692 8.692 0 0 0-1.097-1.31c.214-.248.444-.493.691-.733a.052.052 0 0 0 .005-.072.059.059 0 0 0-.07-.013c-.006.005-.343.22-.804.647a5.915 5.915 0 0 0-.804-.647.053.053 0 0 0-.071.013.052.052 0 0 0 .005.072c.247.24.477.485.691.733-.34.335-.727.77-1.094 1.31-.296.434-.602.969-.857 1.6a3.143 3.143 0 0 0-.357-.273.053.053 0 0 0-.072.013.052.052 0 0 0 .005.071c.125.12.243.246.352.368-.472 1.243-.747 2.841-.438 4.787.005.028.03.049.058.044a.052.052 0 0 0 .046-.056c-.002-.031-.145-1.987.689-4.34 1.591 2.128 1.418 4.534 1.416 4.56 0 .027.017.053.046.058.027.005.053-.015.058-.046.306-1.92-.298-3.304-.86-4.124a5.626 5.626 0 0 0-.568-.704c.377-.997.936-2.053 1.752-3.058a11.026 11.026 0 0 1 1.773 3.112 5.443 5.443 0 0 0-.518.65c-.561.82-1.163 2.204-.857 4.124.005.028.03.049.059.046.028-.002.048-.028.046-.059 0-.028-.174-2.385 1.367-4.495.808 2.324.668 4.245.665 4.276 0 .028.018.053.046.056a.054.054 0 0 0 .06-.044c.305-1.918.04-3.498-.42-4.73.126-.144.26-.287.404-.425h.007Zm-5.037-1.31a.838.838 0 0 0-.837-.838.838.838 0 0 0 0 1.678.838.838 0 0 0 .837-.84ZM5.735 12.13a.053.053 0 0 0-.071.012.052.052 0 0 0 .005.072c3.765 3.641 3.408 8.55 3.403 8.6 0 .028.018.053.046.056a.054.054 0 0 0 .058-.044c.488-3.06-.474-5.26-1.367-6.569-.967-1.417-2.066-2.12-2.076-2.127h.002ZM17.12 14.36a.832.832 0 0 0-.244-.593.838.838 0 1 0-.592 1.432.838.838 0 0 0 .836-.84Zm3.286-2.22a.058.058 0 0 0-.072-.012c-.01.007-1.11.71-2.076 2.127-.893 1.307-1.854 3.508-1.367 6.57.005.027.03.048.059.043a.052.052 0 0 0 .045-.056c-.005-.05-.362-4.961 3.403-8.6a.052.052 0 0 0 .005-.072h.003Z" fill="#FFC629"/><path d="M25.494 21.764v-4.122h.895l1.066 2.917.214.611c.054-.15.133-.373.24-.66l1.077-2.866h.8v4.122h-.573v-3.46l-1.312 3.46h-.535l-1.304-3.523v3.523h-.574l.006-.002ZM30.74 18.222v-.58h.551v.58h-.55Zm0 3.542v-2.99h.551v2.99h-.55ZM32.212 21.764v-2.99h.5v.422c.12-.163.265-.286.439-.368.173-.082.37-.123.594-.123.174 0 .334.026.482.077.148.051.268.12.358.202a.77.77 0 0 1 .203.325c.047.133.067.337.067.614v1.838h-.551v-1.82c0-.22-.026-.381-.074-.484a.522.522 0 0 0-.235-.235.764.764 0 0 0-.367-.084c-.265 0-.474.074-.63.222-.156.148-.235.404-.235.765v1.634h-.55v.005ZM35.78 18.222v-.58h.552v.58h-.551Zm0 3.542v-2.99h.552v2.99h-.551ZM37.04 20.874l.552-.074c.033.21.12.365.265.468.145.102.337.153.574.153.237 0 .424-.046.554-.135.13-.09.196-.205.196-.343 0-.12-.056-.212-.168-.279-.077-.046-.266-.102-.561-.169-.43-.1-.717-.184-.86-.253a.834.834 0 0 1-.337-.279.686.686 0 0 1-.12-.396c0-.256.11-.463.327-.621.217-.159.518-.24.903-.24.242 0 .454.033.637.1a.98.98 0 0 1 .421.265c.097.11.166.269.202.476l-.538.074c-.051-.332-.286-.501-.707-.501-.24 0-.418.035-.533.107-.117.072-.176.164-.176.276 0 .113.056.197.168.261.067.038.268.097.6.18.456.109.752.196.887.26a.75.75 0 0 1 .314.266.71.71 0 0 1 .112.399c0 .286-.12.519-.362.695-.24.177-.569.266-.987.266-.78 0-1.235-.32-1.36-.959l-.002.003ZM41.699 21.309l.074.447c-.154.03-.289.046-.411.046-.192 0-.347-.028-.464-.087a.484.484 0 0 1-.243-.235c-.043-.1-.066-.297-.066-.593v-1.719h-.4v-.396h.4v-.736l.55-.305v1.04h.557v.397h-.556v1.747c0 .16.015.266.048.312.049.066.136.102.266.102.06 0 .142-.008.242-.023l.003.003ZM42.295 21.764v-2.99h.5v.45c.128-.21.245-.35.35-.416a.64.64 0 0 1 .357-.103c.184 0 .372.054.566.162l-.189.47a.868.868 0 0 0-.4-.11.589.589 0 0 0-.321.092.505.505 0 0 0-.207.258 1.828 1.828 0 0 0-.105.617v1.565h-.55v.005ZM44.443 22.914l-.056-.478c.123.03.227.046.314.046a.667.667 0 0 0 .288-.053.47.47 0 0 0 .189-.167c.018-.025.09-.194.217-.5l-1.232-2.988h.594l.678 1.721c.085.215.164.445.235.688.061-.23.138-.457.225-.677l.693-1.732h.554l-1.235 3.04c-.163.395-.29.658-.382.791a.84.84 0 0 1-.32.286.89.89 0 0 1-.402.087c-.105 0-.225-.02-.355-.064h-.005ZM49.297 20.27c0-.516.143-.905.431-1.168.288-.264.653-.394 1.095-.394.44 0 .795.13 1.086.394.291.263.436.642.436 1.138 0 .537-.142.936-.43 1.199-.286.263-.651.394-1.095.394-.444 0-.798-.133-1.09-.397-.29-.263-.435-.652-.435-1.168l.002.002Zm.569 0c0 .389.094.678.28.867.187.19.419.284.694.284.258 0 .48-.095.666-.286.186-.192.278-.479.278-.865s-.094-.675-.28-.864a.936.936 0 0 0-.694-.284.896.896 0 0 0-.669.287c-.183.189-.275.478-.275.861ZM53.228 21.764V19.17h-.487v-.396h.487v-.318c0-.232.033-.409.097-.524a.616.616 0 0 1 .298-.268c.133-.062.301-.092.505-.092.158 0 .33.017.518.05l-.081.443a2.108 2.108 0 0 0-.324-.028c-.164 0-.284.033-.352.097-.072.064-.108.187-.108.366v.273h.638v.397h-.638v2.593h-.553ZM56.794 21.764v-4.122h.597v1.69h2.334v-1.69h.597v4.122h-.597V19.82H57.39v1.944h-.597ZM63.553 20.805l.57.064c-.095.32-.266.56-.514.72-.247.165-.556.244-.92.244-.462 0-.834-.133-1.12-.397-.286-.263-.429-.644-.429-1.143 0-.498.143-.91.431-1.181.289-.271.653-.407 1.095-.407.441 0 .773.133 1.053.402.28.268.424.655.424 1.16v.136h-2.436c.023.338.125.591.31.762a.95.95 0 0 0 .674.256c.413 0 .702-.204.865-.616h-.003Zm-1.813-.816h1.819c-.026-.26-.1-.458-.222-.585a.892.892 0 0 0-.676-.282.92.92 0 0 0-.633.236.899.899 0 0 0-.288.634v-.003ZM67.02 21.395a2.18 2.18 0 0 1-.577.328c-.199.074-.405.11-.62.11-.339 0-.61-.077-.81-.23a.743.743 0 0 1-.304-.624c0-.174.048-.328.143-.46a.936.936 0 0 1 .39-.313c.166-.074.413-.13.747-.166.45-.048.778-.105.987-.171v-.13c.003-.208-.045-.35-.142-.435-.138-.12-.347-.182-.63-.182-.255 0-.447.041-.574.12-.128.08-.22.233-.28.453l-.552-.074c.077-.32.235-.55.47-.696.234-.146.573-.217 1.012-.217.342 0 .61.049.804.146.194.097.316.217.367.358.05.14.076.35.076.624v.675c0 .473.013.772.036.895.023.122.072.243.143.358h-.574a.975.975 0 0 1-.115-.369h.003Zm-.043-1.132c-.202.074-.503.138-.904.189-.232.03-.395.064-.487.102a.482.482 0 0 0-.214.164.407.407 0 0 0-.076.245c0 .143.058.259.175.343.118.087.281.128.488.128.206 0 .377-.039.538-.115a.836.836 0 0 0 .362-.31c.08-.128.12-.317.12-.562v-.187l-.002.003ZM68.45 21.764v-4.122h.552v4.122h-.551ZM71.165 21.309l.074.447c-.153.03-.288.046-.41.046-.192 0-.348-.028-.465-.087a.484.484 0 0 1-.242-.235c-.044-.1-.067-.297-.067-.593v-1.719h-.4v-.396h.4v-.736l.551-.305v1.04h.556v.397h-.556v1.747c0 .16.016.266.049.312.048.066.135.102.265.102.061 0 .143-.008.242-.023l.003.003ZM71.762 21.764v-4.122h.55v1.475c.13-.138.276-.24.44-.31.163-.068.344-.102.54-.102.347 0 .62.082.822.251.201.166.3.47.3.913v1.895h-.55v-1.895c0-.258-.062-.445-.184-.558-.123-.112-.29-.168-.505-.168a.903.903 0 0 0-.612.217c-.169.143-.253.402-.253.77v1.636h-.55l.002-.002ZM79.276 21.395a2.178 2.178 0 0 1-.576.328 1.76 1.76 0 0 1-.62.11c-.34 0-.61-.077-.811-.23a.743.743 0 0 1-.304-.624c0-.174.049-.328.143-.46a.935.935 0 0 1 .39-.313c.166-.074.414-.13.748-.166.449-.048.778-.105.987-.171v-.13c.002-.208-.046-.35-.143-.435-.138-.12-.347-.182-.63-.182-.255 0-.446.041-.574.12-.127.08-.22.233-.28.453l-.551-.074c.076-.32.234-.55.469-.696.235-.146.574-.217 1.013-.217.341 0 .61.049.803.146.194.097.316.217.367.358.051.143.077.35.077.624v.675c0 .473.013.772.036.895.023.122.071.243.143.358h-.575a.977.977 0 0 1-.114-.369h.002Zm-.043-1.132c-.202.074-.502.138-.903.189-.232.03-.395.064-.487.102a.483.483 0 0 0-.215.164.407.407 0 0 0-.076.245c0 .143.059.259.176.343.117.087.28.128.487.128.207 0 .378-.039.538-.115a.836.836 0 0 0 .363-.31c.079-.128.12-.317.12-.562v-.187l-.003.003ZM80.725 21.764v-2.99h.5v.422c.12-.163.265-.286.439-.368.173-.082.37-.123.594-.123.174 0 .334.026.482.077.148.051.268.12.357.202a.77.77 0 0 1 .204.325c.046.133.067.337.067.614v1.838h-.551v-1.82c0-.22-.026-.381-.074-.484a.523.523 0 0 0-.235-.235.77.77 0 0 0-.367-.084c-.266 0-.475.074-.63.222-.156.148-.235.404-.235.765v1.634h-.55v.005ZM86.403 21.764v-.374a.983.983 0 0 1-.385.33 1.179 1.179 0 0 1-.508.113c-.385 0-.717-.136-.997-.41-.28-.273-.421-.657-.421-1.153 0-.34.061-.629.186-.864.125-.238.291-.412.5-.527.207-.115.439-.171.694-.171.181 0 .35.036.505.107.156.072.283.172.388.3v-1.47h.556v4.121h-.515l-.003-.002Zm-1.742-1.491c0 .389.09.675.268.864a.827.827 0 0 0 1.232.01c.17-.181.257-.452.257-.818 0-.42-.086-.726-.257-.92a.834.834 0 0 0-.65-.29.77.77 0 0 0-.598.28c-.165.186-.25.478-.25.874h-.002ZM90.553 21.764l-1.186-4.122h.607l.684 2.703c.071.276.135.557.191.843l.202-.762.86-2.782h.713l.643 2.087c.158.509.273.994.352 1.46.056-.269.13-.568.222-.898l.707-2.649h.6l-1.236 4.122h-.573l-.95-3.14-.142-.483c-.043.179-.087.34-.13.483l-.954 3.14h-.607l-.003-.002ZM97.808 20.805l.568.064c-.094.32-.265.56-.512.72-.248.165-.554.244-.921.244-.462 0-.834-.133-1.12-.397-.286-.263-.428-.644-.428-1.143 0-.498.142-.91.43-1.181.289-.271.654-.407 1.095-.407.441 0 .773.133 1.053.402.28.268.424.655.424 1.16v.136H95.96c.023.338.125.591.311.762a.95.95 0 0 0 .673.256c.414 0 .702-.204.863-.616Zm-1.814-.816h1.819c-.026-.26-.1-.458-.222-.585a.893.893 0 0 0-.679-.282.92.92 0 0 0-.632.236.898.898 0 0 0-.289.634l.003-.003ZM99.134 21.764v-4.122h.55v4.122h-.55ZM100.779 21.764V19.17h-.487v-.396h.487v-.318c0-.232.033-.409.097-.524a.617.617 0 0 1 .298-.268c.133-.062.301-.092.505-.092.159 0 .33.017.518.05l-.081.443a2.111 2.111 0 0 0-.324-.028c-.164 0-.283.033-.352.097-.072.064-.107.187-.107.366v.273h.637v.397h-.637v2.593h-.554ZM104.567 21.395a2.187 2.187 0 0 1-.577.328c-.198.074-.405.11-.619.11-.34 0-.61-.077-.811-.23a.742.742 0 0 1-.304-.624c0-.174.048-.328.143-.46a.931.931 0 0 1 .39-.313c.166-.074.413-.13.747-.166.449-.048.778-.105.988-.171v-.13c.002-.208-.046-.35-.143-.435-.138-.12-.347-.182-.63-.182-.255 0-.447.041-.574.12-.128.08-.22.233-.281.453l-.551-.074c.077-.32.235-.55.47-.696.234-.146.574-.217 1.012-.217.342 0 .61.049.804.146.194.097.316.217.367.358.051.143.077.35.077.624v.675c0 .473.012.772.035.895.023.122.072.243.143.358h-.574a.991.991 0 0 1-.115-.369h.003Zm-.043-1.132c-.202.074-.503.138-.903.189-.232.03-.396.064-.488.102a.486.486 0 0 0-.214.164.407.407 0 0 0-.076.245.4.4 0 0 0 .176.343c.117.087.28.128.487.128.206 0 .377-.039.538-.115a.83.83 0 0 0 .362-.31c.079-.128.12-.317.12-.562v-.187l-.002.003ZM106.016 21.764v-2.99h.5v.45c.127-.21.245-.35.349-.416a.642.642 0 0 1 .357-.103c.184 0 .373.054.567.162l-.189.47a.868.868 0 0 0-.401-.11.589.589 0 0 0-.321.092.507.507 0 0 0-.207.258 1.85 1.85 0 0 0-.104.617v1.565h-.551v.005ZM110.408 20.805l.569.064c-.094.32-.265.56-.513.72-.247.165-.553.244-.92.244-.462 0-.835-.133-1.12-.397-.286-.263-.429-.644-.429-1.143 0-.498.143-.91.431-1.181.289-.271.653-.407 1.095-.407.441 0 .772.133 1.056.402.28.268.423.655.423 1.16v.136h-2.436c.023.338.125.591.311.762a.95.95 0 0 0 .674.256c.413 0 .701-.204.864-.616h-.005Zm-1.813-.816h1.818c-.025-.26-.099-.458-.222-.585a.896.896 0 0 0-.678-.282.917.917 0 0 0-.633.236.9.9 0 0 0-.288.634l.003-.003ZM30.424 6.674c.605.264.906.417.906.463 0 .059-.026.087-.08.087-.111.013-.193.049-.236.105-.227.42-.455.772-.682 1.061v4.73c0 .085-.06.126-.18.126H29.7c-.09 0-.135-.04-.135-.125V9.2c-.197.179-.454.39-.77.636a.373.373 0 0 1-.228-.087c-.1-.071-.209-.145-.329-.222-.053-.033-.079-.072-.079-.115.265-.205.528-.427.794-.665.346-.302.647-.644.905-1.023.224-.327.398-.654.52-.974.008-.051.023-.077.046-.077Zm-.043-2.396c.604.264.905.42.905.463 0 .059-.025.087-.079.087-.114.013-.194.051-.237.115-.316.476-.63.836-.941 1.082-.166.153-.457.37-.872.647a.315.315 0 0 1-.215-.077 3.187 3.187 0 0 0-.339-.233c-.054-.033-.08-.066-.08-.107.22-.154.44-.312.659-.473.278-.218.52-.463.724-.734.19-.238.332-.47.431-.696.008-.05.023-.076.046-.076l-.002.002Zm4.216 6.608v.77h1.36c.061 0 .09.038.09.117v.312c0 .105-.031.156-.09.156h-1.36v.887c0 .085-.056.126-.168.126h-.462c-.089 0-.135-.041-.135-.126v-.887h-2.946c-.061 0-.09-.051-.09-.156v-.312c0-.077.031-.117.09-.117h.77v-1.238c0-.072.046-.107.136-.107h2.038v-.55c0-.051.045-.077.135-.077.54 0 .813.038.813.115 0 .084-.03.128-.091.136-.062.005-.092.064-.092.173v.202h1.178c.07 0 .102.036.102.108v.322c0 .097-.033.146-.102.146h-1.178.002Zm-2.9-5.761h1.201c.062-.259.113-.527.159-.81.023-.052.069-.078.135-.078l.622.136c.1.02.148.066.148.146 0 .09-.048.135-.148.135a.192.192 0 0 0-.125.125 7.56 7.56 0 0 0-.056.348h1.597c.12 0 .181.039.181.115v1.315h.362c.07 0 .102.038.102.117v.322c0 .072-.033.108-.102.108h-4.351c-.062 0-.092-.036-.092-.108v-.322c0-.076.03-.117.092-.117H32.6c.061-.269.125-.565.194-.885h-1.1c-.06 0-.089-.038-.089-.118v-.312c0-.076.03-.117.09-.117h.002Zm.227 2.587h3.444c.12 0 .18.041.18.126v1.54c0 .084-.06.124-.18.124h-3.444c-.12 0-.181-.04-.181-.125v-1.54c0-.084.061-.125.181-.125Zm.498 3.174v.77h1.408v-.77h-1.408ZM34.78 8.95v-.68h-2.273v.68h2.273Zm-1.462-2.393h1.327v-.885h-1.123c-.069.32-.135.616-.204.885Zm2.824.516h2.852c.092 0 .135.049.135.146v.312c0 .105-.046.156-.135.156h-.816v4.943c0 .463-.437.695-1.312.695h-.362c-.046 0-.069-.058-.069-.174a1.248 1.248 0 0 0-.158-.483v-.038c.189.05.37.076.544.076.392 0 .589-.112.589-.337V7.687h-1.27c-.092 0-.136-.051-.136-.156v-.312c0-.097.046-.146.136-.146h.002Zm.446-2.081h2.084c.092 0 .136.048.136.145v.312c0 .105-.046.156-.136.156H36.59c-.091 0-.135-.05-.135-.156v-.312c0-.097.046-.145.135-.145ZM47.922 4.526l.827.24c.084.052.125.098.125.136 0 .085-.046.136-.135.154-.092 0-.148.046-.171.135-.135.412-.258.757-.362 1.033h2.752V4.478c0-.077.061-.115.18-.115.575 0 .86.038.86.115 0 .09-.038.14-.112.153-.076.005-.112.072-.112.195v1.398h3.806c.092 0 .135.036.135.108v.388c0 .105-.046.156-.135.156h-3.806v2.2h3.262c.09 0 .136.048.136.145v.322c0 .098-.046.146-.136.146h-3.262v2.629h4.352c.092 0 .135.04.135.125v.384c0 .097-.046.143-.135.143h-10.06c-.092 0-.136-.049-.136-.143v-.384c0-.084.046-.125.136-.125h4.894V9.689h-3.535c-.092 0-.135-.048-.135-.146v-.322c0-.097.046-.146.135-.146h3.535V6.876h-3.048c-.158.315-.324.614-.5.898a5.419 5.419 0 0 1-.668.8.797.797 0 0 1-.26-.038 5.68 5.68 0 0 0-.475-.154c-.053-.025-.079-.048-.079-.066 0-.046.016-.077.046-.097.378-.353.71-.788.998-1.304.173-.3.324-.614.454-.952a9.23 9.23 0 0 0 .408-1.352c.023-.06.053-.087.092-.087l-.006.002ZM63.783 8.027l.826.164c.085.033.125.071.125.115 0 .076-.033.12-.102.125-.112.038-.186.148-.214.327 0 1.18-.033 1.992-.102 2.442-.084.433-.17.816-.26 1.149 0 .058-.046.086-.135.086-.454-.122-.679-.202-.679-.24.174-.522.283-.946.33-1.273.068-.624.109-1.558.124-2.8 0-.064.03-.098.09-.098l-.003.003Zm-.406-1.355h3.987c.092 0 .135.05.135.153v.307c0 .102-.045.153-.135.153H65.87v5.833c0 .085-.06.125-.18.125h-.455c-.12 0-.18-.04-.18-.125V7.285h-1.677c-.091 0-.135-.05-.135-.153v-.307c0-.102.046-.153.135-.153Zm.541-1.928h2.946c.092 0 .135.05.135.153v.307c0 .11-.045.164-.135.164h-2.946c-.09 0-.135-.054-.135-.164v-.307c0-.102.046-.153.135-.153Zm2.765 3.319h.408c.12 0 .181.053.181.163a4.401 4.401 0 0 0-.135 1.072c0 .954.135 1.83.408 2.636 0 .046-.038.077-.115.097-.392.034-.612.049-.658.049l-.068-.146a32.869 32.869 0 0 1-.204-3.708c0-.11.06-.163.18-.163h.003Zm1.357.846h5.395c.12 0 .181.039.181.115v4.094c0 .085-.061.125-.181.125h-.454c-.12 0-.181-.04-.181-.125v-.386h-4.127v.386c0 .085-.061.125-.181.125h-.454c-.12 0-.181-.04-.181-.125V9.07c0-.11.06-.163.18-.163l.003.002Zm0-4.283h5.484c.092 0 .135.051.135.153v.307c0 .103-.045.154-.135.154H68.04c-.092 0-.135-.051-.135-.154V4.78c0-.102.046-.153.135-.153Zm.454 1.276h4.53c.12 0 .181.038.181.115v2.115c0 .082-.06.125-.18.125h-4.53c-.12 0-.182-.04-.182-.125V6.017c0-.077.061-.115.181-.115Zm.179 4.593h1.678V9.53h-1.678v.964Zm0 1.626h1.678v-1.003h-1.678v1.003Zm3.719-4.488v-1.12h-3.263v1.12h3.263Zm-1.225 1.898v.964h1.63V9.53h-1.63Zm0 2.587h1.63v-1.002h-1.63v1.002ZM85.811 4.987c-.046 0-.11.01-.194.028-.316.11-.698.21-1.145.299a1.77 1.77 0 0 1-.25.059V7.1h2.176c.09 0 .135.051.135.154v.307c0 .102-.046.153-.135.153h-2.05c.234.42.448.754.645 1.005.257.34.69.734 1.303 1.179.069.025.102.059.102.097 0 .025-.025.054-.079.087-.084.09-.197.19-.34.299-.045.051-.086.077-.124.077a.605.605 0 0 1-.204-.06 6.279 6.279 0 0 1-1.429-1.623v4.393c0 .072-.061.108-.18.108h-.455c-.12 0-.181-.036-.181-.108V9.075c-.046.072-.087.136-.125.192-.265.386-.551.75-.862 1.092a7.824 7.824 0 0 1-1.054.908.314.314 0 0 1-.204-.059 4.906 4.906 0 0 0-.44-.338.25.25 0 0 1-.034-.097c.332-.212.607-.416.826-.616a6.99 6.99 0 0 0 .975-1.061c.204-.276.482-.737.839-1.381h-2.459c-.092 0-.135-.051-.135-.153v-.307c0-.103.046-.154.135-.154h2.538V5.508c-.135.02-.268.036-.395.049-.536.05-1.023.077-1.462.077-.128 0-.212-.047-.25-.136a17.98 17.98 0 0 0-.34-.407c0-.071.047-.104.136-.104h.681c.543 0 1.015-.029 1.416-.087a6.171 6.171 0 0 0 1.076-.174c.416-.09.768-.215 1.054-.376a.243.243 0 0 1 .079-.028c.092 0 .155.015.194.048.446.328.668.535.668.62 0 .07-.046.104-.135.104l-.317-.105v-.002Zm1.674.529c.574 0 .862.038.862.115 0 .09-.038.143-.112.153-.074.008-.113.072-.113.195v4.981c0 .077-.06.115-.18.115h-.455c-.12 0-.18-.038-.18-.115V5.63c0-.076.06-.114.18-.114h-.002Zm2.354-1.082.99.108c.104.038.158.066.158.087 0 .071-.056.104-.171.104-.166.06-.25.228-.25.512v7.221c0 .522-.424.783-1.273.783h-.816c-.061 0-.092-.064-.092-.195a1.649 1.649 0 0 0-.227-.473c0-.077.03-.115.09-.115.354.077.673.115.95.115.332 0 .498-.115.498-.348v-7.03c0-.211-.007-.372-.023-.482a1.187 1.187 0 0 1-.023-.202c0-.06.061-.087.181-.087l.008.002ZM98.136 8.308h5.903c.084 0 .125.049.125.146v.312c0 .105-.041.156-.125.156h-5.903c-.089 0-.135-.051-.135-.156v-.312c0-.097.046-.146.135-.146Zm2.76-4.068c.574 0 .863.038.863.115 0 .09-.039.138-.113.146-.074.012-.112.079-.112.202v.772h2.222c.089 0 .135.051.135.153v.307c0 .103-.046.154-.135.154h-5.392c-.085 0-.125-.051-.125-.154v-.307c0-.102.04-.153.124-.153h2.357v-1.12c0-.077.062-.115.182-.115h-.006Zm-2.038 5.449h4.357c.12 0 .181.038.181.115v3.317c0 .084-.061.125-.181.125h-.454c-.112 0-.171-.04-.171-.125v-.463h-3.097v.463c0 .084-.06.125-.18.125h-.455c-.12 0-.18-.04-.18-.125V9.842c0-.102.06-.153.18-.153Zm.73-3.4c.196.334.352.644.464.927.128.25.23.522.306.81 0 .027-.257.093-.77.203a3.623 3.623 0 0 0-.194-.675 5.489 5.489 0 0 0-.441-.908c0-.059.212-.176.635-.358Zm-.094 5.755h3.096v-1.731h-3.097v1.731Zm3.096-5.822.681.232c.112.039.171.09.171.154 0 .046-.033.076-.102.097-.076 0-.125.038-.148.115-.227.56-.454.992-.681 1.294-.046.077-.084.115-.112.115a.416.416 0 0 1-.194-.067 8.377 8.377 0 0 0-.441-.163c-.062-.018-.092-.036-.092-.049 0-.02.01-.04.033-.066.204-.276.36-.522.464-.734.151-.271.26-.54.329-.81.023-.077.054-.116.092-.116v-.002Zm2.903-.97v7.879c0 .084-.064.125-.191.125h-.452c-.12 0-.181-.04-.181-.125V4.785c0-.077.061-.118.181-.118h3.171c.135 0 .234.02.293.059.196.122.296.212.296.263l-1.62 2.772a.482.482 0 0 0-.046.153c0 .046.026.098.079.154.386.34.709.754.975 1.235.265.501.395 1.005.395 1.506 0 .34-.079.64-.237.898a1.28 1.28 0 0 1-.725.56c-.204.115-.55.174-1.043.174-.196 0-.296-.06-.296-.174-.046-.238-.112-.415-.204-.53 0-.076.046-.115.135-.115l.544.077c.362 0 .62-.09.77-.271.151-.154.227-.36.227-.619 0-.36-.107-.762-.316-1.207-.265-.496-.653-.98-1.168-1.447-.069-.039-.102-.082-.102-.126 0-.03.015-.084.045-.153l1.633-2.626h-2.163v.002Z" fill="#656464"/></svg>