<svg width="47" height="60" viewBox="0 0 47 60" fill="none" xmlns="http://www.w3.org/2000/svg">
<g id="Layer_1" clip-path="url(#clip0_1477_88)">
<path id="Vector" d="M40.1778 43.036L39.8747 41.9047C39.8203 41.7019 39.9117 41.3475 40.1073 41.0024C40.1159 40.9872 40.1235 40.9707 40.1312 40.955C40.1371 40.9435 40.1439 40.9326 40.1498 40.9211C40.1547 40.9114 40.1587 40.9012 40.1629 40.8917C40.1634 40.8908 40.1638 40.8892 40.165 40.8882C41.5601 37.9184 41.7159 34.2217 40.5909 30.7406C40.5895 30.7356 40.5868 30.731 40.5855 30.7261C40.5841 30.7211 40.583 30.7168 40.5817 30.7119L36.0189 17.66C36.0178 17.6558 36.0153 17.6519 36.0141 17.6477C36.013 17.6434 36.0118 17.6391 36.0105 17.6342C35.6473 16.6612 34.9399 15.8671 34.0196 15.3983C33.1061 14.9324 32.0638 14.8262 31.0799 15.1028C30.2299 15.3404 29.4897 15.8482 28.9583 16.5485C28.1129 15.8955 27.0769 15.587 26.0243 15.6798C24.8548 15.7833 23.8467 16.3606 23.1633 17.2142C22.839 16.9476 22.4728 16.7287 22.0727 16.5676C20.6627 15.9997 19.0689 16.2512 17.9087 17.2242L15.6463 8.78061C15.6463 8.78061 15.6463 8.78061 15.6461 8.7799C15.264 7.34827 14.1554 6.21848 12.7519 5.83133C11.3475 5.44366 9.84025 5.84754 8.81788 6.88545C7.79602 7.92246 7.40083 9.45519 7.78574 10.8861C7.78574 10.8861 7.78574 10.8861 7.78593 10.8868L12.1111 27.0285C11.5704 27.0966 11.0351 27.2043 10.4965 27.3532C10.4951 27.3536 10.4944 27.3537 10.493 27.3541C10.4889 27.3552 10.4847 27.3564 10.4812 27.3573C9.14716 27.7292 8.03815 28.6672 7.43806 29.9294C6.84266 31.1813 6.81474 32.6521 7.35987 33.9633C8.52676 36.7711 10.1868 39.2971 12.2945 41.4719C14.3918 43.6359 16.8394 45.3564 19.5692 46.5854C19.79 46.6973 19.9734 46.9378 20.0479 47.2158L20.351 48.347C19.8735 48.8885 19.6757 49.6553 19.8826 50.4277L21.1858 55.291C21.5408 56.6159 22.8908 57.4096 24.1949 57.0601L41.2448 52.4916C42.5287 52.1476 43.2842 50.7897 42.9292 49.4648L41.6261 44.6015C41.4192 43.8292 40.8637 43.2642 40.1802 43.0338L40.1778 43.036Z" fill="white"/>
<path id="Vector_2" d="M40.1778 43.036L39.8747 41.9047C39.8203 41.7019 39.9117 41.3475 40.1073 41.0024C40.1159 40.9872 40.1235 40.9707 40.1312 40.955C40.1371 40.9435 40.1439 40.9326 40.1498 40.9211C40.1547 40.9114 40.1587 40.9012 40.1629 40.8917C40.1634 40.8908 40.1638 40.8892 40.165 40.8882C41.5601 37.9184 41.7159 34.2217 40.5909 30.7406C40.5895 30.7356 40.5868 30.731 40.5855 30.7261C40.5841 30.7211 40.583 30.7168 40.5817 30.7119L36.0189 17.66C36.0178 17.6558 36.0153 17.6519 36.0141 17.6477C36.013 17.6434 36.0118 17.6391 36.0105 17.6342C35.6473 16.6612 34.9399 15.8671 34.0196 15.3983C33.1061 14.9324 32.0638 14.8262 31.0799 15.1028C30.2299 15.3404 29.4897 15.8482 28.9583 16.5485C28.1129 15.8955 27.0769 15.587 26.0243 15.6798C24.8548 15.7833 23.8467 16.3606 23.1633 17.2142C22.839 16.9476 22.4728 16.7287 22.0727 16.5676C20.6627 15.9997 19.0689 16.2512 17.9087 17.2242L15.6463 8.78061C15.6463 8.78061 15.6463 8.78061 15.6461 8.7799C15.264 7.34827 14.1554 6.21848 12.7519 5.83133C11.3475 5.44366 9.84025 5.84754 8.81788 6.88545C7.79602 7.92246 7.40083 9.45519 7.78574 10.8861C7.78574 10.8861 7.78574 10.8861 7.78593 10.8868L12.1111 27.0285C11.5704 27.0966 11.0351 27.2043 10.4965 27.3532C10.4951 27.3536 10.4944 27.3537 10.493 27.3541C10.4889 27.3552 10.4847 27.3564 10.4812 27.3573C9.14716 27.7292 8.03815 28.6672 7.43806 29.9294C6.84266 31.1813 6.81474 32.6521 7.35987 33.9633C8.52676 36.7711 10.1868 39.2971 12.2945 41.4719C14.3918 43.6359 16.8394 45.3564 19.5692 46.5854C19.79 46.6973 19.9734 46.9378 20.0479 47.2158L20.351 48.347C19.8735 48.8885 19.6757 49.6553 19.8826 50.4277L21.1858 55.291C21.5408 56.6159 22.8908 57.4096 24.1949 57.0601L41.2448 52.4916C42.5287 52.1476 43.2842 50.7897 42.9292 49.4648L41.6261 44.6015C41.4192 43.8292 40.8637 43.2642 40.1802 43.0338L40.1778 43.036ZM23.5575 54.6479C23.5575 54.6479 23.5549 54.6463 23.554 54.6458L22.3162 50.0265L39.3124 45.4724L40.5509 50.0945L23.5575 54.6479ZM9.62422 33.0115C9.35324 32.3604 9.36437 31.6368 9.65441 31.0269C9.94916 30.4067 10.4939 29.9461 11.1499 29.7635C11.6873 29.6134 12.2211 29.5167 12.7645 29.4699L13.2438 31.2586C13.2472 31.2714 13.2484 31.284 13.2481 31.297C13.244 31.4076 13.2119 31.5614 13.0832 31.6673C12.5579 32.1 12.4815 32.8844 12.9117 33.4206C13.2292 33.8152 13.7333 33.9652 14.1864 33.8438C14.3484 33.8004 14.504 33.7222 14.6426 33.6083C15.2856 33.0787 15.6728 32.2786 15.7058 31.4131C15.716 31.1466 15.6859 30.881 15.617 30.6235L10.1582 10.2511C10.1582 10.2511 10.1582 10.2511 10.158 10.2504C10.158 10.2504 10.158 10.2504 10.1578 10.2497C10.0038 9.67754 10.1588 9.06662 10.5642 8.65546C10.9689 8.24448 11.5665 8.08435 12.1224 8.23793C12.6784 8.39151 13.1188 8.84285 13.2715 9.4154C13.2715 9.4154 13.2715 9.4154 13.2717 9.41611C13.2717 9.41611 13.2717 9.41611 13.2719 9.41682L16.4796 21.3882C16.4815 21.3953 16.4841 21.4022 16.4869 21.4098C16.4928 21.4318 16.5001 21.4534 16.5081 21.4748C16.5144 21.4929 16.5207 21.5109 16.5278 21.5288C16.5364 21.5501 16.5456 21.5704 16.5548 21.5908C16.5633 21.6083 16.571 21.6259 16.5799 21.6426C16.5896 21.662 16.6005 21.6804 16.6115 21.6987C16.6213 21.7159 16.6311 21.733 16.6423 21.7497C16.6536 21.7665 16.6655 21.7831 16.6767 21.7998C16.6886 21.8164 16.7005 21.833 16.7132 21.8494C16.7254 21.8643 16.7383 21.8791 16.7513 21.8939C16.7651 21.9092 16.7791 21.9252 16.793 21.9405C16.8064 21.9544 16.8204 21.9673 16.8343 21.9803C16.8493 21.9945 16.8644 22.0088 16.8799 22.0221C16.8946 22.0349 16.9097 22.0468 16.9256 22.0585C16.9416 22.0709 16.9577 22.0833 16.9742 22.0949C16.9908 22.1064 17.0072 22.1172 17.0242 22.1278C17.0406 22.1387 17.0575 22.1486 17.0744 22.1585C17.0921 22.1689 17.1102 22.1778 17.1292 22.1871C17.1464 22.1955 17.1629 22.204 17.1801 22.2123C17.1995 22.2207 17.2188 22.2285 17.2381 22.2362C17.2556 22.243 17.2724 22.2499 17.2905 22.2557C17.3102 22.2625 17.3304 22.2678 17.3507 22.2737C17.3692 22.2787 17.387 22.2838 17.4054 22.288C17.4253 22.2925 17.4457 22.2962 17.4662 22.2998C17.4857 22.3029 17.5047 22.307 17.5241 22.3094C17.5434 22.3118 17.5633 22.3133 17.5832 22.3148C17.6037 22.3162 17.6245 22.3182 17.6455 22.3186C17.6643 22.3189 17.6838 22.319 17.7031 22.3184C17.7247 22.318 17.7469 22.3173 17.7688 22.3152C17.7879 22.3139 17.8067 22.3112 17.8263 22.309C17.848 22.3062 17.8704 22.3032 17.8919 22.2998C17.8989 22.2979 17.9064 22.2981 17.9143 22.2968C17.9271 22.2941 17.9394 22.2901 17.952 22.2867C17.9653 22.2831 17.9784 22.2819 17.9917 22.2783C17.9993 22.2763 18.0068 22.2735 18.0143 22.2708C18.0346 22.2653 18.0537 22.2587 18.0736 22.2518C18.0935 22.245 18.114 22.238 18.1328 22.2299C18.1504 22.2229 18.1683 22.2143 18.1857 22.2066C18.2057 22.1974 18.2257 22.1883 18.2453 22.1777C18.2611 22.1697 18.2758 22.1604 18.2907 22.1518C18.3109 22.1404 18.3308 22.1282 18.3505 22.1153C18.3639 22.1064 18.3763 22.097 18.3895 22.0874C18.4095 22.0729 18.4289 22.0586 18.4472 22.043C18.4587 22.0331 18.4696 22.0233 18.4811 22.0134C18.4999 21.997 18.518 21.9807 18.5357 21.9631C18.5464 21.9526 18.5562 21.9416 18.5666 21.9304C18.5835 21.9123 18.5996 21.8942 18.6148 21.8757C18.6251 21.8638 18.6343 21.8507 18.6437 21.8383C18.6581 21.8193 18.6719 21.8011 18.6854 21.7816C18.6951 21.7676 18.7039 21.753 18.7128 21.7385C18.7241 21.7195 18.7362 21.7003 18.7467 21.6808C18.7551 21.6648 18.7634 21.6482 18.7716 21.6315C18.7807 21.6123 18.79 21.5939 18.7982 21.5742C18.8061 21.5561 18.8125 21.5384 18.8195 21.5198C18.8265 21.5012 18.8333 21.4819 18.8401 21.4626C18.8462 21.4435 18.8516 21.4246 18.8568 21.4049C18.862 21.3853 18.8674 21.3664 18.8711 21.3464C18.8756 21.3269 18.8785 21.3072 18.8821 21.2872C18.8858 21.2672 18.8885 21.2467 18.8912 21.2262C18.8935 21.2066 18.895 21.1872 18.8964 21.1671C18.898 21.1453 18.8992 21.1245 18.8994 21.1031C18.8996 21.0841 18.8988 21.0645 18.8989 21.0455C18.8981 21.0229 18.8975 21.001 18.896 20.9786C18.8945 20.9593 18.8917 20.9403 18.8896 20.9211C18.8866 20.899 18.8835 20.8763 18.8797 20.8538C18.8778 20.8467 18.878 20.839 18.8767 20.831C18.7553 20.2273 18.9929 19.5699 19.4814 19.1562C19.9548 18.7558 20.6069 18.651 21.1839 18.8833C21.761 19.1156 22.1674 19.6467 22.2469 20.27C22.2481 20.2773 22.25 20.2844 22.2505 20.2919C22.2536 20.3146 22.2581 20.337 22.2626 20.3593C22.2661 20.3782 22.2704 20.3968 22.2746 20.4154C22.2805 20.4374 22.2864 20.4594 22.2928 20.4805C22.2978 20.4989 22.3041 20.517 22.3104 20.535C22.3173 20.5552 22.3256 20.5751 22.3339 20.5949C22.3419 20.6133 22.3489 20.6312 22.3575 20.6494C22.3661 20.6676 22.3755 20.6856 22.3848 20.7036C22.3941 20.7217 22.4041 20.7395 22.4141 20.7574C22.424 20.7745 22.435 20.7905 22.4453 20.8068C22.4568 20.8242 22.4682 20.8417 22.4808 20.8581C22.4923 20.8732 22.5039 20.8884 22.5161 20.9033C22.5294 20.9195 22.5421 20.9359 22.5559 20.9512C22.5686 20.9653 22.5821 20.9792 22.5955 20.9931C22.6099 21.0075 22.6244 21.0226 22.6392 21.0361C22.6541 21.0496 22.6687 21.0624 22.6841 21.075C22.6994 21.0876 22.7141 21.1004 22.7299 21.1121C22.746 21.1245 22.7625 21.1361 22.7798 21.1474C22.7955 21.1584 22.8111 21.1694 22.8273 21.1795C22.8453 21.1907 22.863 21.2011 22.8813 21.2107C22.898 21.2199 22.914 21.2293 22.9312 21.2376C22.9501 21.247 22.9689 21.2556 22.9882 21.2634C23.0059 21.2708 23.0229 21.2784 23.0406 21.2858C23.0597 21.2929 23.0795 21.2997 23.0991 21.3059C23.118 21.3122 23.1367 21.3178 23.1555 21.3234C23.1749 21.3289 23.1939 21.3329 23.2138 21.3375C23.2338 21.342 23.2544 21.3464 23.2748 21.35C23.2937 21.3533 23.313 21.3557 23.3322 21.3574C23.3538 21.36 23.3754 21.3626 23.3974 21.3635C23.4164 21.3645 23.4361 21.3653 23.4555 21.3654C23.4773 21.3657 23.4991 21.3659 23.5213 21.3653C23.5287 21.3648 23.5364 21.3658 23.5438 21.3653C23.5578 21.3646 23.5706 21.362 23.5839 21.3614C23.597 21.3602 23.6099 21.3606 23.6228 21.3586C23.6323 21.3576 23.6415 21.3559 23.6515 21.354C23.663 21.3524 23.6737 21.3503 23.6846 21.3489C23.716 21.3435 23.7478 21.3365 23.7787 21.329C23.7892 21.3262 23.799 21.3236 23.8088 21.321C23.8402 21.3125 23.8705 21.3029 23.9005 21.2918C23.9141 21.2867 23.9273 21.2801 23.9408 21.2749C23.9631 21.2659 23.9859 21.256 24.0078 21.2456C24.0217 21.2388 24.0347 21.2315 24.0477 21.2242C24.068 21.2135 24.0889 21.2018 24.1088 21.1896C24.1223 21.1814 24.135 21.1727 24.1476 21.164C24.1666 21.1513 24.1857 21.1386 24.2036 21.1247C24.2161 21.1153 24.2283 21.1051 24.2406 21.095C24.2579 21.0813 24.2749 21.0668 24.2911 21.0518C24.3032 21.041 24.3151 21.0295 24.3262 21.0181C24.3415 21.0026 24.3568 20.9871 24.3714 20.9718C24.3831 20.9595 24.3939 20.9468 24.4047 20.934C24.4184 20.9181 24.4311 20.9011 24.4439 20.8847C24.4545 20.8712 24.4642 20.8572 24.4746 20.843C24.4866 20.8262 24.4976 20.8087 24.5085 20.7906C24.518 20.7759 24.5268 20.7614 24.5355 20.7462C24.5454 20.7275 24.5554 20.7089 24.5645 20.6897C24.5724 20.6747 24.5804 20.6596 24.5874 20.6441C24.5968 20.6233 24.6051 20.6013 24.6135 20.5793C24.6186 20.565 24.6246 20.5512 24.6298 20.5369C24.6415 20.5026 24.6522 20.4671 24.6606 20.4314C24.6609 20.4297 24.662 20.428 24.6623 20.4264C24.6715 20.3882 24.6784 20.3498 24.6843 20.3102C24.6858 20.2992 24.6864 20.2876 24.6873 20.2767C24.6909 20.2484 24.6937 20.2195 24.6948 20.1903C24.6956 20.1765 24.6955 20.162 24.6953 20.1476C24.6959 20.1216 24.6957 20.0958 24.6944 20.0688C24.6945 20.0635 24.6946 20.0581 24.6946 20.0528C24.6344 19.0769 25.3227 18.2471 26.262 18.1642C27.1596 18.0848 27.9865 18.7329 28.1642 19.6279C28.1735 19.6961 28.1844 19.7646 28.1973 19.8326C28.1992 19.8397 28.2011 19.8468 28.2032 19.8546C28.2079 19.8777 28.214 19.9004 28.2199 19.9223C28.2248 19.9408 28.2296 19.9585 28.2343 19.9763C28.2409 19.9981 28.2489 20.0195 28.2569 20.0409C28.2639 20.0588 28.2701 20.0761 28.2778 20.0938C28.2861 20.1136 28.2958 20.1331 28.3055 20.1525C28.3139 20.17 28.3224 20.1875 28.3322 20.2047C28.3422 20.2225 28.3529 20.2402 28.3635 20.2571C28.3742 20.2748 28.3847 20.2917 28.3959 20.3085C28.407 20.3245 28.4187 20.3404 28.4302 20.3555C28.4429 20.3719 28.4557 20.389 28.4688 20.4045C28.481 20.4195 28.4938 20.4335 28.5065 20.4476C28.5204 20.4629 28.5349 20.478 28.5494 20.4931C28.5636 20.5068 28.5775 20.5198 28.5915 20.5328C28.6063 20.5463 28.6219 20.5596 28.6374 20.5729C28.6527 20.5855 28.6686 20.5973 28.6845 20.609C28.7003 20.6207 28.7162 20.6324 28.7326 20.6432C28.7498 20.6546 28.7669 20.6652 28.7846 20.6756C28.8008 20.6857 28.8175 20.6949 28.8342 20.7042C28.8525 20.7137 28.8714 20.7231 28.8902 20.7317C28.9074 20.74 28.9244 20.7476 28.9414 20.7552C28.9607 20.763 28.98 20.7708 28.9998 20.7776C29.018 20.7841 29.0355 20.7908 29.0542 20.7965C29.0738 20.8026 29.0932 20.8081 29.1132 20.8126C29.1324 20.8173 29.1516 20.8221 29.1708 20.8268C29.1899 20.8308 29.2094 20.8339 29.2297 20.8369C29.2499 20.8398 29.271 20.8433 29.2918 20.8453C29.3109 20.847 29.3299 20.848 29.3489 20.849C29.3709 20.85 29.3928 20.8509 29.4146 20.8512C29.4334 20.8515 29.4525 20.8502 29.4718 20.8496C29.4938 20.8482 29.5161 20.8475 29.5385 20.8446C29.5466 20.8439 29.5541 20.8442 29.5613 20.843C29.5837 20.8401 29.6052 20.8366 29.6267 20.8331C29.6302 20.8322 29.6341 20.8327 29.6383 20.8315C29.6397 20.8312 29.6404 20.831 29.6418 20.8306C29.6717 20.8249 29.7014 20.8184 29.73 20.8108C29.7677 20.8007 29.8041 20.7886 29.8402 20.7752C29.8498 20.7718 29.859 20.7671 29.8683 20.763C29.8939 20.7524 29.9197 20.7424 29.9442 20.7306C29.9581 20.7238 29.9709 20.7158 29.9848 20.709C30.0044 20.6985 30.0235 20.6888 30.0421 20.677C30.0568 20.6677 30.0713 20.6577 30.0859 20.6477C30.1023 20.6365 30.1189 20.626 30.1345 20.6142C30.1495 20.6033 30.1628 20.5914 30.177 20.58C30.1918 20.5684 30.2065 20.5561 30.2205 20.544C30.2344 20.5319 30.2466 20.5188 30.2597 20.5062C30.2733 20.4926 30.2864 20.48 30.2992 20.4667C30.3114 20.4535 30.3227 20.4398 30.3347 20.426C30.3472 20.4112 30.3598 20.3965 30.3716 20.3819C30.3822 20.3684 30.3926 20.3542 30.4023 20.3402C30.4137 20.3242 30.4252 20.3083 30.4362 20.2909C30.4452 20.277 30.4541 20.2625 30.462 20.2475C30.4722 20.2295 30.4825 20.2123 30.4918 20.1939C30.499 20.179 30.5063 20.1641 30.5135 20.1493C30.5226 20.1301 30.5312 20.1119 30.5387 20.0924C30.545 20.077 30.5507 20.0618 30.5568 20.0457C30.5643 20.0262 30.5709 20.0062 30.5769 19.9864C30.5814 19.9699 30.5869 19.954 30.5908 19.9378C30.596 19.9181 30.601 19.8978 30.6048 19.8785C30.6085 19.8616 30.612 19.8439 30.6148 19.8264C30.6184 19.8065 30.6207 19.7869 30.6236 19.7671C30.6262 19.7489 30.6279 19.7302 30.629 19.7117C30.6305 19.6922 30.6313 19.673 30.632 19.6531C30.6328 19.6339 30.6329 19.6148 30.6329 19.5951C30.6328 19.5753 30.6312 19.5552 30.6304 19.5357C30.629 19.5163 30.6277 19.4976 30.6256 19.4784C30.6251 19.471 30.6246 19.4635 30.6241 19.456C30.6173 19.4001 30.6083 19.344 30.5987 19.2887C30.4893 18.4811 30.9725 17.7237 31.7549 17.505C32.5615 17.2813 33.4185 17.7152 33.7124 18.4963L38.2611 31.507C39.1885 34.3843 39.0725 37.4059 37.9447 39.8039C37.4364 40.7276 37.2794 41.6971 37.505 42.5389L37.7133 43.3163L22.6321 47.3573L22.4238 46.5799C22.1595 45.5934 21.508 44.7789 20.6369 44.3457C20.6291 44.3417 20.6217 44.3391 20.6141 44.3358C20.6065 44.3326 20.6001 44.3282 20.5925 44.3249C15.6306 42.1014 11.7368 38.0836 9.62911 33.0102L9.62422 33.0115Z" fill="#008088"/>
</g>
<defs>
<clipPath id="clip0_1477_88">
<rect width="33" height="53" fill="white" transform="translate(0.5 8.54102) rotate(-15)"/>
</clipPath>
</defs>
</svg>
