<svg width="206" height="111" fill="none" xmlns="http://www.w3.org/2000/svg"><rect x="2" y="1.5" width="202" height="78" rx="8.5" fill="#fff" stroke="#CADEDF" stroke-width="3"/><rect x="33" y="87.5" width="155" height="7" rx="3.5" fill="#fff" stroke="#CADEDF" stroke-width="3"/><rect x="9" y="102.5" width="59" height="7" rx="3.5" fill="#fff" stroke="#CADEDF" stroke-width="3"/><path d="M35.645 43.386h-1.382L31.5 62.718l8.29-4.143 7.599 3.37 7.599-3.37 8.29 4.143-2.764-19.332h-1.381" stroke="#CADEDF" stroke-width="2" stroke-linecap="round" stroke-linejoin="round"/><path d="M56.825 40.431c0 6.808-9.436 16.294-9.436 16.294s-9.45-9.445-9.437-16.294c0-5.206 4.228-9.431 9.437-9.431 5.208 0 9.436 4.225 9.436 9.431Z" stroke="#CADEDF" stroke-width="2" stroke-miterlimit="10"/><path d="M51.672 40.113c0 2.361-1.92 4.28-4.283 4.28a4.286 4.286 0 0 1-4.283-4.28c0-2.36 1.92-4.28 4.283-4.28a4.285 4.285 0 0 1 4.283 4.28Z" stroke="#CADEDF" stroke-width="2" stroke-miterlimit="10"/><path d="M101.742 41.371s-.094.111-.142.174c-.458.537-.237 1.326.079 2.194.979 2.73 3.695 5.444 6.127 6.738.805.426 1.673.489 2.194 0 .063-.048.111-.11.174-.158.521-.474 1.31-.836 2.037-.537.442.19.837.38 1.484.632.932.378 1.595 1.34 1.453 2.24-.174 1.042-.79 2.13-1.106 2.699-.363.663-1.421.868-2.526.536-8.874-2.667-12.947-8.08-15.395-15.701-.347-1.089-.19-2.146.458-2.54.553-.332 1.469-1.137 2.653-1.184.931-.032 1.768.363 2.321 1.404.237.426.363.916.568 1.357.316.726.458 1.008 0 1.545l-.379.601Z" stroke="#008088" stroke-width="2" stroke-miterlimit="10"/><path d="m95.41 61.754-8.904 2.54 2.542-8.9a18.011 18.011 0 0 1-2.542-9.247c0-10.02 8.131-18.147 18.157-18.147 10.027 0 18.158 8.127 18.158 18.147 0 10.02-8.131 18.147-18.158 18.147a18.04 18.04 0 0 1-9.252-2.54Z" stroke="#008088" stroke-width="2" stroke-linecap="round" stroke-linejoin="round"/><path d="M173.493 36v17.454a2.502 2.502 0 0 1-2.495 2.493h-22.454a2.502 2.502 0 0 1-2.495-2.493V36" stroke="#CADEDF" stroke-width="2" stroke-linecap="round" stroke-linejoin="round"/><path d="m173.493 36-12.25 10.148a2.49 2.49 0 0 1-2.931 0L146.062 36h27.444-.013ZM146.049 36h27.444" stroke="#CADEDF" stroke-width="2" stroke-linecap="round" stroke-linejoin="round"/><path d="M2 10a8.5 8.5 0 0 1 8.5-8.5h185A8.5 8.5 0 0 1 204 10v3.5H2V10Z" fill="#fff" stroke="#CADEDF" stroke-width="3"/></svg>