<svg width="130" height="130" fill="none" xmlns="http://www.w3.org/2000/svg"><circle cx="65" cy="65" r="63.5" fill="#fff" stroke="#CADEDF" stroke-width="3" stroke-dasharray="6 6"/><ellipse cx="65.5" cy="80.5" rx="9.5" ry="1.5" fill="#CADEDF"/><path d="M65 49c-7.18 0-13 5.655-13 12.63 0 5.42 7.846 14.083 11.347 17.678a2.32 2.32 0 0 0 3.306 0C70.154 75.713 78 67.05 78 61.631 78 54.655 72.18 49 65 49Zm0 15.662c-2.333 0-4.225-1.838-4.225-4.105 0-2.267 1.892-4.105 4.225-4.105 2.333 0 4.225 1.838 4.225 4.105 0 2.267-1.892 4.105-4.225 4.105Z" fill="#008088"/></svg>