<svg width="327" height="168" fill="none" xmlns="http://www.w3.org/2000/svg"><g clip-path="url(#a)"><path d="M18.112 165.308h283.684" stroke="#fff" stroke-width="3.483" stroke-miterlimit="10" stroke-linecap="round"/><path d="M265.342 165.308h-4.34M288.582 165.308h-13.201" stroke="#EC6C00" stroke-width="3.483" stroke-miterlimit="10" stroke-linecap="round"/><path d="M1.742 19.645V1.568H214.76v31.383h110.497v60.46h-22.932l-19.805 18.063 4.869-18.064h-18.07" stroke="#fff" stroke-width="3.483" stroke-miterlimit="10" stroke-linecap="round"/><path d="M26.45 1.568h-4.34M49.697 1.568H36.489" stroke="#EC6C00" stroke-width="3.483" stroke-miterlimit="10" stroke-linecap="round"/><path d="M19.06 148.701a.622.622 0 0 1-.467-.195.632.632 0 0 1-.195-.467c0-.446.125-.85.376-1.212l4.228-6.095c.307-.446.732-.669 1.29-.669.222 0 .41.084.577.244.16.16.244.355.244.578v6.367c0 .084.049.119.14.119h.968c.18 0 .341.062.466.195a.63.63 0 0 1 .195.466.621.621 0 0 1-.195.467.633.633 0 0 1-.466.195h-.969c-.09 0-.139.049-.139.139v1.47a.794.794 0 0 1-.244.578.792.792 0 0 1-.578.244.792.792 0 0 1-.578-.244.794.794 0 0 1-.244-.578v-1.47c0-.09-.049-.139-.14-.139h-4.277l.008.007Zm1.017-1.379s0 .014-.007.014c0 0-.007 0-.007.014s0 .014.014.014h3.26c.09 0 .14-.042.14-.119v-4.758s0-.014-.015-.014c-.02 0-.028 0-.028.014l-3.35 4.835h-.007ZM32.616 138.844a.69.69 0 0 1 .487.258c.119.153.167.32.14.515-.175 1.143-.39 2.153-.655 3.03a.938.938 0 0 0-.049.272v8.791a.733.733 0 0 1-.23.544.744.744 0 0 1-.543.23.733.733 0 0 1-.544-.23.772.772 0 0 1-.23-.544v-5.698s-.006-.014-.02-.014-.028 0-.035.014c-.028.063-.077.146-.126.258-.055.111-.09.181-.111.209a.346.346 0 0 1-.376.195.399.399 0 0 1-.349-.272l-.048-.118c-.181-.523-.14-1.045.139-1.561.808-1.546 1.386-3.288 1.728-5.217a.841.841 0 0 1 .292-.495.792.792 0 0 1 .537-.174l-.007.007Zm1.804 13.647a.733.733 0 0 1-.544-.23.744.744 0 0 1-.23-.544v-11.703c0-.23.084-.432.251-.606a.803.803 0 0 1 .6-.258h8.4c.23 0 .433.084.607.258a.827.827 0 0 1 .258.606v11.689a.77.77 0 0 1-.23.565.768.768 0 0 1-.565.23h-.243a.541.541 0 0 1-.397-.168.54.54 0 0 1-.168-.397c0-.048-.027-.076-.09-.076h-6.792c-.063 0-.09.028-.09.076a.54.54 0 0 1-.168.397.541.541 0 0 1-.397.168h-.21l.008-.007Zm.773-11.885v9.823c0 .09.049.139.14.139h6.701c.09 0 .14-.049.14-.139v-9.823c0-.083-.05-.118-.14-.118h-6.701c-.091 0-.14.042-.14.118Zm1.122 2.975a.601.601 0 0 1-.44-.181.6.6 0 0 1-.18-.439.6.6 0 0 1 .18-.439.601.601 0 0 1 .44-.181h1.47c.09 0 .139-.049.139-.139v-.655c0-.209.077-.39.223-.537a.738.738 0 0 1 .536-.223c.21 0 .39.077.537.223a.739.739 0 0 1 .223.537v.655c0 .09.048.139.139.139h1.47a.6.6 0 0 1 .439.181.6.6 0 0 1 .18.439.6.6 0 0 1-.18.439.6.6 0 0 1-.44.181h-1.47c-.09 0-.139.049-.139.139v1.289c0 .091.05.139.14.139h.745c.23 0 .432.084.606.258a.827.827 0 0 1 .258.606v2.863c0 .23-.084.432-.258.606a.829.829 0 0 1-.606.258h-3.274a.829.829 0 0 1-.606-.258.827.827 0 0 1-.258-.606v-2.863c0-.23.084-.432.258-.606a.829.829 0 0 1 .606-.258h.745c.091 0 .14-.048.14-.139v-1.289c0-.09-.049-.139-.14-.139H36.316Zm3.26 2.786h-1.79c-.091 0-.14.042-.14.14v1.867c0 .083.049.118.14.118h1.79c.083 0 .118-.042.118-.118v-1.867c0-.091-.041-.14-.118-.14ZM48.408 149.544a.813.813 0 0 1 .453-.32.767.767 0 0 1 .564.062c.174.091.286.23.335.411a.616.616 0 0 1-.077.516 19.51 19.51 0 0 1-1.24 1.727.783.783 0 0 1-.516.286.884.884 0 0 1-.592-.118.575.575 0 0 1-.278-.439.666.666 0 0 1 .146-.516c.474-.578.878-1.114 1.212-1.609h-.007Zm3.26-2.02c0 .23-.083.432-.258.606a.829.829 0 0 1-.605.258h-2.836a.803.803 0 0 1-.599-.258.848.848 0 0 1-.25-.606v-7.294c0-.23.083-.432.25-.606a.803.803 0 0 1 .6-.258h2.834c.23 0 .432.084.606.258a.827.827 0 0 1 .258.606v7.294Zm-1.518-4.5v-2.153c0-.091-.05-.139-.14-.139h-1.226c-.083 0-.118.048-.118.139v2.153c0 .09.042.139.118.139h1.226c.09 0 .14-.049.14-.139Zm0 3.908v-2.32c0-.091-.05-.139-.14-.139h-1.226c-.083 0-.118.048-.118.139v2.32c0 .083.042.118.118.118h1.226c.09 0 .14-.042.14-.118Zm1.135 4.744a27.08 27.08 0 0 0-.258-1.47.7.7 0 0 1 .112-.551.63.63 0 0 1 .48-.278.821.821 0 0 1 .6.146.838.838 0 0 1 .34.509c.105.487.196.982.273 1.483a.738.738 0 0 1-.154.572.725.725 0 0 1-.515.278.8.8 0 0 1-.578-.167.782.782 0 0 1-.307-.515l.007-.007Zm8.08-12.386c.245 0 .447.083.614.251a.793.793 0 0 1 .237.613c-.021 1.058-.098 1.853-.23 2.382-.133.522-.314.878-.55 1.045-.237.174-.593.258-1.066.258-.362 0-.878-.014-1.533-.049a.676.676 0 0 1-.46-.209.698.698 0 0 1-.202-.467.552.552 0 0 1 .168-.425.552.552 0 0 1 .424-.167c.307.021.648.028 1.031.028.321 0 .544-.105.655-.321.112-.215.174-.696.181-1.455 0-.084-.041-.119-.118-.119h-1.923c-.083 0-.132.042-.153.119a5.07 5.07 0 0 1-.947 2.006 5.787 5.787 0 0 1-1.77 1.525.053.053 0 0 0-.014.035c0 .014.007.021.028.021h5.218c.23 0 .432.084.606.258a.828.828 0 0 1 .258.606v2.591c0 .23-.084.432-.258.606a.825.825 0 0 1-.606.258H53.48a.825.825 0 0 1-.607-.258.828.828 0 0 1-.257-.606v-2.925a.47.47 0 0 0-.077-.23l-.195-.335a.725.725 0 0 1-.09-.606.806.806 0 0 1 .397-.487c1.142-.648 1.887-1.47 2.229-2.473.02-.084-.007-.119-.09-.119h-1.742a.684.684 0 0 1-.495-.195.635.635 0 0 1-.202-.488.68.68 0 0 1 .697-.682h6.339l-.021.014Zm-5.217 6.506v1.442c0 .091.042.139.14.139h3.803c.084 0 .118-.048.118-.139v-1.442c0-.09-.041-.139-.118-.139h-3.803c-.091 0-.14.049-.14.139Zm1.714 6.507a.86.86 0 0 1-.6-.098.9.9 0 0 1-.403-.46 31.528 31.528 0 0 0-.606-1.504.606.606 0 0 1 0-.537.6.6 0 0 1 .41-.341.926.926 0 0 1 .614.063c.195.09.341.236.432.438.097.23.313.753.634 1.561a.64.64 0 0 1-.035.543.672.672 0 0 1-.446.335Zm4.159-.655a.66.66 0 0 1-.328.439.77.77 0 0 1-.57.083.742.742 0 0 1-.482-.327 36.22 36.22 0 0 0-1.212-1.651.613.613 0 0 1-.125-.523.626.626 0 0 1 .292-.445c.182-.112.377-.147.579-.112a.78.78 0 0 1 .501.314 29.12 29.12 0 0 1 1.24 1.699.626.626 0 0 1 .098.53l.007-.007ZM64.402 151.46a.435.435 0 0 1-.341.32.445.445 0 0 1-.46-.139c-.362-.362-.48-.794-.348-1.289.341-1.337.516-3.246.516-5.747v-2.515c0-.23.083-.432.257-.606a.829.829 0 0 1 .606-.258h4.87c.23 0 .431.084.606.258a.828.828 0 0 1 .257.606v2.062c0 .16-.055.293-.167.404a.583.583 0 0 1-.41.16c-.05 0-.084.035-.105.105-.021.049-.056.146-.098.285-.048.14-.083.251-.111.321-.021.084 0 .118.076.118h.453c.14 0 .265.049.362.154a.517.517 0 0 1 .154.362.479.479 0 0 1-.154.362.477.477 0 0 1-.362.153h-.578c-.084 0-.118.042-.118.119v.467c0 .09.041.139.118.139h.425c.14 0 .265.049.362.146a.491.491 0 0 1 .153.355.48.48 0 0 1-.153.363.52.52 0 0 1-.362.153h-.425c-.084 0-.118.049-.118.139v.453c0 .084.041.118.118.118h.425c.14 0 .265.049.362.154a.517.517 0 0 1 .153.362.478.478 0 0 1-.153.362.516.516 0 0 1-.362.153h-.425c-.084 0-.118.042-.118.119v.467c0 .09.041.139.118.139h.425c.223 0 .39.091.502.272.041.069.083.083.139.027a.62.62 0 0 1 .153-.118c.787-.425 1.435-.878 1.944-1.351.02-.007.028-.028.014-.056-.007-.028-.028-.035-.05-.035h-.759a.829.829 0 0 1-.606-.258.827.827 0 0 1-.257-.606v-6.2c0-.23.083-.432.257-.599a.85.85 0 0 1 .606-.251h.788c.09 0 .146-.041.167-.118.049-.174.118-.439.195-.801.02-.091-.014-.139-.105-.139h-1.274a.622.622 0 0 1-.467-.195.633.633 0 0 1-.195-.467.62.62 0 0 1 .195-.467.633.633 0 0 1 .467-.195h5.155c.18 0 .334.063.46.195a.653.653 0 0 1 .188.467.643.643 0 0 1-.189.467.607.607 0 0 1-.46.195h-1.985c-.09 0-.14.034-.153.104-.007.063-.028.146-.056.258-.028.111-.049.209-.07.306-.02.098-.041.175-.062.258-.021.091.007.139.09.139h1.651a.85.85 0 0 1 .607.251.801.801 0 0 1 .257.599v6.2c0 .23-.083.432-.257.606a.829.829 0 0 1-.607.258h-1.121s-.028.007-.028.021c0 .014 0 .028.014.042.76.418 1.449.87 2.076 1.379.16.132.25.293.272.495a.717.717 0 0 1-.154.536.608.608 0 0 1-.445.258.7.7 0 0 1-.51-.14 25.074 25.074 0 0 0-1.622-1.107.77.77 0 0 1-.376-.516.781.781 0 0 1 .118-.62l.181-.243s.021-.042.007-.07c-.014-.028-.035-.035-.07-.035H73.02s-.035.014-.042.035a.119.119 0 0 0 0 .07l.18.195c.161.195.238.411.23.654a.786.786 0 0 1-.306.606 9.492 9.492 0 0 1-1.65 1.094.769.769 0 0 1-.586.063.797.797 0 0 1-.48-.348.054.054 0 0 1-.014-.028c-.042-.07-.091-.084-.154-.049-.132.09-.25.139-.362.139h-2.85c-.062 0-.09.028-.09.091a.574.574 0 0 1-.592.592h-.167a.738.738 0 0 1-.536-.223.735.735 0 0 1-.223-.536v-3.107c0-.091-.035-.154-.105-.181l-.167-.077s-.063-.007-.09.007c-.029.014-.05.035-.05.07-.118 1.093-.313 2.048-.578 2.863h.014Zm-.397-10.979a.581.581 0 0 1-.439-.188.64.64 0 0 1-.18-.446c0-.167.062-.32.18-.439a.6.6 0 0 1 .44-.181h5.837c.174 0 .32.063.446.181a.581.581 0 0 1 .188.439c0 .174-.063.32-.188.446a.618.618 0 0 1-.446.188h-5.838Zm1.122 5.002c0 .578 0 .996-.014 1.261.007.007.028.007.049 0a19.96 19.96 0 0 0 .745-1.909c.021-.07-.007-.105-.09-.105h-.544c-.09 0-.14.042-.14.119v.634h-.006Zm.23-2.912v.801c0 .09.049.139.14.139h3.26c.09 0 .139-.049.139-.139v-.801c0-.084-.05-.119-.14-.119h-3.26c-.09 0-.14.042-.14.119Zm2.654 4.591v-.467c0-.084-.049-.119-.14-.119h-1.03c-.084 0-.119.042-.119.119v.467c0 .09.042.139.119.139h1.03c.091 0 .14-.049.14-.139Zm0 1.741v-.453c0-.09-.049-.139-.14-.139h-1.03c-.084 0-.119.049-.119.139v.453c0 .084.042.118.119.118h1.03c.091 0 .14-.041.14-.118Zm0 1.742v-.467c0-.084-.049-.119-.14-.119h-1.03c-.084 0-.119.042-.119.119v.467c0 .09.042.139.119.139h1.03c.091 0 .14-.049.14-.139Zm.348-5.803c.021-.084-.007-.119-.09-.119h-.892c-.09 0-.153.042-.181.119-.084.264-.14.453-.181.578-.021.084.007.118.09.118h.864c.09 0 .153-.041.181-.118.09-.209.16-.404.21-.578Zm4.047-1.895v.773c0 .084.05.119.14.119h2.73c.091 0 .14-.042.14-.119v-.773c0-.091-.049-.139-.14-.139h-2.73c-.09 0-.14.048-.14.139Zm0 2.166v.788c0 .09.05.139.14.139h2.73c.091 0 .14-.049.14-.139v-.788c0-.09-.049-.139-.14-.139h-2.73c-.09 0-.14.049-.14.139Zm.14 3.156h2.73c.091 0 .14-.042.14-.118v-.85c0-.084-.049-.119-.14-.119h-2.73c-.09 0-.14.042-.14.119v.85c0 .083.05.118.14.118ZM80.564 140.969a.685.685 0 0 1-.501-.209.707.707 0 0 1-.21-.516c0-.202.07-.369.21-.508a.675.675 0 0 1 .501-.202h3.414c.202 0 .376.069.515.209.14.139.209.306.209.501 0 .202-.07.376-.209.516a.705.705 0 0 1-.515.209h-.746c-.09 0-.14.048-.14.139v2.877c0 .091.05.139.14.139h.683c.202 0 .369.063.501.195a.68.68 0 0 1 .195.502.676.676 0 0 1-.195.501.676.676 0 0 1-.501.196h-.683c-.09 0-.14.048-.14.139v3.135c0 .083.05.111.14.09.335-.097.634-.195.892-.285a.6.6 0 0 1 .487.062c.154.091.23.223.244.397.021.195-.02.37-.125.537a.87.87 0 0 1-.446.355c-1.08.376-2.292.738-3.636 1.094a.603.603 0 0 1-.509-.084.582.582 0 0 1-.265-.446.761.761 0 0 1 .147-.536.813.813 0 0 1 .473-.328c.105-.02.251-.062.453-.118.202-.063.355-.098.453-.118.084-.021.118-.07.118-.154v-3.594c0-.091-.048-.14-.139-.14h-.683a.674.674 0 0 1-.501-.195.675.675 0 0 1-.195-.501c0-.202.063-.369.195-.502a.678.678 0 0 1 .501-.195h.683c.09 0 .14-.049.14-.139v-2.877c0-.091-.05-.139-.14-.139h-.822l.007-.007Zm12.658 7.732c.209.021.39.112.53.272.138.16.208.348.194.564-.049.857-.125 1.463-.237 1.804-.104.342-.271.571-.494.676-.223.104-.62.167-1.199.188-.07 0-.18 0-.327.014-.146.007-.258.014-.341.014-.16 0-.376-.007-.634-.028-.627-.007-1.024-.084-1.191-.209-.168-.132-.251-.432-.251-.892v-2.939c0-.091-.042-.14-.119-.14h-.578c-.083 0-.132.049-.153.14-.272 1.978-1.588 3.343-3.957 4.096a.762.762 0 0 1-.592-.035.833.833 0 0 1-.411-.446.638.638 0 0 1 .02-.529.66.66 0 0 1 .419-.349c1.707-.557 2.696-1.463 2.974-2.73.021-.091-.013-.14-.104-.14h-.773a.802.802 0 0 1-.6-.257.852.852 0 0 1-.25-.607v-7.063c0-.23.083-.432.25-.606a.803.803 0 0 1 .6-.258h6.276c.23 0 .432.084.606.258a.827.827 0 0 1 .258.606v7.063a.83.83 0 0 1-.258.607.828.828 0 0 1-.606.257H91c-.09 0-.139.049-.139.14v2.18c0 .223.021.362.056.418.035.056.111.091.237.098h.773c.153-.007.258-.042.313-.091.056-.049.098-.174.126-.362.028-.195.056-.53.076-1.017a.697.697 0 0 1 .244-.509.65.65 0 0 1 .53-.174l.007-.014Zm-6.52-7.976v.94c0 .091.048.14.139.14h4.59c.084 0 .119-.042.119-.14v-.94c0-.091-.042-.14-.119-.14h-4.59c-.091 0-.14.049-.14.14Zm0 2.424v.94c0 .091.048.14.139.14h4.59c.084 0 .119-.049.119-.14v-.94c0-.091-.042-.139-.119-.139h-4.59c-.091 0-.14.048-.14.139Zm.139 3.504h4.59c.084 0 .119-.049.119-.139v-.941c0-.09-.042-.139-.119-.139h-4.59c-.091 0-.14.049-.14.139v.941c0 .09.049.139.14.139ZM97.164 143.999a.607.607 0 0 1-.445-.188.619.619 0 0 1-.188-.446c0-.167.062-.32.188-.453a.599.599 0 0 1 .445-.195h.67c.083 0 .118-.042.118-.118v-2.682c0-.223.076-.411.237-.558a.783.783 0 0 1 .57-.229c.224 0 .412.076.572.229.16.154.237.342.237.558v2.682c0 .083.042.118.118.118h.746c.174 0 .32.063.452.195a.623.623 0 0 1 .195.453c0 .167-.062.32-.195.446a.644.644 0 0 1-.452.188h-.746c-.083 0-.118.049-.118.139v4.472c0 .084.042.112.118.091.272-.084.578-.181.927-.306.083-.021.097-.063.048-.14a.509.509 0 0 1-.048-.439.599.599 0 0 1 .285-.362 11.123 11.123 0 0 0 1.756-1.275c.021-.021.028-.042.014-.062-.007-.021-.028-.028-.049-.028h-1.149a.58.58 0 0 1-.439-.188.638.638 0 0 1-.181-.446c0-.167.062-.321.181-.439a.599.599 0 0 1 .439-.181h8.366a.63.63 0 0 1 .446.181.58.58 0 0 1 .188.439c0 .174-.063.32-.188.446a.62.62 0 0 1-.446.188h-5.169a.267.267 0 0 0-.209.09c-.084.091-.209.23-.397.411-.021.007-.028.028-.014.063.007.028.028.049.049.049h5.141c.23 0 .432.083.599.251a.822.822 0 0 1 .251.599v.167c0 1.296-.07 2.285-.202 2.974-.14.69-.328 1.143-.578 1.366-.251.223-.593.334-1.038.334-.342 0-.753-.014-1.227-.049a.723.723 0 0 1-.487-.209.766.766 0 0 1-.23-.487.57.57 0 0 1 .174-.446.58.58 0 0 1 .446-.174c.404.021.669.028.787.028a.507.507 0 0 0 .425-.195c.098-.133.181-.418.251-.864.063-.446.097-1.094.097-1.944 0-.09-.041-.139-.118-.139h-.063c-.097 0-.167.035-.195.104a12.676 12.676 0 0 1-1.567 2.257 14.303 14.303 0 0 1-2.055 1.972.744.744 0 0 1-.53.153.81.81 0 0 1-.501-.244.55.55 0 0 1-.146-.453.653.653 0 0 1 .25-.424 12.49 12.49 0 0 0 3.065-3.275c.042-.062.014-.09-.076-.09h-.941c-.097 0-.174.028-.209.09a14.006 14.006 0 0 1-1.867 1.909 14.077 14.077 0 0 1-2.215 1.588.785.785 0 0 1-.529.084.727.727 0 0 1-.453-.279c-.105-.132-.139-.278-.105-.445a.52.52 0 0 1 .258-.37 13.248 13.248 0 0 0 3.184-2.487c.021-.02.028-.041.014-.062-.007-.021-.028-.028-.049-.028h-.954a.472.472 0 0 0-.244.077c-.335.229-.599.417-.801.543a.753.753 0 0 1-.307.09c-.083 0-.111.049-.09.14a.76.76 0 0 1-.091.48.756.756 0 0 1-.362.328 28.945 28.945 0 0 1-3.47 1.184.637.637 0 0 1-.501-.09.593.593 0 0 1-.272-.425.712.712 0 0 1 .119-.53.813.813 0 0 1 .453-.32c.083-.021.202-.049.362-.084.16-.035.279-.063.348-.083.07-.007.105-.063.105-.154v-4.925c0-.09-.042-.139-.119-.139h-.669v-.007Zm5.364-4.821h6.319c.23 0 .432.084.606.258a.828.828 0 0 1 .258.606v3.393a.83.83 0 0 1-.258.606.827.827 0 0 1-.606.257h-6.319a.804.804 0 0 1-.599-.257.85.85 0 0 1-.25-.606v-3.393c0-.23.083-.432.25-.606a.805.805 0 0 1 .599-.258Zm5.545 1.923v-.529c0-.091-.048-.14-.139-.14h-4.577c-.09 0-.139.049-.139.14v.529c0 .091.049.139.139.139h4.577c.091 0 .139-.048.139-.139Zm0 1.971v-.578c0-.09-.048-.139-.139-.139h-4.577c-.09 0-.139.049-.139.139v.578c0 .091.049.14.139.14h4.577c.091 0 .139-.049.139-.14ZM113.918 142.222a.685.685 0 0 1-.494-.202.678.678 0 0 1-.202-.508c0-.202.062-.369.195-.502a.677.677 0 0 1 .501-.195h1.818c.091 0 .14-.048.14-.139v-1.198c0-.223.076-.411.237-.564a.779.779 0 0 1 .571-.23c.223 0 .411.076.564.23.153.153.23.341.23.564v1.198c0 .091.049.139.139.139h1.895a.68.68 0 0 1 .502.195.68.68 0 0 1 .195.502.71.71 0 0 1-.202.508c-.14.14-.3.202-.495.202h-1.895c-.09 0-.139.042-.139.119v2.55c0 .09.049.139.139.139h1.198c.119 0 .209.007.272.028.084.021.119 0 .119-.077a1.41 1.41 0 0 1 .104-.362c.85-1.484 1.533-3.246 2.062-5.287a.833.833 0 0 1 .341-.488.866.866 0 0 1 .586-.153.674.674 0 0 1 .487.285.71.71 0 0 1 .119.565c-.084.313-.182.682-.307 1.107-.021.091.007.139.091.139h3.956a.682.682 0 0 1 .697.697c0 .202-.07.369-.202.502a.685.685 0 0 1-.495.195h-.104c-.091 0-.139.041-.139.118-.195 2.828-.795 4.96-1.805 6.381-.062.07-.062.146 0 .23.544.634 1.254 1.226 2.125 1.776a.723.723 0 0 1 .327.446.667.667 0 0 1-.083.537.68.68 0 0 1-.453.334.696.696 0 0 1-.564-.091c-.927-.585-1.714-1.226-2.348-1.908-.063-.063-.118-.063-.181 0-.787.71-1.832 1.372-3.135 1.985a.852.852 0 0 1-.599.049.909.909 0 0 1-.48-.362.926.926 0 0 1-.105-.272c0-.084-.049-.112-.139-.091a.712.712 0 0 1-.154.014h-3.378c-.084 0-.119.042-.119.119a.757.757 0 0 1-.229.55.754.754 0 0 1-.544.237.713.713 0 0 1-.543-.237.77.77 0 0 1-.23-.55v-5.566c0-.23.084-.432.258-.599a.845.845 0 0 1 .606-.251h1.121c.091 0 .14-.049.14-.139v-2.55c0-.084-.049-.119-.14-.119h-1.832Zm4.138 4.201h-2.619c-.091 0-.14.049-.14.139v3.261c0 .09.049.139.14.139h2.619c.091 0 .139-.049.139-.139v-3.261c0-.09-.041-.139-.139-.139Zm2.473-.864c-.16.293-.411.404-.745.335-.084-.021-.119.007-.119.09v4.549s.007.056.021.077c.014.021.035.028.056.014 1.205-.565 2.132-1.171 2.786-1.818.063-.063.07-.126.028-.196-.648-1.079-1.128-2.403-1.442-3.97-.007-.021-.028-.028-.049-.028-.02 0-.034.007-.048.028-.112.209-.279.522-.502.926l.014-.007Zm1.184-2.396c-.021.049 0 .077.063.077a.66.66 0 0 1 .509.146.71.71 0 0 1 .264.46c.223 1.344.565 2.494 1.017 3.455.042.063.084.063.119 0 .627-1.15 1.024-2.814 1.198-4.988 0-.091-.042-.139-.118-.139h-2.529c-.091 0-.153.042-.181.118-.14.383-.251.676-.335.864l-.007.007ZM130.595 148.276a.602.602 0 0 1-.439-.181.6.6 0 0 1-.181-.439c0-.174.063-.32.181-.439a.602.602 0 0 1 .439-.181h5.274c.083 0 .118-.042.118-.118v-.502c0-.09-.042-.139-.118-.139h-4.682a.587.587 0 0 1-.432-.181.587.587 0 0 1-.174-.425c0-.16.056-.307.174-.425a.583.583 0 0 1 .432-.181h4.682c.083 0 .118-.049.118-.14v-.348c0-.084-.042-.118-.118-.118h-3.867a.828.828 0 0 1-.606-.258.827.827 0 0 1-.257-.606v-1.303c0-.23.083-.432.257-.606a.828.828 0 0 1 .606-.258h3.867c.083 0 .118-.048.118-.139v-.348c0-.084-.042-.119-.118-.119h-5.128a.594.594 0 0 1-.438-.181.597.597 0 0 1-.181-.439c0-.174.062-.32.181-.446a.579.579 0 0 1 .438-.188h5.128c.083 0 .118-.041.118-.118 0-.223.084-.411.244-.578a.804.804 0 0 1 .592-.244h.091c.229 0 .431.084.592.244.16.16.243.355.243.578 0 .084.042.118.119.118h5.127c.174 0 .32.063.439.188a.642.642 0 0 1 .181.446.612.612 0 0 1-.181.439.598.598 0 0 1-.439.181h-5.127c-.084 0-.119.042-.119.119v.348c0 .091.042.139.119.139h3.866c.23 0 .432.084.606.258a.828.828 0 0 1 .258.606v1.303c0 .23-.084.432-.258.606a.828.828 0 0 1-.606.258h-3.866c-.084 0-.119.041-.119.118v.348c0 .091.042.14.119.14h4.047c.23 0 .432.083.606.257a.832.832 0 0 1 .258.607v.982c0 .083.042.118.119.118h.243a.6.6 0 0 1 .439.181.598.598 0 0 1 .181.439.597.597 0 0 1-.181.439.6.6 0 0 1-.439.181h-.243c-.084 0-.119.049-.119.139v1.805a.794.794 0 0 1-.23.571.747.747 0 0 1-.564.237h-.153a.607.607 0 0 1-.46-.195.656.656 0 0 1-.188-.467c0-.063-.035-.091-.105-.091h-3.211c-.084 0-.119.042-.119.119v.209c0 .829-.118 1.337-.355 1.532-.237.195-.864.286-1.888.286-.223 0-.752-.014-1.588-.049a.666.666 0 0 1-.46-.202.667.667 0 0 1-.202-.46.567.567 0 0 1 .174-.445.58.58 0 0 1 .446-.175c.69.028 1.171.049 1.456.049.342 0 .544-.021.592-.055.049-.035.077-.154.077-.356v-.334c0-.084-.042-.119-.118-.119h-4.703a.567.567 0 0 1-.418-.174.568.568 0 0 1-.174-.418c0-.16.056-.299.174-.418a.571.571 0 0 1 .418-.174h4.703c.083 0 .118-.049.118-.139v-.53c0-.09-.042-.139-.118-.139h-5.288Zm5.274-4.883c.083 0 .118-.042.118-.119v-.578c0-.09-.042-.139-.118-.139h-3.003c-.09 0-.139.049-.139.139v.578c0 .084.049.119.139.119h3.003Zm1.88-.697v.578c0 .084.042.119.119.119h3.002c.091 0 .14-.042.14-.119v-.578c0-.09-.049-.139-.14-.139h-3.002c-.084 0-.119.049-.119.139Zm0 3.713v.502c0 .083.042.118.119.118h3.183c.091 0 .14-.042.14-.118v-.502c0-.09-.049-.139-.14-.139h-3.183c-.084 0-.119.049-.119.139Zm0 1.999v.53c0 .09.042.139.119.139h3.183c.091 0 .14-.049.14-.139v-.53c0-.09-.049-.139-.14-.139h-3.183c-.084 0-.119.049-.119.139ZM148.164 152.79a.537.537 0 0 1-.46-.23.545.545 0 0 1-.097-.501l.634-2.383c.069-.243.208-.439.411-.599.202-.153.431-.237.682-.237h.397a.56.56 0 0 1 .481.251.534.534 0 0 1 .056.537l-1.045 2.459c-.202.466-.551.696-1.045.696l-.014.007ZM164.2 149.377a.562.562 0 0 1-.501.09.54.54 0 0 1-.377-.348.954.954 0 0 1-.007-.62c.07-.209.189-.383.37-.515 1.337-.927 2.424-2.014 3.274-3.247.042-.062.021-.09-.063-.09h-2.863a.582.582 0 0 1-.439-.188.642.642 0 0 1-.181-.446c0-.167.063-.321.181-.439a.602.602 0 0 1 .439-.181h3.608c.091 0 .154-.042.182-.119.118-.243.209-.425.257-.543.042-.084.014-.118-.076-.118h-3.003a.591.591 0 0 1-.425-.182.59.59 0 0 1 0-.849.591.591 0 0 1 .425-.182h3.456c.069 0 .125-.048.167-.139l.139-.453c.021-.083-.007-.118-.09-.118-1.436.042-2.557.063-3.365.063a.67.67 0 0 1-.46-.182.614.614 0 0 1-.223-.438.581.581 0 0 1 .16-.446.556.556 0 0 1 .418-.188c3.964-.007 7.287-.202 9.976-.578a.774.774 0 0 1 .508.118.615.615 0 0 1 .293.425.587.587 0 0 1-.091.481.551.551 0 0 1-.411.25c-1.407.181-3.03.321-4.883.411-.083 0-.132.049-.153.14-.049.202-.105.376-.153.529-.021.091.007.139.09.139h5.232c.16 0 .306.063.425.182a.59.59 0 0 1 0 .849.591.591 0 0 1-.425.182h-5.671c-.09 0-.153.041-.181.118a9.621 9.621 0 0 1-.258.543c-.041.084-.013.119.077.119h7.001c.174 0 .321.062.439.181a.6.6 0 0 1 .181.439.63.63 0 0 1-.181.446.58.58 0 0 1-.439.188h-7.704c-.091 0-.161.034-.196.104-.139.223-.25.39-.334.502-.049.069-.035.104.049.104h6.625c.23 0 .432.084.606.258a.828.828 0 0 1 .258.606v5.475a.79.79 0 0 1-.251.579.814.814 0 0 1-.599.243h-.307a.477.477 0 0 1-.362-.153.477.477 0 0 1-.153-.362c0-.063-.028-.091-.091-.091h-6.047c-.048 0-.076.028-.076.091a.487.487 0 0 1-.16.362.534.534 0 0 1-.37.153h-.285a.793.793 0 0 1-.585-.236.773.773 0 0 1-.237-.572v-4.138s-.007-.034-.028-.048a.097.097 0 0 0-.063 0c-.738.745-1.428 1.365-2.076 1.846l.007-.007Zm3.804-2.668v.453c0 .09.042.139.118.139h5.956c.091 0 .14-.049.14-.139v-.453c0-.091-.049-.14-.14-.14h-5.956c-.083 0-.118.049-.118.14Zm0 1.741v.453c0 .091.042.139.118.139h5.956c.091 0 .14-.048.14-.139v-.453c0-.09-.049-.139-.14-.139h-5.956c-.083 0-.118.049-.118.139Zm0 1.742v.453c0 .09.042.139.118.139h5.956c.091 0 .14-.049.14-.139v-.453c0-.091-.049-.14-.14-.14h-5.956c-.083 0-.118.049-.118.14ZM181.469 152.275a.745.745 0 0 1-.571-.077.797.797 0 0 1-.369-.453.612.612 0 0 1 .049-.529.623.623 0 0 1 .425-.321c2.062-.536 3.232-1.449 3.504-2.744.02-.091-.014-.14-.105-.14h-1.846a.827.827 0 0 1-.606-.257.83.83 0 0 1-.258-.606v-7.064c0-.23.084-.432.258-.606a.828.828 0 0 1 .606-.258h8.882c.23 0 .432.084.606.258a.828.828 0 0 1 .258.606v7.064a.83.83 0 0 1-.258.606.827.827 0 0 1-.606.257h-2.076c-.091 0-.139.049-.139.14v2.18c0 .23.028.376.083.425.056.049.223.084.495.091.132.007.334.014.606.014.272 0 .495 0 .634-.014.272-.007.46-.042.564-.098.098-.056.181-.181.251-.383s.111-.55.146-1.045a.793.793 0 0 1 .265-.522.687.687 0 0 1 .55-.175.774.774 0 0 1 .544.279.77.77 0 0 1 .181.585c-.028.446-.063.808-.098 1.087a2.902 2.902 0 0 1-.188.745 2.03 2.03 0 0 1-.265.481c-.083.098-.23.181-.438.251a2.89 2.89 0 0 1-.607.125c-.195.021-.48.035-.856.049-.091 0-.23 0-.411.007-.182 0-.321.007-.425.007-.356 0-.62 0-.801-.014-.822-.028-1.331-.112-1.54-.244-.209-.132-.313-.425-.313-.878v-2.939c0-.091-.049-.14-.14-.14h-1.17c-.084 0-.132.049-.153.14-.307 2.02-1.86 3.392-4.668 4.124v-.014Zm1.846-11.55v.94c0 .091.042.14.119.14h7.098c.091 0 .14-.042.14-.14v-.94c0-.091-.049-.14-.14-.14h-7.098c-.084 0-.119.049-.119.14Zm0 2.424v.94c0 .091.042.14.119.14h7.098c.091 0 .14-.049.14-.14v-.94c0-.091-.049-.139-.14-.139h-7.098c-.084 0-.119.048-.119.139Zm.119 3.504h7.098c.091 0 .14-.049.14-.139v-.941c0-.09-.049-.139-.14-.139h-7.098c-.084 0-.119.049-.119.139v.941c0 .09.042.139.119.139ZM199.073 152.303c-.446 0-.669-.223-.669-.669v-7.489a9.997 9.997 0 0 1-.62.836c-.23.265-.439.39-.613.383-.174 0-.341-.16-.495-.46-.111-.209-.16-.397-.146-.564.014-.16.105-.327.265-.501 1.142-1.303 2.097-2.877 2.863-4.73.16-.425.453-.579.878-.453.466.139.606.432.425.864a25.434 25.434 0 0 1-1.226 2.528v9.579c0 .446-.223.669-.669.669l.007.007Zm4.535-.53c-.209-.578.083-.857.878-.836.062 0 .139 0 .243-.014h.091c.181 0 .272-.083.272-.244v-8.157h-2.035a16.833 16.833 0 0 1-1.017 1.881c-.153.223-.306.341-.452.362-.154.021-.335-.056-.537-.23-.209-.174-.327-.334-.348-.48-.028-.147.042-.328.202-.537.766-1.1 1.393-2.549 1.881-4.333.132-.473.418-.662.864-.564.466.111.634.39.515.836a20.152 20.152 0 0 1-.578 1.755h5.803c.32 0 .564.098.724.307.16.209.209.474.153.822-.09.578-.208 1.212-.362 1.909-.042.181-.118.299-.23.348-.097.042-.25.042-.452 0-.418-.084-.586-.293-.516-.634.091-.543.153-1.024.195-1.442h-2.438v8.157c0 .377-.049.669-.139.878a1.085 1.085 0 0 1-.467.502c-.286.139-.69.23-1.226.257-.544.021-.892-.16-1.031-.543h.007Zm-1.756-1.651c-.153.028-.327-.021-.529-.153-.223-.139-.348-.286-.376-.432-.028-.146.028-.327.167-.536.557-.878 1.017-1.986 1.379-3.323.119-.488.397-.683.836-.592.467.09.634.369.516.836a19.389 19.389 0 0 1-.711 2.124 12.05 12.05 0 0 1-.85 1.728c-.132.202-.271.32-.425.348h-.007Zm7.294-.063c-.139-.062-.23-.222-.272-.487a16.06 16.06 0 0 0-.501-1.728 18.045 18.045 0 0 0-.76-1.985c-.195-.411-.062-.697.397-.85.377-.118.648 0 .822.348.634 1.324 1.108 2.633 1.408 3.929.041.195.021.349-.063.467-.07.097-.209.188-.425.258-.265.09-.467.104-.606.048ZM214.984 151.954a.77.77 0 0 1-.551.23.728.728 0 0 1-.543-.23.771.771 0 0 1-.23-.543v-9.857c0-.23.084-.432.258-.606a.828.828 0 0 1 .606-.258h.634a.166.166 0 0 0 .167-.118c.202-.523.348-.927.439-1.213.069-.209.202-.383.383-.515a.817.817 0 0 1 .599-.153.662.662 0 0 1 .481.313.603.603 0 0 1 .083.55c-.028.098-.153.446-.362 1.031-.021.07.007.105.091.105h1.184c.23 0 .432.084.599.258a.849.849 0 0 1 .251.606v1.881s.007.034.028.041c.021 0 .041 0 .062-.02.808-1.206 1.442-2.585 1.909-4.138a.904.904 0 0 1 .369-.509.92.92 0 0 1 .613-.16.65.65 0 0 1 .481.285.595.595 0 0 1 .084.544c-.07.23-.161.494-.258.787-.021.084 0 .118.076.118h3.818c.23 0 .432.091.606.265a.803.803 0 0 1 .244.613 220.814 220.814 0 0 1-.181 6.103c-.07 1.442-.181 2.528-.342 3.274-.16.745-.32 1.198-.501 1.365-.174.167-.446.251-.794.251-.627 0-1.463-.028-2.501-.077a.73.73 0 0 1-.516-.237.818.818 0 0 1-.23-.522.623.623 0 0 1 .181-.488.6.6 0 0 1 .488-.181c.655.042 1.275.063 1.867.063.174 0 .307-.174.411-.516.098-.341.195-1.177.286-2.494.09-1.316.174-3.274.244-5.872 0-.091-.042-.139-.119-.139h-3.518c-.07 0-.125.034-.167.104a16.47 16.47 0 0 1-1.7 2.898c-.209.272-.487.327-.822.167-.021-.021-.049-.021-.076-.007-.028.014-.049.035-.049.07v5.155c0 .23-.084.432-.251.606a.802.802 0 0 1-.599.258h-2.877c-.084 0-.119.048-.119.139v.23a.712.712 0 0 1-.236.543Zm.236-9.766v2.849c0 .09.042.139.119.139h2.09c.09 0 .139-.049.139-.139v-2.849c0-.091-.049-.14-.139-.14h-2.09c-.084 0-.119.049-.119.14Zm0 4.444v2.954c0 .09.042.139.119.139h2.09c.09 0 .139-.049.139-.139v-2.954c0-.09-.049-.139-.139-.139h-2.09c-.084 0-.119.049-.119.139Zm8.771.857a.726.726 0 0 1-.404.418.706.706 0 0 1-.571.007.72.72 0 0 1-.404-.404 28.138 28.138 0 0 0-1.366-2.682.665.665 0 0 1-.069-.55.664.664 0 0 1 .355-.432.8.8 0 0 1 .592-.07.71.71 0 0 1 .453.355c.501.871.968 1.798 1.393 2.773a.738.738 0 0 1 .007.585h.014ZM231.723 152.135a.763.763 0 0 1-.564.23.763.763 0 0 1-.564-.23.767.767 0 0 1-.23-.564v-11.564c0-.23.084-.432.251-.606a.802.802 0 0 1 .599-.258h4.354c.23 0 .432.084.606.258a.828.828 0 0 1 .258.606v3.957c0 .23-.084.432-.258.606a.828.828 0 0 1-.606.258h-3.49c-.091 0-.14.049-.14.139v6.611a.763.763 0 0 1-.23.564l.014-.007Zm.23-11.563v.835c0 .091.049.14.14.14h2.654c.09 0 .139-.042.139-.14v-.835c0-.091-.049-.14-.139-.14h-2.654c-.091 0-.14.049-.14.14Zm0 2.152v.85c0 .084.049.118.14.118h2.654c.09 0 .139-.041.139-.118v-.85c0-.084-.049-.118-.139-.118h-2.654c-.091 0-.14.041-.14.118Zm8.234 7.001c0 .23-.083.432-.257.606a.831.831 0 0 1-.606.258h-4.006c-.07 0-.105.035-.105.104a.622.622 0 0 1-.188.46.62.62 0 0 1-.459.188h-.119a.728.728 0 0 1-.543-.23.743.743 0 0 1-.23-.543v-3.866c0-.23.084-.432.258-.606a.828.828 0 0 1 .606-.258h4.792c.23 0 .432.084.607.258a.827.827 0 0 1 .257.606v3.016l-.007.007Zm-1.56-.515v-1.972c0-.09-.042-.139-.119-.139h-3.155c-.091 0-.14.049-.14.139v1.972c0 .083.049.118.14.118h3.155c.084 0 .119-.042.119-.118Zm4.005-10.067c.23 0 .432.084.6.258.167.174.25.376.25.606v10.08c0 1.003-.111 1.623-.341 1.86-.23.237-.829.356-1.811.356-.244 0-.676-.014-1.289-.049a.764.764 0 0 1-.495-.209.728.728 0 0 1-.222-.502.62.62 0 0 1 .167-.466.526.526 0 0 1 .453-.182c.543.028.912.049 1.107.049.404 0 .648-.035.725-.111.083-.077.118-.307.118-.69v-5.169c0-.09-.049-.139-.139-.139h-3.637a.828.828 0 0 1-.606-.258.827.827 0 0 1-.257-.606v-3.957c0-.23.083-.432.257-.606a.828.828 0 0 1 .606-.258h4.501l.013-.007Zm-.724 2.257v-.835c0-.091-.049-.14-.139-.14h-2.808c-.09 0-.139.049-.139.14v.835c0 .091.049.14.139.14h2.808c.09 0 .139-.042.139-.14Zm0 2.167v-.85c0-.084-.049-.118-.139-.118h-2.808c-.09 0-.139.041-.139.118v.85c0 .084.049.118.139.118h2.808c.09 0 .139-.041.139-.118ZM247.369 146.423a.605.605 0 0 1-.445-.188.614.614 0 0 1-.188-.446c0-.167.062-.32.188-.453a.597.597 0 0 1 .445-.195h5.455c.174 0 .32.063.453.195a.627.627 0 0 1 .195.453.599.599 0 0 1-.195.446.648.648 0 0 1-.453.188h-1.428c-.084 0-.118.049-.118.139v.983c0 .09.041.139.118.139h1.212c.174 0 .321.063.446.181a.582.582 0 0 1 .188.439c0 .174-.063.32-.188.439a.64.64 0 0 1-.446.181h-1.212c-.084 0-.118.049-.118.139v1.338c0 .09.041.146.118.167.474.098 1.094.181 1.867.244a.064.064 0 0 0 .049-.021c.007-.014 0-.035-.014-.056a.586.586 0 0 1-.077-.09.578.578 0 0 1-.063-.481.55.55 0 0 1 .321-.369 10.48 10.48 0 0 0 1.957-1.24c.021-.021.028-.035.014-.056-.007-.014-.028-.021-.048-.021h-.579a.824.824 0 0 1-.606-.258.828.828 0 0 1-.258-.606v-5.364c0-.23.084-.432.258-.599a.849.849 0 0 1 .606-.251h.955c.083 0 .132-.041.153-.118.07-.251.125-.467.167-.655.021-.069-.014-.104-.104-.104h-1.805a.632.632 0 0 1-.452-.188.597.597 0 0 1-.195-.446c0-.167.062-.321.195-.453a.623.623 0 0 1 .452-.195h5.761c.175 0 .321.063.453.195a.621.621 0 0 1 .195.453c0 .167-.062.32-.195.446a.644.644 0 0 1-.453.188h-2.124c-.084 0-.133.042-.154.118l-.083.335c-.035.139-.056.236-.07.285-.021.091.007.139.091.139h1.665c.23 0 .432.084.599.251a.822.822 0 0 1 .251.599v5.364c0 .23-.084.432-.251.606a.798.798 0 0 1-.599.258h-1.059s-.028.007-.028.021c0 .014 0 .028.014.035.759.383 1.414.766 1.971 1.149a.613.613 0 0 1 .286.439.714.714 0 0 1-.118.53 1.015 1.015 0 0 1-.196.195c-.041.021-.034.041.014.062.14.042.258.119.349.244.09.119.132.258.118.411a.71.71 0 0 1-.209.481.678.678 0 0 1-.487.188h-3.727c-2.132 0-3.776-.125-4.932-.369-1.157-.251-2.035-.676-2.634-1.282-.048-.063-.09-.049-.118.028-.132.508-.244.891-.334 1.17a.728.728 0 0 1-.969.425.687.687 0 0 1-.418-.404.816.816 0 0 1-.021-.599c.363-1.094.613-2.257.76-3.49a.718.718 0 0 1 .264-.495.759.759 0 0 1 .523-.174.654.654 0 0 1 .501.251c.133.16.188.334.168.536-.042.488-.084.85-.119 1.094a.262.262 0 0 0 .049.23c.16.223.383.446.669.669.069.048.104.027.104-.063v-3.198c0-.09-.049-.139-.139-.139h-2.188Zm.711-7.203h4.11c.23 0 .432.084.606.258a.828.828 0 0 1 .258.606v3.58c0 .23-.084.432-.258.607a.827.827 0 0 1-.606.257h-4.11a.827.827 0 0 1-.606-.257.832.832 0 0 1-.258-.607v-3.58c0-.23.084-.432.258-.606a.828.828 0 0 1 .606-.258Zm3.49 2.034v-.655c0-.09-.042-.139-.118-.139h-2.55c-.091 0-.139.049-.139.139v.655c0 .091.048.14.139.14h2.55c.083 0 .118-.049.118-.14Zm0 2.013v-.668c0-.084-.042-.119-.118-.119h-2.55c-.091 0-.139.042-.139.119v.668c0 .084.048.119.139.119h2.55c.083 0 .118-.042.118-.119Zm4.382 6.625a9.931 9.931 0 0 1-1.519.913c-.007.007-.014.021-.014.042s.007.021.028.021c.69.02 1.24.027 1.665.027h3.302s.028-.007.028-.02c0-.014 0-.028-.014-.035h-.014a17.11 17.11 0 0 0-1.651-1.003.841.841 0 0 1-.404-.495.717.717 0 0 1 .084-.627l.09-.139s.021-.042.007-.07c-.014-.028-.035-.035-.07-.035h-1.442s-.034.014-.048.035a.119.119 0 0 0 0 .07l.076.09a.84.84 0 0 1 .195.641.757.757 0 0 1-.32.585h.021Zm-.502-7.168v.543c0 .084.042.119.119.119h2.877c.09 0 .139-.042.139-.119v-.543c0-.084-.049-.118-.139-.118h-2.877c-.084 0-.119.041-.119.118Zm0 1.895v.578c0 .091.042.139.119.139h2.877c.09 0 .139-.041.139-.139v-.578c0-.091-.049-.139-.139-.139h-2.877c-.084 0-.119.048-.119.139Zm0 2.549c0 .091.042.14.119.14h2.877c.09 0 .139-.049.139-.14v-.606c0-.09-.049-.139-.139-.139h-2.877c-.084 0-.119.049-.119.139v.606ZM263.921 152.017a1.23 1.23 0 0 1-.397-1.303c.32-1.142.488-3.176.488-6.109v-.941c0-.062-.028-.118-.091-.167a.731.731 0 0 1-.341-.487.764.764 0 0 1 .097-.592 14.358 14.358 0 0 0 1.394-3.302.92.92 0 0 1 .968-.669h.014a.64.64 0 0 1 .48.278.62.62 0 0 1 .098.537c-.021.07.007.104.091.104h1.637c.174 0 .32.063.452.195a.623.623 0 0 1 .195.453c0 .474-.076.892-.229 1.24-.098.223-.175.397-.23.516a.134.134 0 0 0 .007.09c.014.028.034.049.069.049h.502c.23 0 .432.084.606.251a.802.802 0 0 1 .258.599v7.447c0 .71-.028 1.205-.091 1.49-.063.286-.167.481-.327.572-.161.09-.432.139-.829.139-.251 0-.669-.014-1.24-.049a.725.725 0 0 1-.488-.209.696.696 0 0 1-.209-.487.552.552 0 0 1 .181-.446.6.6 0 0 1 .453-.174c.112.007.244.021.404.028.16.007.258.013.293.013.223 0 .355-.034.397-.104.042-.07.062-.307.062-.697v-1.121c0-.091-.048-.14-.139-.14h-2.988c-.098 0-.154.042-.154.119-.104.982-.257 1.832-.466 2.563a.59.59 0 0 1-.384.405.568.568 0 0 1-.55-.098l.007.007Zm1.561-5.803c0 .355-.007.822-.028 1.407 0 .091.041.14.118.14h.655c.09 0 .139-.049.139-.14v-1.407c0-.083-.049-.118-.139-.118h-.606c-.091 0-.139.041-.139.118Zm.013-2.835v1.316c0 .091.042.14.119.14h.606c.091 0 .139-.049.139-.14v-1.316c0-.091-.048-.139-.139-.139h-.606c-.084 0-.119.048-.119.139Zm.209-1.574c-.041.083-.013.118.077.118h.968c.091 0 .154-.035.182-.105.195-.404.348-.752.473-1.044.042-.07.014-.105-.076-.105h-1.017c-.084 0-.14.035-.168.105-.118.306-.264.647-.439 1.031Zm1.972 1.574v1.316c0 .091.049.14.139.14h.655c.091 0 .139-.049.139-.14v-1.316c0-.091-.048-.139-.139-.139h-.655c-.09 0-.139.048-.139.139Zm0 2.835v1.407c0 .091.049.14.139.14h.655c.091 0 .139-.049.139-.14v-1.407c0-.083-.048-.118-.139-.118h-.655c-.09 0-.139.041-.139.118Zm2.821 1.714a.603.603 0 0 1-.369-.397.668.668 0 0 1 .035-.544c.418-.822.738-1.644.968-2.473.007-.021.007-.034-.007-.041-.014-.007-.028-.007-.035 0a.552.552 0 0 1-.404.055.53.53 0 0 1-.327-.237l-.119-.181a.614.614 0 0 1-.076-.515.776.776 0 0 1 .32-.439c.948-.627 1.547-1.442 1.791-2.438.02-.084-.007-.119-.091-.119h-1.226a.683.683 0 0 1-.495-.195.636.636 0 0 1-.202-.487c0-.195.07-.356.202-.488.14-.132.3-.195.495-.195h5.35c.23 0 .432.084.599.258a.808.808 0 0 1 .237.606c-.049 1.184-.125 2.034-.237 2.556-.111.523-.258.864-.453 1.031-.195.168-.515.251-.961.251-.307 0-.745-.014-1.317-.049a.706.706 0 0 1-.48-.209.808.808 0 0 1-.223-.487.563.563 0 0 1 .167-.439.56.56 0 0 1 .439-.167c.202.007.446.014.724.014.279 0 .46-.098.537-.286.076-.188.132-.717.174-1.574 0-.091-.042-.14-.119-.14h-1.442c-.083 0-.132.042-.153.119-.265 1.498-1.024 2.661-2.292 3.504-.021.021-.028.042-.021.062 0 .021.021.035.035.049l.425.091a.592.592 0 0 1 .425.306.667.667 0 0 1 .063.516c-.021.063 0 .09.076.09h.76c.09 0 .139-.041.139-.118v-.105c0-.222.077-.411.23-.564a.767.767 0 0 1 .564-.23c.223 0 .411.077.571.23a.771.771 0 0 1 .237.564v.105c0 .084.049.118.14.118h1.288c.181 0 .335.063.46.195a.652.652 0 0 1 .188.467.639.639 0 0 1-.188.467.607.607 0 0 1-.46.195h-1.288c-.091 0-.14.049-.14.139v1.484c0 .084.049.118.14.118h1.532c.195 0 .355.063.488.196a.656.656 0 0 1 .195.487.66.66 0 0 1-.195.488.66.66 0 0 1-.488.195h-1.532c-.091 0-.14.049-.14.139v1.756a.77.77 0 0 1-.237.571.773.773 0 0 1-.571.237.747.747 0 0 1-.564-.237.794.794 0 0 1-.23-.571v-1.756c0-.09-.049-.139-.139-.139h-2.292a.66.66 0 0 1-.488-.195.66.66 0 0 1-.195-.488c0-.195.063-.355.195-.487a.657.657 0 0 1 .488-.196h2.292c.09 0 .139-.041.139-.118v-1.484c0-.09-.049-.139-.139-.139h-1.212c-.084 0-.14.035-.168.104-.027.084-.153.342-.362.788a.748.748 0 0 1-.439.397.833.833 0 0 1-.592-.014v-.007ZM280.828 142.055a.673.673 0 0 1-.501-.195.674.674 0 0 1-.196-.501c0-.202.063-.37.196-.502a.677.677 0 0 1 .501-.195h5.155c.091 0 .139-.049.139-.139v-1.08c0-.223.084-.418.251-.585a.802.802 0 0 1 .585-.251c.223 0 .418.084.585.251a.798.798 0 0 1 .251.585v1.08c0 .09.049.139.14.139h5.155c.202 0 .369.063.501.195.133.132.195.3.195.502a.673.673 0 0 1-.195.501.673.673 0 0 1-.501.195h-6.974c-.09 0-.139.049-.139.14 0 .71-.021 1.309-.063 1.804 0 .083.042.118.119.118h5.566c.23 0 .432.084.599.251a.822.822 0 0 1 .251.599v.209c0 1.24-.028 2.264-.091 3.065-.063.801-.146 1.463-.265 1.986-.118.522-.292.919-.529 1.177a1.794 1.794 0 0 1-.78.522c-.286.091-.655.14-1.122.14-.599 0-1.393-.028-2.396-.091a.842.842 0 0 1-.759-.787.627.627 0 0 1 .195-.502.634.634 0 0 1 .501-.181 30.93 30.93 0 0 0 2.153.091c.362 0 .641-.112.836-.335.195-.222.348-.696.459-1.428.112-.731.175-1.79.175-3.197 0-.084-.049-.118-.14-.118h-4.806c-.084 0-.133.048-.154.139-.223 1.351-.62 2.515-1.191 3.469-.571.961-1.386 1.867-2.445 2.731a.862.862 0 0 1-.62.181.92.92 0 0 1-.592-.286.657.657 0 0 1-.188-.564.812.812 0 0 1 .292-.529c1.275-.99 2.146-2.076 2.606-3.268.459-1.191.703-2.925.71-5.21 0-.084-.049-.119-.139-.119h-3.337l.007-.007ZM300.974 151.745a2.333 2.333 0 0 1-1.713.711c-.669 0-1.24-.237-1.714-.711a2.333 2.333 0 0 1-.711-1.713c0-.669.237-1.24.711-1.714a2.335 2.335 0 0 1 1.714-.711c.668 0 1.24.237 1.713.711.474.474.711 1.045.711 1.714 0 .668-.237 1.24-.711 1.713Zm-.856-2.57a1.169 1.169 0 0 0-.857-.356c-.335 0-.62.119-.857.356a1.166 1.166 0 0 0-.355.857c0 .334.118.62.355.856.237.237.522.356.857.356.334 0 .62-.119.857-.356.236-.236.355-.522.355-.856 0-.335-.119-.62-.355-.857Z" fill="#008088"/><g filter="url(#b)"><path fill-rule="evenodd" clip-rule="evenodd" d="M19.7 100.565c.44.439.948.654 1.54.654h7.544c.592 0 1.094-.215 1.519-.654.425-.439.634-.948.634-1.54V98.6c0-.592-.21-1.1-.634-1.54-.425-.438-.927-.654-1.519-.654H21.24c-.592 0-1.1.216-1.54.655-.438.438-.654.947-.654 1.54v.424c0 .592.216 1.101.654 1.54Zm10.394-9.042c-.439-.44-.948-.655-1.54-.655h-6.66c-.591 0-1.1.223-1.539.655-.439.438-.655.92-.655 1.54s.21 1.135.634 1.56c.425.424.948.633 1.56.633h6.66c.62 0 1.136-.209 1.56-.633.426-.425.635-.969.635-1.56 0-.593-.216-1.102-.655-1.54Zm25.113 29.634a1.927 1.927 0 0 0-1.136-1.115l.021-.021a10.172 10.172 0 0 1-1.42-.613c-.23-.097-.272-.23-.12-.383.468-.46.795-.808 1.004-1.038.383-.432.53-.933.425-1.498-.105-.564-.411-.982-.927-1.267l-.348-.196a.16.16 0 0 1-.042-.118c0-.049.028-.077.077-.077h.613c.516 0 .947-.174 1.31-.536.355-.362.536-.794.536-1.31a1.77 1.77 0 0 0-.536-1.309 1.796 1.796 0 0 0-1.31-.537h-2.271c-.202 0-.306-.118-.306-.348v-.23c0-.23.104-.348.306-.348h1.888c.383 0 .71-.133.982-.404.272-.272.404-.599.404-.982 0-.384-.132-.711-.404-.983a1.338 1.338 0 0 0-.982-.404h-1.888c-.202 0-.306-.118-.306-.348v-.23c0-.23.104-.348.306-.348h2.348c.432 0 .794-.153 1.093-.446.3-.293.446-.662.446-1.094 0-.432-.153-.801-.446-1.093-.292-.3-.654-.446-1.093-.446h-2.348c-.202 0-.306-.098-.306-.307v-.195c0-.202.104-.306.306-.306h1.038c.592 0 1.1-.216 1.54-.655.438-.439.654-.948.654-1.54v-2.194c0-.592-.216-1.1-.654-1.54-.44-.438-.948-.654-1.54-.654h-6.353c-.592 0-1.1.216-1.54.654-.439.44-.654.948-.654 1.54v3.309c0 .286.11.536.327.752.223.216.467.328.752.328.105 0 .154.048.154.153v.348c0 .202-.119.307-.349.307h-2.884c-.23 0-.348-.098-.348-.307v-.348c0-.105.063-.153.195-.153.327 0 .613-.119.843-.349.23-.23.348-.508.348-.843v-3.197c0-.592-.216-1.1-.655-1.54-.438-.438-.947-.654-1.54-.654h-6.2c-.591 0-1.1.216-1.539.654-.438.44-.654.948-.654 1.54v2.194c0 .592.215 1.101.654 1.54.44.439.948.655 1.54.655h.885c.202 0 .306.104.306.306v.195c0 .202-.104.307-.306.307h-2.195c-.41 0-.773.153-1.08.446-.306.292-.46.661-.46 1.093 0 .432.154.801.46 1.094.314.3.67.446 1.08.446h2.195c.202 0 .306.118.306.348v.23c0 .23-.104.348-.306.348h-1.735c-.383 0-.71.133-.982.404a1.336 1.336 0 0 0-.404.983c0 .383.132.71.404.982.271.271.599.404.982.404h1.735c.202 0 .306.118.306.348v.23c0 .23-.104.348-.306.348h-2.62a1.83 1.83 0 0 0-1.33.537c-.37.362-.557.794-.557 1.309 0 .516.188.948.557 1.31a1.87 1.87 0 0 0 1.33.536h2.348c.049 0 .076.014.076.056s-.013.07-.041.098c-.955.411-2.09.794-3.428 1.156-.076.028-.167.07-.271.118-.181.049-.272-.013-.272-.195v-.654c0-.586-.216-1.094-.655-1.519a2.132 2.132 0 0 0-1.54-.634h-6.812c-.592 0-1.1.209-1.54.634-.439.425-.655.926-.655 1.519v7.579c0 .592.216 1.1.655 1.539.44.439.948.655 1.54.655h1.386c.306 0 .571-.111.787-.327a1.08 1.08 0 0 0 .328-.787c0-.133.048-.195.153-.195H28.7c.592 0 1.1-.209 1.54-.634.438-.425.654-.927.654-1.519v-1.581c0-.202.105-.258.306-.154a2.101 2.101 0 0 0 1.54.042c1.26-.487 2.257-.933 3.002-1.344a.179.179 0 0 1 .175.021.197.197 0 0 1 .097.174v1.191c0 .181-.118.3-.348.348l-1.965.23a2.024 2.024 0 0 0-1.442.773c-.369.467-.529.99-.48 1.582.055.592.3 1.073.752 1.442a2.1 2.1 0 0 0 1.56.48c2.954-.334 6.145-.87 9.586-1.616a2.256 2.256 0 0 0 1.421-.961c.355-.516.509-1.08.46-1.693v-.118c0-.202.063-.237.195-.112 1.825 1.798 3.887 3.17 6.2 4.117.592.258 1.17.265 1.734.021.565-.237.983-.655 1.268-1.247l.23-.578c.23-.515.237-1.045.021-1.581Zm-34.538-15.124c.404.411.905.613 1.497.613h6.43c.564 0 1.059-.202 1.484-.613.425-.404.634-.912.634-1.498 0-.585-.21-1.086-.634-1.497-.425-.404-.92-.613-1.484-.613h-6.43a2.04 2.04 0 0 0-1.497.613 2.038 2.038 0 0 0-.613 1.497c0 .586.202 1.087.613 1.498Zm0 5.406c.404.425.905.634 1.497.634h6.43c.564 0 1.059-.209 1.484-.634.425-.425.634-.92.634-1.484s-.21-1.059-.634-1.484c-.425-.425-.92-.634-1.484-.634h-6.43c-.585 0-1.086.209-1.497.634-.411.425-.613.92-.613 1.484s.209 1.059.613 1.484Zm6.116 6.256v1.769c0 .23-.105.348-.306.348h-1.77c-.202 0-.306-.118-.306-.348v-1.769c0-.237.097-.349.306-.349h1.77c.201 0 .306.119.306.349Zm5.37-23.003c.398.397.879.6 1.443.6h19.554c.564 0 1.045-.203 1.442-.6.397-.397.6-.878.6-1.442s-.203-1.052-.6-1.463a1.928 1.928 0 0 0-1.442-.613h-6.506c-.181 0-.272-.076-.272-.23 0-.46-.167-.856-.502-1.19a1.627 1.627 0 0 0-1.19-.502h-2.885c-.46 0-.857.167-1.191.501a1.627 1.627 0 0 0-.502 1.191c0 .154-.09.23-.271.23h-6.235c-.564 0-1.045.202-1.442.613s-.6.899-.6 1.463c0 .564.203 1.045.6 1.442Zm6.368 4.215v.884c0 .23-.105.349-.306.349h-1.233c-.203 0-.307-.119-.307-.349v-.884c0-.23.098-.349.306-.349h1.234c.202 0 .306.119.306.349Zm6.276 7.969v.23c0 .23-.118.348-.348.348h-2.884c-.23 0-.348-.118-.348-.348v-.23c0-.23.118-.348.348-.348h2.884c.23 0 .349.118.349.348Zm0 3.692v.23c0 .23-.118.348-.348.348h-2.884c-.23 0-.348-.118-.348-.348v-.23c0-.23.118-.348.348-.348h2.884c.23 0 .349.118.349.348Zm-.578 8.158c.105.153.05.257-.153.306l-.007.007c-.258.049-.634.118-1.135.209-.502.091-.878.16-1.136.209-.202.056-.306-.021-.306-.23v-4.194c0-.132.062-.195.195-.195.132 0 .223.077.271.23.537 1.205 1.296 2.425 2.271 3.658Zm5.734-3.888c.209 0 .243.091.118.272l-.007-.007c-.258.307-.669.773-1.233 1.386-.153.161-.306.175-.46.042a7.665 7.665 0 0 1-1.191-1.421c-.056-.056-.063-.111-.02-.174a.198.198 0 0 1 .173-.098h2.62Zm-2.188-15.047v-.884c0-.23.119-.349.348-.349h1.233c.203 0 .307.119.307.349v.884c0 .23-.105.349-.306.349h-1.234c-.236 0-.348-.119-.348-.349Zm14.845-4.458c.439.439.947.655 1.54.655l.014.02h11.933c.202 0 .306.105.306.307v.154c0 .202-.104.306-.306.306h-9.39c-.593 0-1.101.216-1.54.655-.44.439-.655.947-.655 1.54v6.617c0 .592.216 1.094.655 1.519.439.425.947.634 1.54.634h9.39c.202 0 .306.118.306.348v.307c0 .23-.104.348-.306.348-5.079.049-8.84.077-11.279.077-.564 0-1.038.202-1.407.613a1.86 1.86 0 0 0-.48 1.463c.048.592.285 1.086.71 1.483.425.404.92.599 1.484.599a431.931 431.931 0 0 0 20.32-.578c.23 0 .349.105.349.307v.731c0 .202-.119.307-.349.307h-21.17c-.585 0-1.087.209-1.498.634a2.097 2.097 0 0 0-.613 1.518c0 .592.21 1.094.613 1.519.404.425.906.634 1.498.634h3.35a.2.2 0 0 1 .175.097c.035.063.028.126-.021.174l-.348.537c-.307.488-.383 1.003-.23 1.539.153.537.501.948 1.038 1.233 1.616.85 3.037 1.603 4.27 2.271.536.307 1.1.391 1.693.251a2.196 2.196 0 0 0 1.386-.982l.46-.773c.334-.516.425-1.052.272-1.616a1.99 1.99 0 0 0-1.004-1.268 222.425 222.425 0 0 0-2.5-1.345c0-.055.027-.09.076-.118H85.44c.23 0 .349.104.349.306v.537c0 .766-.07 1.219-.195 1.344-.126.133-.572.195-1.345.195-.822 0-2.118-.042-3.887-.118-.592-.021-1.087.174-1.484.599s-.585.919-.557 1.484l.042.306c.028.62.271 1.143.731 1.582.46.438 1.003.668 1.616.696 1.366.049 2.912.077 4.66.077 1.178 0 2.084-.014 2.71-.042a8.438 8.438 0 0 0 1.812-.272c.578-.16.982-.327 1.212-.522.23-.195.432-.544.613-1.059a5.628 5.628 0 0 0 .306-1.581c.028-.537.042-1.324.042-2.348v-.885c0-.202.119-.306.349-.306h2.424c.585 0 1.093-.209 1.518-.634.425-.425.634-.934.634-1.519 0-.585-.209-1.093-.634-1.518a2.063 2.063 0 0 0-1.518-.634h-2.62c-.23 0-.348-.098-.348-.307v-1.08c0-.229.105-.348.307-.348h.076c.153 0 .272.049.349.153.202.335.501.544.884.634.383.091.746.028 1.08-.174l1.581-.961a2.15 2.15 0 0 0 1.003-1.331c.154-.578.063-1.121-.271-1.637a45.132 45.132 0 0 0-1.191-1.79c-.544-.78-.85-1.233-.927-1.365-.104-.133-.153-.321-.153-.579v-6.005c0-.592-.216-1.1-.655-1.539-.439-.439-.947-.655-1.54-.655h-9.39c-.202 0-.306-.097-.306-.306v-.154c0-.202.097-.306.306-.306h11.933c.592 0 1.1-.216 1.54-.655.439-.439.654-.947.654-1.54v-.076c0-.585-.216-1.094-.654-1.519a2.132 2.132 0 0 0-1.54-.634H82.988c-.18 0-.272-.104-.272-.306 0-.543-.201-1.01-.599-1.407-.397-.397-.87-.6-1.407-.6h-2.313c-.543 0-1.01.203-1.407.6-.404.397-.599.87-.599 1.407 0 .202-.09.306-.272.306H64.153c-.593 0-1.101.21-1.54.634-.439.425-.655.927-.655 1.519v.076c0 .593.216 1.101.655 1.54Zm13.78 5.009v.383c0 .23-.105.348-.307.348h-5.58c-.202 0-.307-.118-.307-.348v-.383c0-.202.105-.307.307-.307h5.58c.202 0 .306.105.306.307Zm0 3.385v.46c0 .202-.105.307-.307.307h-5.58c-.202 0-.307-.098-.307-.307v-.46c0-.23.105-.348.307-.348h5.58c.202 0 .306.118.306.348Zm6.31-3.002v-.383c0-.202.098-.307.307-.307h5.58c.202 0 .306.105.306.307v.383c0 .23-.104.348-.306.348h-5.58c-.202 0-.306-.118-.306-.348Zm0 3.462v-.46c0-.23.098-.348.307-.348h5.58c.202 0 .306.118.306.348v.46c0 .202-.104.307-.306.307h-5.58c-.202 0-.306-.098-.306-.307Zm0 4.117v-.23l-.006-.014c0-.23.097-.348.306-.348h6.353c.21 0 .37.091.502.272 0 .028.014.069.042.118.028.049.048.077.076.077.056.055.063.118.021.195-.042.076-.097.118-.174.118-2.313.056-4.584.091-6.813.119-.202 0-.306-.098-.306-.307Zm22.48 14.629-.459-.885a1.49 1.49 0 0 1-.056-1.421 1.574 1.574 0 0 1 1.094-.926c3.107-.718 5.942-1.512 8.505-2.383 0-.027-.027-.062-.076-.118h-6.542c-.592 0-1.1-.209-1.539-.634-.439-.425-.655-.926-.655-1.519v-.118c0-.592.216-1.101.655-1.54.439-.438.947-.654 1.539-.654h11.084c.202 0 .306-.105.306-.307v-.536c0-.202-.104-.307-.306-.307h-9.697a1.844 1.844 0 0 1-1.387-.599 1.959 1.959 0 0 1-.578-1.407c0-.543.195-1.003.578-1.386a1.892 1.892 0 0 1 1.387-.579h9.697c.202 0 .306-.118.306-.348v-.501c0-.23-.104-.349-.306-.349h-10.854a2.005 2.005 0 0 1-1.442-.578 1.9 1.9 0 0 1-.599-1.421c0-.564.195-1.045.599-1.442a1.968 1.968 0 0 1 1.442-.599h4.236c.202 0 .278-.119.23-.348l-.927-2.313c-.076-.202-.216-.307-.425-.307h-3.734c-.592 0-1.1-.209-1.539-.634-.439-.425-.655-.926-.655-1.518v-.502c0-.592.216-1.1.655-1.54.439-.438.947-.654 1.539-.654h.927a.198.198 0 0 0 .174-.098.177.177 0 0 0 .021-.174 2.655 2.655 0 0 1-.195-.383 2.084 2.084 0 0 0-.195-.383 1.633 1.633 0 0 1-.119-1.498c.202-.515.579-.843 1.115-1.003l.808-.23a2.74 2.74 0 0 1 1.811.077c.592.23 1.038.613 1.345 1.156.072.144.236.449.488.914l.001.002.001.003.046.084.045.083c.258.477.465.86.61 1.15.077.202.23.307.46.307h.808c.202 0 .306-.119.306-.348v-2.425c0-.592.216-1.093.655-1.518a2.134 2.134 0 0 1 1.54-.634h.961c.592 0 1.101.209 1.54.634.438.425.654.933.654 1.518v2.425c0 .23.105.348.307.348h1.616c.202 0 .307-.119.307-.348v-2.425c0-.592.215-1.093.654-1.518a2.134 2.134 0 0 1 1.54-.634h.961c.592 0 1.094.209 1.519.634.425.425.634.933.634 1.518v2.425c0 .23.118.348.348.348h1.038c.202 0 .369-.105.502-.307.125-.23.487-.933 1.079-2.118.279-.564.704-.989 1.268-1.267a2.644 2.644 0 0 1 1.77-.23l.731.195c.564.132.968.446 1.212.961.244.516.237 1.024-.021 1.54l-.459.926c-.105.202-.042.307.195.307h.849c.593 0 1.101.216 1.54.655.432.438.655.947.655 1.54v.5c0 .593-.216 1.094-.655 1.52a2.132 2.132 0 0 1-1.54.633h-3.504c-.208 0-.362.119-.459.349-.363.898-.683 1.678-.962 2.347-.027.049-.014.112.042.174a.245.245 0 0 0 .195.098h4.082c.565 0 1.045.202 1.442.599.397.397.6.878.6 1.442a1.9 1.9 0 0 1-.6 1.421 2.003 2.003 0 0 1-1.442.578h-10.853c-.209 0-.306.119-.306.349v.501c0 .23.104.348.306.348h9.697c.536 0 1.003.195 1.386.579.383.383.578.842.578 1.386 0 .543-.195 1.01-.578 1.407-.383.397-.85.599-1.386.599h-9.697c-.209 0-.306.105-.306.307v.536c0 .202.104.307.306.307h11.083c.592 0 1.101.215 1.54.654.439.439.655.948.655 1.54v.118c0 .592-.216 1.094-.655 1.519a2.133 2.133 0 0 1-1.54.634h-6.541s-.028.063 0 .118c2.41.822 5.232 1.616 8.471 2.383.515.104.878.404 1.094.905.216.502.188.983-.098 1.442l-.46.885a2.545 2.545 0 0 1-1.365 1.191 2.802 2.802 0 0 1-1.832.077c-3.95-1.233-7.405-2.633-10.352-4.194-.209-.104-.306-.049-.306.153v2.655c0 .592-.216 1.1-.655 1.539-.439.439-.948.655-1.54.655h-1.922c-.593 0-1.101-.216-1.54-.655-.439-.439-.655-.947-.655-1.539v-2.655a.2.2 0 0 0-.097-.174.182.182 0 0 0-.174-.021c-2.85 1.54-6.312 2.947-10.394 4.236a2.782 2.782 0 0 1-1.825-.077 2.526 2.526 0 0 1-1.366-1.191v-.014Zm13.738-20.55h6.618c.257 0 .425-.105.501-.307.307-.592.641-1.372 1.003-2.347.049-.202-.014-.307-.195-.307h-9.042c-.181 0-.244.105-.195.307.202.515.488 1.282.85 2.313.105.229.258.348.46.348v-.007Zm28.694 21.316c.424.439.926.655 1.518.655v-.014h1.31c.592 0 1.1-.216 1.539-.655.439-.438.655-.947.655-1.539v-.23c0-.23.119-.348.348-.348h7.043c.585 0 1.094-.209 1.519-.634.425-.425.634-.927.634-1.519v-13.472c0-.23.09-.279.272-.154a1.84 1.84 0 0 0 1.288.286 1.64 1.64 0 0 0 1.136-.676c.021-.049.076-.076.153-.076s.146.027.195.076a81.426 81.426 0 0 1 3.581 7.008c.25.544.655.927 1.191 1.157.543.229 1.094.229 1.658 0l.885-.349a2.09 2.09 0 0 0 1.191-1.191 2.051 2.051 0 0 0-.042-1.693 76.555 76.555 0 0 0-3.156-6.43 2.266 2.266 0 0 0-1.33-1.079 2.359 2.359 0 0 0-1.714.118l-1.156.578c-.028.021-.056.014-.098-.021-.042-.034-.049-.083-.021-.132a52.36 52.36 0 0 0 2.313-4.312c.077-.202.23-.306.46-.306h6.813c.202 0 .306.118.306.348-.076 3.183-.153 5.9-.23 8.143-.076 2.243-.16 4.124-.25 5.636a156.233 156.233 0 0 1-.251 3.615c-.077.899-.181 1.582-.307 2.041-.132.46-.244.76-.348.885a.506.506 0 0 1-.425.195c-1.08 0-2.438-.042-4.082-.118a1.908 1.908 0 0 0-1.498.578c-.411.411-.606.899-.578 1.463l.042.843c.048.62.292 1.142.731 1.581.439.439.968.669 1.582.697 3.385.104 5.579.153 6.583.153.536 0 .968-.035 1.288-.097.321-.063.655-.244 1.017-.537.363-.292.634-.69.829-1.191.188-.495.397-1.24.613-2.229.216-.989.384-2.16.502-3.504.118-1.345.223-3.072.327-5.176.105-2.104.188-4.452.251-7.043.063-2.598.126-5.684.174-9.279 0-.585-.209-1.094-.634-1.519a2.062 2.062 0 0 0-1.518-.633h-8.854c-.202 0-.279-.098-.23-.307.049-.153.125-.39.23-.71.065-.214.124-.39.17-.53l.001-.002.003-.009.056-.17c.181-.564.111-1.087-.209-1.56-.321-.474-.774-.753-1.366-.83l-1.344-.153a2.327 2.327 0 0 0-1.672.404 2.751 2.751 0 0 0-1.059 1.442 40.185 40.185 0 0 1-3.274 7.621c-.028.028-.056.035-.098.021-.034-.014-.055-.049-.055-.097v-2.195c0-.592-.216-1.093-.655-1.518a2.133 2.133 0 0 0-1.54-.634h-2.424c-.202 0-.279-.119-.23-.349.202-.724.361-1.312.484-1.767l.094-.35c.126-.565.028-1.08-.292-1.54-.321-.46-.773-.731-1.366-.808l-1.462-.195c-.614-.077-1.178.077-1.693.446-.516.37-.85.85-1.003 1.442a38.526 38.526 0 0 1-.767 2.85c-.028.18-.167.27-.425.27h-1.811a2.06 2.06 0 0 0-1.518.635 2.063 2.063 0 0 0-.634 1.518v25.636c0 .592.209 1.101.634 1.539Zm5.022-18.439v-5.58c0-.202.119-.306.348-.306h3.386c.202 0 .307.104.307.306v5.58c0 .23-.105.348-.307.348h-3.386c-.229 0-.348-.118-.348-.348Zm0 11.16v-5.657c0-.23.119-.348.348-.348h3.386c.202 0 .307.118.307.348v5.657c0 .23-.105.348-.307.348h-3.386c-.229 0-.348-.118-.348-.348Zm37.45 6.012-.766-1.345c-.285-.488-.341-1.017-.174-1.595.167-.578.509-.996 1.017-1.254 5.852-3.051 10.275-6.186 13.278-9.391.125-.125.195-.306.195-.536V97.653c0-.202-.105-.307-.307-.307h-11.738c-.592 0-1.1-.216-1.539-.654-.439-.44-.655-.948-.655-1.54v-.655c0-.592.216-1.094.655-1.519a2.131 2.131 0 0 1 1.539-.633h11.738c.202 0 .307-.119.307-.349v-.348c0-.592.216-1.1.655-1.54.438-.431.947-.654 1.539-.654h1.923c.592 0 1.1.216 1.539.654.432.44.655.948.655 1.54v.348c0 .23.105.349.307.349h11.738c.592 0 1.1.209 1.539.633.439.425.655.934.655 1.52v.654c0 .592-.216 1.1-.655 1.54-.439.438-.947.654-1.539.654h-11.738c-.209 0-.307.105-.307.307v10.658c0 .23.063.411.195.536 3.107 3.337 7.531 6.521 13.278 9.544.515.286.857.697 1.017 1.254a1.93 1.93 0 0 1-.209 1.595l-.732 1.233c-.306.516-.759.85-1.344 1.003a2.09 2.09 0 0 1-1.658-.229c-3.873-2.257-7.315-4.835-10.317-7.74-.049-.049-.105-.063-.153-.042-.049.028-.077.063-.077.119v7.196c0 .592-.216 1.101-.655 1.539-.439.439-.947.655-1.539.655h-1.923c-.592 0-1.101-.216-1.539-.655-.439-.438-.655-.947-.655-1.539v-7.238c0-.049-.028-.091-.077-.118-.049-.028-.104-.014-.153.041-2.821 2.773-6.263 5.35-10.317 7.74a2.095 2.095 0 0 1-1.658.23 2.127 2.127 0 0 1-1.345-1.003Zm9.663-21.596c-.154.669-.37 1.477-.655 2.425-.049.202 0 .362.153.459a57.034 57.034 0 0 1 2.194 2.041c.439.439.655.962.655 1.582 0 .62-.216 1.128-.655 1.539l-.926.885c-.439.411-.941.613-1.519.613s-1.073-.216-1.484-.655a1.237 1.237 0 0 1-.271-.271 4.813 4.813 0 0 0-.272-.307c-.153-.153-.286-.125-.383.077a21.625 21.625 0 0 1-2.194 3.232c-.363.439-.836.641-1.421.613-.593-.028-1.066-.272-1.422-.731l-1.079-1.345c-.85-1.052-.85-2.194 0-3.427a22.216 22.216 0 0 0 3.427-7.391 2.622 2.622 0 0 1 .961-1.484 2.201 2.201 0 0 1 1.658-.446l1.463.195a2.038 2.038 0 0 1 1.421.829c.356.474.474.996.349 1.56v.007Zm20.09 0a41.468 41.468 0 0 1-.773 2.696c-.077.202-.028.383.153.537a66.622 66.622 0 0 1 3.811 3.734 2.54 2.54 0 0 1 .71 1.671 2.675 2.675 0 0 1-.481 1.749l-.731 1.038c-.306.46-.738.703-1.289.731a1.615 1.615 0 0 1-1.365-.578c-.794-.898-1.811-1.936-3.037-3.121-.049-.048-.133-.069-.23-.055-.105.014-.167.055-.195.132a3.237 3.237 0 0 1-.272.46c-.334.459-.787.71-1.365.752a1.824 1.824 0 0 1-1.484-.557l-1.191-1.191a2.568 2.568 0 0 1-.753-1.617 2.757 2.757 0 0 1 .404-1.769 21.136 21.136 0 0 0 2.23-5.273 2.617 2.617 0 0 1 .961-1.484 2.2 2.2 0 0 1 1.658-.446l1.498.195a1.997 1.997 0 0 1 1.407.829c.348.474.453.996.327 1.56l.007.007Zm21.881 16.169c-.279-.55-.697-.92-1.254-1.108l-2.194-.731c-.558-.188-1.115-.146-1.665.132-.551.279-.92.697-1.108 1.254l-.439 1.317c-.188.557-.146 1.114.133 1.665.271.55.696.919 1.254 1.107l2.194.732c.557.188 1.114.146 1.665-.133.55-.278.919-.689 1.107-1.254l.439-1.316c.188-.557.147-1.115-.132-1.665Zm-3.386-5.733c.265.536.69.898 1.275 1.093l-.007-.007 1.463.488c.585.195 1.157.16 1.714-.097a2.184 2.184 0 0 0 1.17-1.254l5.385-13.863c.237-.544.223-1.087-.042-1.637a2.046 2.046 0 0 0-1.233-1.1l-3.288-1.094a1.971 1.971 0 0 0-1.63.146c-.522.285-.871.71-1.031 1.282l-3.957 14.336c-.146.606-.09 1.17.181 1.707Z" fill="#008088"/></g><path d="M129.139 57.458c-.348 0-.648-.119-.892-.362a1.206 1.206 0 0 1-.362-.892c0-.355.119-.648.362-.892.244-.237.537-.362.892-.362h.892c.146 0 .223-.084.223-.25v-2.64c0-.391.146-.725.432-.997a1.406 1.406 0 0 1 1.01-.418c.383 0 .724.14.996.418.279.279.418.613.418.996v2.64c0 .167.083.251.251.251h.585c.348 0 .648.118.892.362.236.244.362.537.362.892s-.119.648-.362.892a1.205 1.205 0 0 1-.892.362h-.585c-.168 0-.251.084-.251.25v5.748c0 .167.077.216.223.14.076-.036.195-.091.362-.154.167-.063.286-.119.362-.153a.727.727 0 0 1 .767.041c.25.16.376.384.376.683a2 2 0 0 1-.321 1.094c-.216.341-.494.599-.85.766-.076.035-.195.097-.362.181-.167.084-.285.146-.362.181-.132.056-.195.16-.195.307v4.939c0 1.811-.146 2.94-.446 3.371-.299.432-1.073.655-2.334.655-.348 0-.654-.007-.912-.028a1.446 1.446 0 0 1-.906-.431 1.345 1.345 0 0 1-.404-.906.995.995 0 0 1 .321-.808c.23-.223.501-.32.822-.307.369.035.571.056.613.056.202 0 .32-.063.348-.181.028-.118.042-.55.042-1.289v-3.915c0-.146-.077-.202-.223-.167a1.848 1.848 0 0 1-.335.111 1.867 1.867 0 0 0-.334.112.98.98 0 0 1-.919-.126c-.279-.195-.432-.466-.474-.822-.035-.39.056-.738.278-1.051.223-.314.516-.53.892-.641.335-.09.627-.181.892-.279.146-.056.223-.16.223-.306v-6.827c0-.167-.077-.251-.223-.251h-.892v.007Zm20.244-.92c-.146 0-.223.084-.223.251v.947c0 .203.035.321.111.363.077.035.335.056.781.056h.501c.237-.021.564-.182.969-.502.404-.32.738-.46 1.003-.446.369.035.668.202.898.488.23.285.307.606.237.961-.132.571-.404.92-.836 1.038-.425.118-1.414.181-2.967.181-1.108 0-1.888-.035-2.334-.097-.446-.063-.738-.175-.871-.335-.139-.16-.209-.432-.209-.822V56.79c0-.167-.076-.25-.223-.25h-.613c-.146 0-.251.076-.306.222-.258.76-.739 1.456-1.442 2.083-.704.627-1.554 1.136-2.557 1.526-.021.02-.021.035-.014.041.007.008.035.014.07.014h10.052c.237 0 .446.091.613.265a.874.874 0 0 1 .251.627.831.831 0 0 1-.251.613.83.83 0 0 1-.613.25h-9.606a1.27 1.27 0 0 1-.948-.403 1.3 1.3 0 0 1-.39-.927v-.028a.185.185 0 0 0-.042-.11c-.027-.036-.062-.05-.097-.029-.3.077-.571.042-.836-.097a1.092 1.092 0 0 1-.53-.655l-.167-.446h-.055v2.194c0 .112 0 .265-.014.46s-.014.341-.014.432c0 .146.083.223.25.223h14.107c.279 0 .516.105.711.306.195.203.292.446.292.725a.967.967 0 0 1-.292.71.968.968 0 0 1-.711.293h-14.162c-.167 0-.251.077-.251.223-.146 3.518-.711 6.534-1.693 9.05a1.19 1.19 0 0 1-.738.724 1.253 1.253 0 0 1-1.038-.056 1.506 1.506 0 0 1-.739-.836 1.416 1.416 0 0 1 .014-1.08c.592-1.609 1.01-3.385 1.247-5.329.237-1.944.363-4.556.363-7.83v-2.968c0-.188-.056-.313-.168-.39a1.234 1.234 0 0 1-.501-.947c-.021-.39.118-.725.418-.996 1.128-1.094 2.076-2.25 2.835-3.47.502-.815 1.191-1.163 2.083-1.051l.474.055a.62.62 0 0 1 .529.349.692.692 0 0 1 .028.627c-.021.02-.021.048 0 .083s.049.056.083.056h7.217c.293 0 .558.105.781.32.223.216.334.474.334.795 0 .759-.258 1.4-.78 1.915l-.195.195c-.035.021-.049.05-.028.098.021.049.049.07.083.07h3.72c.293 0 .551.104.767.32.209.216.32.467.32.766 0 .3-.104.544-.32.753a1.08 1.08 0 0 1-.767.306h-3.608l.007-.042Zm-6.771.195c.09-.132.062-.195-.084-.195h-3.553c-.146 0-.222.084-.222.251v1.804c0 .147.076.202.222.167 1.665-.348 2.877-1.023 3.637-2.027Zm-3.664 17.465v-2.613c0-.425.16-.794.473-1.1.314-.307.683-.46 1.108-.46h11.355c.425 0 .794.153 1.107.46.314.306.474.668.474 1.1v2.613c0 .404-.146.752-.432 1.024a1.44 1.44 0 0 1-1.045.418h-.613a.802.802 0 0 1-.599-.237.804.804 0 0 1-.237-.6c0-.09-.048-.139-.139-.139h-8.415c-.091 0-.14.05-.14.14a.805.805 0 0 1-.835.836h-.613c-.405 0-.753-.14-1.038-.418a1.377 1.377 0 0 1-.432-1.024h.021Zm1.247-7.106a.806.806 0 0 1-.836-.836.806.806 0 0 1 .836-.836h11.995a.813.813 0 0 1 .836.836.8.8 0 0 1-.237.6.802.802 0 0 1-.599.236h-11.995Zm0 2.306a.806.806 0 0 1-.6-.237.793.793 0 0 1-.236-.599c0-.244.076-.439.236-.6a.833.833 0 0 1 .6-.236h11.995a.813.813 0 0 1 .836.836.8.8 0 0 1-.237.6.802.802 0 0 1-.599.236h-11.995Zm6.527-15.994c.035-.021.049-.05.028-.098-.021-.049-.049-.07-.084-.07h-6.054c-.167 0-.285.056-.362.168-.021.034-.23.306-.641.808-.09.132-.062.195.084.195h5.719a.567.567 0 0 0 .418-.167c.404-.37.704-.648.892-.837Zm-4.856 18.655v.585c0 .146.084.223.251.223h8.192c.168 0 .251-.077.251-.223v-.585c0-.167-.083-.25-.251-.25h-8.192c-.167 0-.251.083-.251.25ZM160.954 65.643c-.3.244-.627.307-.996.195-.37-.111-.627-.348-.781-.724a1.95 1.95 0 0 1 0-1.289c.147-.432.405-.794.781-1.066a40.96 40.96 0 0 0 2.166-1.776c.112-.077.167-.195.167-.362v-.614c0-.424.154-.794.46-1.107a1.479 1.479 0 0 1 1.094-.474h.501c.188 0 .314-.056.39-.167.816-1.003 1.484-1.937 2-2.807.035-.035.042-.084.014-.14-.028-.055-.07-.083-.126-.083h-5.775c-.369 0-.675-.126-.919-.377a1.24 1.24 0 0 1-.362-.898c0-.37.125-.683.376-.934.251-.25.55-.376.905-.376h7.106c.167 0 .279-.076.334-.223.223-.515.376-.92.474-1.19.146-.405.404-.725.766-.962.362-.23.746-.328 1.15-.293.369.035.668.216.891.544.223.327.265.661.14 1.017-.035.111-.091.257-.154.446-.062.188-.118.334-.153.445-.076.147-.028.223.139.223h11.188c.348 0 .655.126.899.376.244.251.376.558.376.934s-.118.655-.362.898a1.22 1.22 0 0 1-.92.377h-12.358c-.146 0-.265.076-.362.223-1.163 2.222-2.696 4.353-4.584 6.388a.6.6 0 0 0-.167.445V74.01c0 .424-.146.78-.432 1.065a1.45 1.45 0 0 1-1.066.432c-.425 0-.752-.146-1.045-.432-.292-.285-.432-.64-.432-1.065v-9.328c0-.035-.027-.063-.083-.084-.056-.02-.091-.007-.112.028-.404.404-.787.752-1.135 1.024l.007-.007Zm12.797 6.332c.167 0 .251-.083.251-.25v-6.8c0-.167-.084-.25-.251-.25h-5.023c-.348 0-.648-.119-.892-.362a1.206 1.206 0 0 1-.362-.892c0-.355.119-.648.362-.892.244-.244.537-.362.892-.362h5.023c.167 0 .251-.084.251-.25v-3.665c0-.404.146-.76.445-1.052a1.45 1.45 0 0 1 1.052-.446c.404 0 .76.147 1.052.446.293.3.446.648.446 1.052v3.664c0 .167.077.251.223.251h4.883c.349 0 .655.118.899.362.251.244.376.537.376.892s-.125.648-.376.892c-.251.243-.55.362-.899.362h-4.883c-.146 0-.223.083-.223.25v6.8c0 .167.077.25.223.25h5.831c.369 0 .675.119.912.363.244.244.362.543.362.92 0 .375-.118.675-.362.919a1.255 1.255 0 0 1-.912.362h-15.465c-.37 0-.683-.125-.927-.376a1.23 1.23 0 0 1-.376-.906c0-.355.125-.655.376-.898.251-.244.557-.377.927-.377h6.165v-.007ZM192.915 75.361a1.41 1.41 0 0 1-1.066-.446 1.473 1.473 0 0 1-.432-1.052V55.07c0-.425.16-.795.474-1.108a1.517 1.517 0 0 1 1.107-.474h6.165c.147 0 .251-.063.307-.195.223-.613.453-1.296.697-2.055.132-.425.376-.76.752-.996.376-.237.766-.334 1.191-.279.404.035.725.23.947.571.223.342.279.711.168 1.094-.077.3-.258.85-.558 1.665-.034.132.021.195.168.195h8.387c.425 0 .794.16 1.107.474.314.313.474.683.474 1.108v18.794c0 .404-.146.76-.432 1.052a1.434 1.434 0 0 1-1.066.446h-.278c-.335 0-.613-.118-.85-.348a1.161 1.161 0 0 1-.348-.85c0-.133-.063-.195-.195-.195h-15.047c-.133 0-.195.062-.195.195 0 .334-.119.613-.349.85-.23.23-.515.348-.85.348h-.278Zm1.47-19.13v3.08c0 .146.083.223.25.223h14.936c.167 0 .251-.077.251-.223v-3.08c0-.166-.084-.25-.251-.25h-14.936c-.167 0-.25.084-.25.25Zm0 5.915v3.107c0 .167.083.25.25.25h14.936c.167 0 .251-.083.251-.25v-3.107c0-.167-.084-.25-.251-.25h-14.936c-.167 0-.25.083-.25.25Zm0 5.97v3.19c0 .168.083.251.25.251h14.936c.167 0 .251-.083.251-.25v-3.19c0-.168-.084-.252-.251-.252h-14.936c-.167 0-.25.084-.25.251ZM223.65 54.316c-.37 0-.676-.118-.92-.362s-.362-.544-.362-.92.118-.675.362-.92c.244-.243.543-.361.92-.361h17.129c.425 0 .795.16 1.108.473.314.314.474.683.474 1.108v9.83c0 .424-.147.78-.446 1.072-.3.286-.648.432-1.052.432s-.759-.146-1.052-.432a1.416 1.416 0 0 1-.446-1.073v-.195c0-.167-.076-.25-.223-.25h-12.936c-.146 0-.223.083-.223.25v7.329c0 .996.077 1.595.237 1.776.16.181.683.306 1.567.362 1.665.09 3.212.14 4.64.14 1.296 0 2.94-.05 4.939-.14a61.527 61.527 0 0 0 1.428-.083 5.14 5.14 0 0 0 .961-.181c.37-.105.613-.223.725-.363.111-.14.251-.376.418-.71.167-.335.279-.697.334-1.094.056-.397.133-.947.223-1.651.035-.404.216-.738.544-.99.32-.25.689-.347 1.093-.292.425.077.766.286 1.024.627.258.342.369.718.335 1.122a47.186 47.186 0 0 1-.321 2.403 5.913 5.913 0 0 1-.515 1.665c-.244.488-.474.85-.711 1.08-.23.23-.613.432-1.135.613a7.183 7.183 0 0 1-1.568.334c-.515.049-1.247.098-2.194.153-2.076.091-3.971.14-5.691.14-1.498 0-3.191-.049-5.079-.14a42.313 42.313 0 0 1-1.734-.111 4.478 4.478 0 0 1-1.164-.265c-.376-.14-.641-.285-.78-.446-.139-.16-.272-.424-.39-.808a4.773 4.773 0 0 1-.209-1.19 38.38 38.38 0 0 1-.028-1.763v-8.77c0-.426.16-.795.474-1.095a1.53 1.53 0 0 1 1.107-.46h14.629c.147 0 .223-.083.223-.25v-5.357c0-.167-.076-.25-.223-.25H223.65v.013ZM252.246 68.228c-.348.02-.655-.091-.899-.335a1.285 1.285 0 0 1-.404-.891 1.178 1.178 0 0 1 .335-.913 1.29 1.29 0 0 1 .912-.418c.167 0 .404 0 .725-.014.313-.007.557-.02.724-.042.167 0 .251-.083.251-.25v-10.91c0-.424.153-.794.46-1.107a1.479 1.479 0 0 1 1.1-.474h5.023c.146 0 .251-.077.306-.223.202-.48.363-.912.474-1.303.132-.404.376-.73.752-.968.37-.237.767-.341 1.192-.306.404.035.724.223.947.557.223.334.265.683.139 1.052-.076.223-.188.536-.334.947-.035.167.007.251.139.251h7.106c.425 0 .794.16 1.107.474.314.313.474.683.474 1.107v8.248c0 .133.056.16.167.084.516-.446.899-.78 1.136-.996.237-.223.529-.32.864-.293.334.028.592.174.78.432.202.279.292.585.279.927a1.283 1.283 0 0 1-.418.877 33.903 33.903 0 0 1-2.613 2.139.445.445 0 0 0-.195.39v4.94c0 .682-.014 1.232-.042 1.636a4.58 4.58 0 0 1-.209 1.122c-.111.341-.25.592-.418.752-.167.16-.425.293-.78.404a4.816 4.816 0 0 1-1.135.21 25.66 25.66 0 0 1-1.665.04c-.704 0-1.937-.027-3.637-.083a1.312 1.312 0 0 1-.891-.404 1.363 1.363 0 0 1-.39-.905 1.11 1.11 0 0 1 .32-.864c.23-.237.516-.348.85-.334 1.519.055 2.612.083 3.274.083.836 0 1.331-.07 1.484-.209.16-.14.237-.606.237-1.4v-2.996c0-.055-.028-.097-.084-.125-.056-.028-.104-.02-.139.014-4.849 2.96-10.331 5.322-16.433 7.078-.37.09-.718.062-1.038-.098a1.324 1.324 0 0 1-.683-.766 1.013 1.013 0 0 1 .056-.927c.167-.306.418-.501.752-.599 5.148-1.372 9.836-3.211 14.079-5.524.021-.02.028-.035.028-.056 0-.02-.021-.028-.056-.028-4.459.425-9.126.76-13.995.997h-.014Zm4.611-12.686v1.386c0 .168.084.251.251.251h12.442c.146 0 .223-.083.223-.25v-1.387c0-.146-.077-.223-.223-.223h-12.442c-.167 0-.251.077-.251.223Zm0 3.97v1.47c0 .147.084.224.251.224h12.442c.146 0 .223-.077.223-.223v-1.47c0-.167-.077-.25-.223-.25h-12.442c-.167 0-.251.083-.251.25Zm0 4.027v1.693c0 .146.077.223.223.223 4.347-.202 8.499-.48 12.442-.836.167 0 .251-.084.251-.25v-.837c0-.167-.077-.25-.223-.25h-12.442c-.167 0-.251.083-.251.25v.007ZM282.674 74.588c-.369 0-.683-.133-.926-.39a1.273 1.273 0 0 1-.377-.92c0-.355.126-.655.377-.92.25-.257.557-.39.926-.39h8.36c.146 0 .222-.083.222-.25V52.644c0-.404.147-.76.446-1.052a1.478 1.478 0 0 1 1.08-.445c.425 0 .787.146 1.08.445.292.3.446.648.446 1.052v5.524c0 .168.083.251.25.251h8.715c.369 0 .676.119.913.362.237.244.362.544.362.92s-.118.676-.362.92c-.237.243-.544.362-.913.362h-8.715c-.167 0-.25.083-.25.25v10.499c0 .167.083.25.25.25h10.22c.369 0 .683.133.926.39.251.258.377.565.377.92 0 .355-.126.655-.377.92a1.24 1.24 0 0 1-.926.39h-22.104v-.014ZM22.696 36.643c.202-.293.48-.488.836-.585.348-.09.696-.056 1.024.111.313.167.515.418.613.753.09.334.049.647-.14.94a35.663 35.663 0 0 1-2.277 3.163 1.464 1.464 0 0 1-.948.53c-.39.055-.752-.022-1.08-.224a1.092 1.092 0 0 1-.515-.808 1.173 1.173 0 0 1 .265-.94 38.451 38.451 0 0 0 2.222-2.94Zm5.97-3.692c0 .425-.16.794-.474 1.107a1.518 1.518 0 0 1-1.108.474h-5.19c-.424 0-.793-.16-1.093-.474a1.532 1.532 0 0 1-.46-1.107V19.597c0-.425.153-.795.46-1.108a1.477 1.477 0 0 1 1.094-.474h5.19c.424 0 .794.16 1.107.474.314.313.474.683.474 1.108V32.95Zm-2.78-8.248V20.76c0-.167-.083-.25-.25-.25h-2.25c-.147 0-.223.083-.223.25v3.943c0 .167.076.25.223.25h2.25c.167 0 .25-.083.25-.25Zm0 7.161v-4.25c0-.166-.083-.25-.25-.25h-2.25c-.147 0-.223.084-.223.25v4.25c0 .146.076.223.223.223h2.25c.167 0 .25-.077.25-.223Zm2.083 8.687c-.188-1.184-.341-2.083-.474-2.696-.076-.37 0-.71.21-1.01.209-.307.501-.474.87-.516.404-.055.774.035 1.094.265.32.23.53.544.627.934.181.891.348 1.797.502 2.723.055.39-.035.739-.28 1.045a1.338 1.338 0 0 1-.94.516 1.44 1.44 0 0 1-1.052-.307 1.415 1.415 0 0 1-.557-.947v-.007Zm14.796-22.682c.446 0 .822.153 1.122.46.3.306.446.683.432 1.121-.035 1.944-.174 3.4-.418 4.361-.244.962-.578 1.602-1.017 1.916-.432.313-1.087.474-1.958.474-.668 0-1.602-.028-2.807-.084a1.244 1.244 0 0 1-.85-.39 1.327 1.327 0 0 1-.376-.864.975.975 0 0 1 .306-.78.99.99 0 0 1 .78-.307c.558.035 1.185.056 1.889.056.592 0 .989-.195 1.19-.585.203-.39.314-1.275.335-2.668 0-.146-.077-.223-.223-.223h-3.525c-.146 0-.244.077-.278.223a9.402 9.402 0 0 1-1.735 3.678c-.857 1.122-1.937 2.048-3.232 2.787a.09.09 0 0 0-.028.07c0 .027.02.04.056.04h9.55c.425 0 .794.161 1.108.475.313.313.474.682.474 1.107v4.751c0 .425-.16.794-.474 1.108a1.519 1.519 0 0 1-1.108.474H31.954c-.425 0-.794-.16-1.108-.474a1.519 1.519 0 0 1-.473-1.108V28.13c0-.132-.05-.264-.14-.418l-.362-.613a1.308 1.308 0 0 1-.167-1.107c.111-.39.348-.683.724-.892 2.09-1.184 3.455-2.696 4.082-4.528.035-.146-.02-.223-.167-.223h-3.19c-.348 0-.655-.119-.906-.362a1.178 1.178 0 0 1-.376-.892c0-.355.125-.648.376-.892.25-.236.55-.362.906-.362h11.605l.007.028Zm-9.55 11.912v2.64c0 .168.083.251.25.251h6.967c.146 0 .223-.083.223-.25v-2.64c0-.168-.077-.252-.223-.252h-6.967c-.167 0-.25.084-.25.251Zm3.134 11.912c-.39.077-.752.014-1.093-.18a1.67 1.67 0 0 1-.739-.85c-.39-1.039-.759-1.951-1.107-2.752a1.17 1.17 0 0 1 0-.99c.146-.32.397-.529.752-.626.39-.091.766-.056 1.122.111.362.167.627.432.794.808.181.425.571 1.38 1.163 2.856.133.349.105.683-.07.996-.174.314-.445.516-.822.613v.014Zm7.622-1.19c-.084.347-.286.62-.6.807a1.372 1.372 0 0 1-1.038.154 1.378 1.378 0 0 1-.877-.6c-.404-.613-1.15-1.623-2.222-3.023-.223-.279-.3-.599-.237-.961.062-.363.243-.634.543-.822a1.489 1.489 0 0 1 1.052-.21c.37.063.676.258.92.572a57.637 57.637 0 0 1 2.277 3.107c.203.292.265.62.182.968v.007ZM51.982 40.14c-.09.313-.3.508-.627.585-.32.077-.606-.007-.85-.25-.669-.67-.878-1.457-.641-2.362.627-2.445.94-5.95.94-10.526v-4.612c0-.425.16-.794.474-1.107a1.519 1.519 0 0 1 1.108-.474h8.91c.425 0 .794.16 1.107.474.314.313.474.682.474 1.107v3.776c0 .3-.105.543-.307.738a1.04 1.04 0 0 1-.752.293c-.09 0-.16.063-.195.195-.035.09-.098.272-.181.53a7.853 7.853 0 0 1-.21.584c-.034.147.008.223.14.223h.836c.258 0 .48.091.669.28a.927.927 0 0 1 .279.668.9.9 0 0 1-.28.669.9.9 0 0 1-.668.278h-1.052c-.146 0-.223.077-.223.223v.864c0 .167.077.25.223.25h.78c.258 0 .481.091.67.266.18.174.278.39.278.654a.9.9 0 0 1-.279.67.9.9 0 0 1-.669.278h-.78c-.146 0-.223.083-.223.25v.836c0 .147.077.223.223.223h.78c.258 0 .481.09.67.279a.927.927 0 0 1 .278.669.9.9 0 0 1-.279.669.9.9 0 0 1-.669.278h-.78c-.146 0-.223.077-.223.223v.864c0 .167.077.25.223.25h.78c.404 0 .711.168.92.502.077.133.16.146.25.056a1.28 1.28 0 0 1 .28-.223c1.441-.78 2.626-1.602 3.552-2.473.035-.02.049-.049.028-.098-.02-.048-.049-.07-.084-.07h-1.386a1.52 1.52 0 0 1-1.108-.473 1.519 1.519 0 0 1-.473-1.108V23.715c0-.425.16-.794.473-1.094.314-.307.683-.46 1.108-.46h1.442c.167 0 .265-.076.307-.223.09-.313.216-.808.362-1.47.035-.167-.028-.25-.195-.25h-2.334c-.334 0-.62-.119-.864-.363a1.163 1.163 0 0 1-.362-.863c0-.335.119-.62.362-.864.244-.244.53-.362.864-.362h9.44c.334 0 .612.118.85.362.23.244.348.53.348.864 0 .334-.119.62-.349.863-.23.244-.515.363-.85.363h-3.636c-.167 0-.258.062-.279.195-.02.111-.048.271-.097.473-.049.202-.09.39-.126.558-.034.167-.076.327-.111.473-.035.168.02.251.167.251h3.023c.425 0 .795.153 1.108.46.314.306.474.669.474 1.094v11.354c0 .425-.16.795-.474 1.108a1.519 1.519 0 0 1-1.108.474h-2.055c-.034 0-.055.014-.055.042a.09.09 0 0 0 .028.07 25.76 25.76 0 0 1 3.803 2.528 1.343 1.343 0 0 1 .223 1.888 1.13 1.13 0 0 1-.822.474 1.29 1.29 0 0 1-.926-.251 43.667 43.667 0 0 0-2.968-2.027c-.37-.223-.6-.537-.697-.94a1.38 1.38 0 0 1 .223-1.136l.335-.446c.035-.035.041-.077.014-.126-.028-.048-.07-.07-.126-.07h-2.668c-.035 0-.063.022-.084.07-.02.05-.02.091 0 .126l.335.362c.293.348.432.752.418 1.191a1.452 1.452 0 0 1-.557 1.108c-.836.703-1.84 1.372-3.024 2-.334.187-.69.222-1.066.11a1.486 1.486 0 0 1-.87-.64c-.021-.021-.028-.035-.028-.056-.077-.132-.167-.16-.279-.084-.244.168-.467.251-.669.251h-5.217c-.112 0-.167.056-.167.167 0 .314-.105.572-.307.78a1.066 1.066 0 0 1-.78.307h-.307a1.34 1.34 0 0 1-.989-.404 1.324 1.324 0 0 1-.404-.982v-5.691c0-.168-.063-.28-.195-.335l-.306-.14a.202.202 0 0 0-.168.015c-.055.028-.083.07-.083.125-.223 2-.572 3.748-1.052 5.246l.014-.05Zm-.725-20.105c-.313 0-.585-.118-.808-.348a1.136 1.136 0 0 1-.334-.822c0-.32.111-.585.334-.808.223-.223.488-.334.808-.334h10.686c.314 0 .586.111.822.334.23.223.349.488.349.808 0 .32-.119.585-.349.822-.23.237-.501.348-.822.348H51.257Zm2.055 9.161c0 1.052-.007 1.825-.028 2.306.021.02.05.02.084 0 .571-1.296 1.024-2.46 1.358-3.497.035-.133-.02-.195-.167-.195h-.996c-.167 0-.25.076-.25.223v1.163Zm.418-5.33v1.47c0 .168.084.252.251.252h5.97c.167 0 .25-.084.25-.251v-1.47c0-.146-.083-.223-.25-.223h-5.97c-.167 0-.25.077-.25.223Zm4.856 8.416v-.864c0-.146-.084-.223-.251-.223h-1.888c-.146 0-.223.077-.223.223v.864c0 .167.077.25.223.25h1.888c.167 0 .25-.083.25-.25Zm0 3.19v-.835c0-.168-.084-.251-.251-.251h-1.888c-.146 0-.223.083-.223.25v.837c0 .146.077.223.223.223h1.888c.167 0 .25-.077.25-.223Zm0 3.191V37.8c0-.146-.084-.223-.251-.223h-1.888c-.146 0-.223.077-.223.223v.864c0 .167.077.25.223.25h1.888c.167 0 .25-.083.25-.25Zm.64-10.63c.035-.147-.02-.223-.167-.223h-1.637c-.167 0-.278.076-.334.223-.146.48-.258.836-.334 1.052-.035.146.02.223.167.223h1.581c.167 0 .279-.077.334-.223.168-.39.293-.739.39-1.052Zm7.413-3.47v1.415c0 .146.083.223.25.223h4.995c.167 0 .25-.077.25-.223v-1.415c0-.167-.083-.25-.25-.25H66.89c-.167 0-.25.083-.25.25Zm0 3.971v1.442c0 .167.083.251.25.251h4.995c.167 0 .25-.084.25-.25v-1.443c0-.167-.083-.25-.25-.25H66.89c-.167 0-.25.083-.25.25Zm.25 5.775h4.995c.167 0 .25-.076.25-.223v-1.553c0-.146-.083-.223-.25-.223H66.89c-.167 0-.25.077-.25.223v1.553c0 .147.083.223.25.223ZM81.609 33.836c-.648-.739-.766-1.603-.362-2.585.794-1.909 1.191-4.626 1.191-8.164v-4.194c0-.425.16-.794.474-1.108a1.519 1.519 0 0 1 1.107-.473h20.711c.292 0 .557.111.78.334.223.223.334.48.334.78 0 .3-.111.558-.334.78a1.066 1.066 0 0 1-.78.335H85.461c-.167 0-.25.084-.25.25v4.696c0 3.797-.6 6.855-1.805 9.188-.188.349-.473.544-.864.572-.39.027-.703-.105-.94-.404l.007-.008Zm.836 7.857c-.313 0-.578-.111-.794-.334a1.079 1.079 0 0 1-.32-.78c0-.3.104-.557.32-.78.209-.223.474-.335.794-.335h9.467c.167 0 .25-.083.25-.25v-.92c0-.167-.083-.25-.25-.25h-7.607c-.293 0-.543-.098-.739-.293a.997.997 0 0 1-.292-.739c0-.3.097-.543.293-.752a.982.982 0 0 1 .738-.307h7.663c.132 0 .195-.056.195-.167 0-.348.125-.655.376-.899.25-.243.55-.376.906-.376h.501c.348 0 .655.126.906.376.25.251.376.55.376.9 0 .11.063.166.195.166h7.663c.292 0 .543.105.738.307.195.202.293.453.293.752a.998.998 0 0 1-1.031 1.031h-7.607c-.168 0-.251.084-.251.25v.92c0 .168.084.251.25.251h9.468c.313 0 .578.112.794.335.216.223.32.48.32.78 0 .3-.104.557-.32.78a1.053 1.053 0 0 1-.794.334H82.445Zm22.738-18.32c.278 0 .515.097.71.292a.968.968 0 0 1 .293.71v.112c0 .293-.112.557-.335.78-.223.223-.48.335-.78.335h-2.529c-.146 0-.202.083-.167.25.46 2.3 1.484 4.236 3.051 5.831.258.279.397.606.418.99.021.375-.09.71-.334.988a1.351 1.351 0 0 1-.968.474c-.39.021-.711-.118-.976-.418-1.128-1.275-1.999-2.856-2.612-4.75-.056-.112-.104-.12-.139-.029-.571 1.888-1.38 3.442-2.418 4.668a1.215 1.215 0 0 1-1.065.46 1.54 1.54 0 0 1-1.094-.544l-.418-.474c-.02-.035-.049-.048-.097-.028a.195.195 0 0 0-.098.084c-.077.39-.258.634-.543.739-.286.104-.801.153-1.54.153-.613 0-1.38-.028-2.306-.084a.824.824 0 0 1-.53-.265.895.895 0 0 1-.25-.543.643.643 0 0 1 .195-.53.65.65 0 0 1 .53-.194 15.64 15.64 0 0 0 1.33.083c.237 0 .376-.02.418-.07.035-.048.056-.209.056-.487v-.25c0-.147-.084-.224-.251-.224h-3.887c-.167 0-.25.077-.25.223v1.442c0 .39-.133.718-.391.982a1.283 1.283 0 0 1-.968.404c-.383 0-.718-.132-.99-.404a1.324 1.324 0 0 1-.404-.982v-5.44c0-.425.154-.795.46-1.108a1.477 1.477 0 0 1 1.094-.474h6.722c.425 0 .794.16 1.094.474.3.313.46.683.46 1.108v4.472c0 .035.02.07.055.097.035.028.077.021.112-.014 1.811-1.665 2.933-3.782 3.358-6.36.035-.167-.028-.25-.195-.25h-1.777c-.292 0-.557-.112-.78-.335a1.066 1.066 0 0 1-.334-.78c0-.3.111-.557.334-.78.223-.223.48-.335.78-.335h1.888c.167 0 .25-.083.25-.25v-1.637c0-.39.133-.718.405-.99.272-.265.599-.404.989-.404h.585c.223 0 .411.077.571.237a.77.77 0 0 1 .237.571c0 .021.007.035.028.056.021.02.035.02.056 0l.111-.111a1.84 1.84 0 0 1 1.206-.488 1.75 1.75 0 0 1 1.205.432c.278.223.425.341.445.362.314.258.474.6.474 1.017 0 .418-.16.766-.474 1.038l-.083.056s-.021.042 0 .07c.021.027.035.041.056.041h.007ZM87.83 20.236h5.886c.425 0 .794.16 1.108.474.313.314.474.683.474 1.108v2.055c0 .425-.16.794-.474 1.094-.314.3-.683.46-1.108.46H87.83c-.425 0-.794-.154-1.108-.46a1.477 1.477 0 0 1-.473-1.094v-2.055c0-.425.16-.794.473-1.108a1.519 1.519 0 0 1 1.108-.473Zm5.162 7.663v-.278c0-.168-.084-.251-.251-.251h-3.887c-.167 0-.25.084-.25.25v.28c0 .166.083.25.25.25h3.887c.167 0 .25-.084.25-.25Zm0 2.027v-.278c0-.167-.084-.25-.251-.25h-3.887c-.167 0-.25.083-.25.25v.278c0 .147.083.223.25.223h3.887c.167 0 .25-.076.25-.223Zm-.363-7.913v-.223c0-.167-.076-.25-.222-.25h-3.219c-.146 0-.223.083-.223.25v.223c0 .167.077.25.223.25h3.219c.146 0 .222-.083.222-.25Zm0 1.944v-.223c0-.168-.076-.251-.222-.251h-3.219c-.146 0-.223.083-.223.25v.223c0 .168.077.251.223.251h3.219c.146 0 .222-.083.222-.25Zm11.55-.586c.035 0 .063-.028.084-.083.021-.056.007-.09-.028-.112a20.351 20.351 0 0 0-1.888-1.553c-.132-.09-.195-.056-.195.111v1.387c0 .167.084.25.251.25h1.776ZM113.619 23.707c-.37 0-.683-.133-.948-.39a1.26 1.26 0 0 1-.39-.948c0-.348.132-.655.39-.92.258-.264.571-.39.948-.39h5.97c.167 0 .25-.083.25-.25.035-1.108.056-1.979.056-2.613 0-.404.146-.759.446-1.052a1.477 1.477 0 0 1 1.08-.445c.425 0 .787.146 1.079.445.293.3.446.655.446 1.08 0 .613-.021 1.47-.055 2.585 0 .167.076.25.222.25h9.69c.425 0 .795.16 1.094.474.3.314.46.683.46 1.108-.021 2.87-.063 5.294-.126 7.273-.062 1.978-.188 3.664-.376 5.05-.188 1.386-.39 2.48-.627 3.274-.23.794-.557 1.414-.989 1.86-.425.446-.857.725-1.289.85-.432.118-1.017.181-1.734.181-.962 0-2.397-.084-4.305-.25a1.529 1.529 0 0 1-.996-.488 1.41 1.41 0 0 1-.418-1.017c0-.39.139-.683.418-.927a1.22 1.22 0 0 1 .975-.32c1.665.146 2.856.223 3.58.223.725 0 1.206-.293 1.568-.892.362-.592.655-1.95.892-4.082.229-2.125.355-5.28.376-9.467 0-.147-.077-.223-.223-.223h-8.137c-.167 0-.251.083-.251.25-.334 4.131-1.065 7.454-2.194 9.983-1.128 2.529-2.842 4.779-5.134 6.764a1.423 1.423 0 0 1-1.108.362 1.617 1.617 0 0 1-1.079-.529 1.39 1.39 0 0 1-.363-1.08c.035-.404.216-.738.53-1.003 1.964-1.7 3.427-3.63 4.389-5.789.961-2.152 1.602-5.057 1.915-8.707 0-.168-.076-.251-.223-.251h-5.803l-.006.02ZM143.915 40.948a1.15 1.15 0 0 1-.927.446c-.376 0-.697-.146-.961-.446a1.751 1.751 0 0 1-.404-1.08 1.72 1.72 0 0 1 .348-1.107c1.776-2.515 2.731-6.395 2.856-11.634 0-.146-.076-.223-.223-.223h-.808a1.49 1.49 0 0 1-1.107-.474 1.517 1.517 0 0 1-.474-1.107v-5.859c0-.425.16-.794.474-1.107a1.517 1.517 0 0 1 1.107-.474h8.993c.425 0 .795.16 1.108.474.314.313.474.682.474 1.107v5.859c0 .425-.16.794-.474 1.107a1.52 1.52 0 0 1-1.108.474h-4.939c-.167 0-.25.077-.25.223 0 .223 0 .557-.014.996-.007.446-.021.78-.042.996 0 .133.077.195.223.195h5.022c.425 0 .795.154 1.094.46.307.307.46.669.46 1.1-.021 3.352-.118 5.79-.307 7.315-.188 1.526-.459 2.501-.822 2.926-.362.425-.947.641-1.762.641-.815 0-1.721-.028-2.828-.084-.39-.02-.718-.16-.99-.431a1.451 1.451 0 0 1-.431-.99 1.107 1.107 0 0 1 .362-.898c.258-.251.571-.363.94-.349.46.021 1.073.028 1.832.028.293 0 .516-.146.655-.432.14-.285.258-.947.362-1.971.105-1.024.154-2.55.154-4.57 0-.167-.084-.25-.251-.25h-3.748c-.146 0-.244.083-.279.25-.536 3.755-1.651 6.723-3.329 8.882l.014.007Zm1.135-20.404v3.831c0 .168.084.251.251.251h6.137c.146 0 .223-.083.223-.25v-3.832c0-.146-.077-.223-.223-.223h-6.137c-.167 0-.251.077-.251.223Zm14.107 15.103a1.365 1.365 0 0 1-.997.418c-.383 0-.724-.14-1.01-.418a1.353 1.353 0 0 1-.432-.996V19.994c0-.39.147-.725.432-.997a1.407 1.407 0 0 1 1.01-.417c.384 0 .725.139.997.418.278.278.418.613.418.996V34.65c0 .39-.14.724-.418.996Zm4.374-17.757a1.426 1.426 0 0 1 1.045-.432c.411 0 .753.146 1.038.432.286.285.432.634.432 1.038v18.795c0 1.81-.195 2.94-.585 3.371-.39.432-1.4.655-3.023.655-.404 0-1.185-.028-2.334-.084-.39-.02-.725-.16-.996-.431a1.436 1.436 0 0 1-.446-.99c-.021-.348.104-.654.362-.92.258-.257.571-.375.948-.361a34.47 34.47 0 0 0 1.915.055c.558 0 .899-.07 1.024-.209.133-.139.195-.55.195-1.233V18.921c0-.404.147-.752.432-1.038l-.007.007ZM194.858 27.594c2.09 1.832 3.135 4.103 3.135 6.799 0 1.609-.348 2.78-1.052 3.497-.703.717-1.804 1.08-3.302 1.08h-.418c-.369 0-.703-.119-1.003-.363a1.547 1.547 0 0 1-.557-.92c-.077-.334 0-.626.209-.89a1.12 1.12 0 0 1 .822-.419c.961-.02 1.602-.174 1.916-.474.313-.292.473-.836.473-1.609 0-1.867-.85-3.748-2.556-5.635-.669-.76-.767-1.589-.307-2.501 1.052-2.055 1.909-4.006 2.557-5.859.035-.146-.021-.223-.167-.223h-3.72c-.168 0-.251.084-.251.251V40.46c0 .39-.14.725-.418.996a1.392 1.392 0 0 1-.996.418c-.383 0-.725-.139-1.003-.418a1.362 1.362 0 0 1-.418-.996V19.945c0-.035-.007-.056-.028-.056s-.035.007-.056.028a31.745 31.745 0 0 1-2.835 4.194c-.091.132-.063.195.083.195h.864c.335 0 .62.118.864.362a1.2 1.2 0 0 1 .362.864c0 .334-.118.62-.362.864a1.174 1.174 0 0 1-.864.362h-2.995a.565.565 0 0 0-.418.167 29.761 29.761 0 0 1-2.083 2c-.077.076-.049.11.083.11h4.166c.425 0 .794.161 1.094.474.299.314.46.683.46 1.108v9.857c0 .39-.14.725-.418.997a1.392 1.392 0 0 1-.996.417h-.446a.94.94 0 0 1-.683-.292.94.94 0 0 1-.293-.683c0-.09-.048-.14-.139-.14h-5.747c-.111 0-.167.05-.167.14a.954.954 0 0 1-.279.683.887.887 0 0 1-.669.292h-.501a1.42 1.42 0 0 1-1.038-.431 1.42 1.42 0 0 1-.432-1.038v-7.022c0-.056-.021-.098-.07-.126-.048-.028-.09-.02-.125.014a1.05 1.05 0 0 0-.237.14 1.03 1.03 0 0 1-.237.139c-.313.188-.648.202-1.003.056a1.17 1.17 0 0 1-.697-.78 1.53 1.53 0 0 1 .056-1.15c.167-.376.432-.669.808-.87a32.833 32.833 0 0 0 5.636-3.916c.035-.02.049-.049.028-.083-.021-.035-.049-.056-.084-.056h-5.134c-.334 0-.62-.119-.864-.362a1.173 1.173 0 0 1-.362-.864c0-.335.118-.613.362-.85.237-.23.53-.348.864-.348h3.804c.167 0 .25-.084.25-.251v-2.445c0-.147-.083-.223-.25-.223h-2.529c-.314 0-.592-.119-.836-.363-.244-.243-.362-.515-.362-.835 0-.32.118-.586.362-.822.244-.23.515-.349.836-.349h2.529c.167 0 .25-.083.25-.25v-.725c0-.404.14-.752.418-1.045.279-.286.62-.432 1.024-.432s.753.146 1.045.432c.286.286.432.634.432 1.045v.724c0 .168.077.251.223.251h1.888c.425 0 .794.153 1.094.46.299.306.459.669.459 1.094v.028c0 .034.021.062.056.083.035.021.063.007.084-.028.446-.648.836-1.268 1.163-1.86a1.55 1.55 0 0 1 .836-.682 1.411 1.411 0 0 1 1.052.041c.313.147.529.363.641.641a.09.09 0 0 0 .07.028.09.09 0 0 0 .069-.028c.091-.334.279-.599.557-.808.279-.202.593-.306.948-.306h7.217c.313 0 .592.118.836.362.237.244.362.515.362.836 0 .815-.118 1.574-.362 2.278a45.164 45.164 0 0 1-2.668 5.998c-.077.167-.049.3.083.39l.007.014Zm-11.8 3.887h-5.552c-.168 0-.251.083-.251.25v1.805c0 .167.083.25.251.25h5.552c.167 0 .25-.083.25-.25v-1.804c0-.168-.083-.251-.25-.251Zm.25 6.694v-1.86c0-.167-.083-.25-.25-.25h-5.552c-.168 0-.251.083-.251.25v1.86c0 .168.083.251.251.251h5.552c.167 0 .25-.083.25-.25Zm.112-16.572c.076-.112.035-.167-.112-.167h-2.835c-.146 0-.223.076-.223.223v2.445c0 .146.077.223.223.223h.446a.544.544 0 0 0 .39-.14 50.629 50.629 0 0 0 2.111-2.584Z" fill="#008088"/></g><defs><clipPath id="a"><path fill="#fff" d="M0 0h327v168H0z"/></clipPath><filter id="b" x="19.046" y="89.252" width="231.456" height="37.932" filterUnits="userSpaceOnUse" color-interpolation-filters="sRGB"><feFlood flood-opacity="0" result="BackgroundImageFix"/><feColorMatrix in="SourceAlpha" values="0 0 0 0 0 0 0 0 0 0 0 0 0 0 0 0 0 0 127 0" result="hardAlpha"/><feOffset dx="1" dy="2"/><feComposite in2="hardAlpha" operator="out"/><feColorMatrix values="0 0 0 0 0.760784 0 0 0 0 0.760784 0 0 0 0 0.760784 0 0 0 1 0"/><feBlend in2="BackgroundImageFix" result="effect1_dropShadow_701_1132"/><feBlend in="SourceGraphic" in2="effect1_dropShadow_701_1132" result="shape"/></filter></defs></svg>